<?xml version="1.0" encoding="UTF-8" standalone="no"?>
<svg
     width="500pt"
     height="500pt"
     viewBox="0 0 500 500"
     version="1.1"
     id="venn5e"
     sodipodi:docname="3c.svg"
     inkscape:version="1.2.2 (b0a8486, 2022-12-01)"
     xmlns:inkscape="http://www.inkscape.org/namespaces/inkscape"
     xmlns:sodipodi="http://sodipodi.sourceforge.net/DTD/sodipodi-0.dtd"
     xmlns="http://www.w3.org/2000/svg"
     xmlns:svg="http://www.w3.org/2000/svg">
    <defs
         id="defs440">
        <rect
             x="310.24706"
             y="170.9194"
             width="27.541515"
             height="34.021871"
             id="rect444" />
    </defs>
    <sodipodi:namedview
         id="namedview438"
         pagecolor="#505050"
         bordercolor="#ffffff"
         borderopacity="1"
         inkscape:showpageshadow="0"
         inkscape:pageopacity="0"
         inkscape:pagecheckerboard="1"
         inkscape:deskcolor="#505050"
         inkscape:document-units="pt"
         showgrid="false"
         inkscape:zoom="2.4526413"
         inkscape:cx="252.58484"
         inkscape:cy="296.41513"
         inkscape:window-width="1680"
         inkscape:window-height="1022"
         inkscape:window-x="0"
         inkscape:window-y="390"
         inkscape:window-maximized="0"
         inkscape:current-layer="venn5e" />
    <circle
         id="basoid"
         style="fill-opacity:0;stroke-width:1;stroke-opacity:1;stroke:#fff"
         cx="250"
         cy="200"
         r="115" />
    <circle
         id="circle433"
         style="fill-opacity:0;stroke-width:1;stroke-opacity:1;stroke:#fff"
         cx="250"
         cy="200"
         r="115"
         transform="rotate(120 250 265)" />
    <circle
         id="circle435"
         style="fill-opacity:0;stroke-width:1;stroke-opacity:1;stroke:#fff"
         cx="250"
         cy="200"
         r="115"
         transform="rotate(240 250 265)" />
    <path
         style="fill:#000000;fill-opacity:0.497409;stroke:#f80000;stroke-width:0.407724;stroke-dasharray:0.305793, 0.917378"
         d="m 135.61984,196.97207 c 0.0821,-2.19848 0.30468,-4.38919 0.49517,-6.58032 0.30795,-3.3829 0.67414,-6.76319 1.28807,-10.1065 4.45954,-25.48523 17.85191,-49.32587 37.38119,-66.31002 13.50808,-11.80944 29.80665,-20.43589 47.22129,-24.793893 5.18907,-1.316819 10.45979,-2.359664 15.79809,-2.827079 4.8804,-0.434311 9.78472,-0.547868 14.68251,-0.522563 6.02445,0.04273 12.05218,0.558487 17.97151,1.69671 8.78496,1.679468 17.41211,4.248975 25.59754,7.86855 17.47714,7.663645 32.96344,19.805885 44.561,34.962345 7.44725,9.69575 13.25985,20.61955 17.32673,32.14181 3.42861,9.72482 5.43055,19.9291 6.15345,30.20874 0.0889,1.35566 0.22326,2.71099 0.25037,4.06915 -0.23374,0.49568 -0.90877,-0.045 -1.28255,-0.14273 -2.50204,-1.17846 -4.91477,-2.53788 -7.42626,-3.69767 -8.72248,-4.15258 -17.98386,-7.15666 -27.47261,-8.96292 -3.51853,-0.66468 -7.06081,-1.22295 -10.62437,-1.58111 -4.44348,-0.36599 -8.90642,-0.42588 -13.3629,-0.40953 -3.78389,0.0374 -7.5786,0.12103 -11.3325,0.64068 -12.92847,1.62955 -25.63715,5.25029 -37.35857,10.96864 -1.84846,0.90978 -3.66926,1.87415 -5.5014,2.81609 -3.14463,-1.63004 -6.27366,-3.29717 -9.53095,-4.69595 -10.76171,-4.6987 -22.23674,-7.73496 -33.89378,-9.11362 -6.65816,-0.78675 -13.38816,-0.96149 -20.07675,-0.49053 -10.53005,0.67296 -20.9882,2.70358 -30.93873,6.23396 -5.28479,1.85505 -10.41239,4.13445 -15.39851,6.68078 -1.40748,0.67725 -2.80483,1.39004 -4.27527,1.92263 -0.0676,0.002 -0.19887,0.0917 -0.25177,0.0243 z"
         id="path2136" />
    <path
         style="fill:#000000;fill-opacity:0.497409;stroke:#f80000;stroke-width:0.407724;stroke-dasharray:0.305793, 0.917378"
         d="m 309.21508,292.70888 c -0.80294,-20.82027 -7.47396,-41.34851 -18.88488,-58.76721 -7.14163,-10.89476 -16.17917,-20.53127 -26.52693,-28.43826 -2.98841,-2.28695 -6.1032,-4.40512 -9.30312,-6.38428 -0.97913,-0.62334 -1.96933,-1.23063 -2.93157,-1.87974 0.15327,-0.20692 0.43984,-0.30882 0.65762,-0.45334 1.88306,-1.03576 3.82528,-1.95936 5.76636,-2.8801 2.20312,-1.03738 4.43203,-2.02408 6.71849,-2.86489 4.22487,-1.56996 8.52114,-2.94825 12.86668,-4.14382 3.09121,-0.85385 6.23673,-1.49387 9.39004,-2.06975 4.64672,-0.84093 9.35499,-1.33101 14.07432,-1.48608 6.82806,-0.23466 13.68042,-0.0143 20.45815,0.87624 10.15097,1.30497 20.10382,4.07205 29.50236,8.11699 3.335,1.42049 6.58791,3.02398 9.79213,4.71686 1.13482,0.59379 2.26964,1.18758 3.40447,1.78137 0.0481,1.20486 0.14184,2.4092 0.10397,3.61583 -0.13693,6.08448 -0.82013,12.15227 -1.91299,18.13704 -2.75595,14.98901 -8.48818,29.43668 -16.86927,42.17221 -7.07332,10.77438 -16.00528,20.31968 -26.2586,28.12637 -2.57388,1.91704 -5.20135,3.76242 -7.87302,5.54056 -0.55175,0.35972 -1.10039,0.72715 -1.67192,1.05406 -0.23017,-0.18124 -0.18702,-0.56308 -0.25412,-0.83334 -0.14996,-1.30666 -0.19204,-2.62349 -0.24817,-3.93672 z"
         id="path2146" />
    <path
         style="fill:#000000;fill-opacity:0.497409;stroke:#f80000;stroke-width:0.407724;stroke-dasharray:0.305793, 0.917378"
         d="m 238.21258,313.73251 c -10.4084,-1.15058 -20.66153,-3.69241 -30.41106,-7.51202 -4.64369,-1.82118 -9.16369,-3.9585 -13.50618,-6.41338 -0.80346,-0.44703 -1.60691,-0.89405 -2.41037,-1.34107 0.002,-1.4772 -0.01,-2.95519 0.075,-4.43073 0.18014,-3.52495 0.4668,-7.0451 0.87139,-10.55146 2.38851,-19.37419 9.91473,-38.0618 21.48054,-53.776 6.44112,-8.75621 14.123,-16.6106 22.79712,-23.16693 3.07494,-2.28885 6.23814,-4.4595 9.47414,-6.5142 1.12562,-0.71233 2.27385,-1.38779 3.41373,-2.07682 2.90571,1.7913 5.84386,3.53363 8.64585,5.48686 16.38472,11.29525 29.70731,26.97662 38.22149,44.96326 4.10996,8.58998 7.19504,17.68073 9.012,27.03266 1.23601,6.28906 1.90408,12.68159 2.13313,19.08448 0.0545,1.3122 0.10904,2.62439 0.16356,3.93659 -2.77746,1.52202 -5.54597,3.06377 -8.40581,4.42813 -9.09873,4.41413 -18.78583,7.61408 -28.7289,9.46377 -3.48208,0.6455 -6.99104,1.15789 -10.51788,1.48372 -3.64202,0.278 -7.29736,0.32386 -10.94851,0.32951 -3.50718,-0.0158 -7.01858,-0.0649 -10.51615,-0.34469 -0.2813,-0.0242 -0.56239,-0.051 -0.84305,-0.0817 z"
         id="path2157" />
</svg>
