<?xml version="1.0" encoding="UTF-8" standalone="no"?>
<svg
     width="500pt"
     height="500pt"
     viewBox="0 0 500 500"
     version="1.1"
     id="venn5e"
     sodipodi:docname="5a.svg"
     inkscape:version="1.2.2 (b0a8486, 2022-12-01)"
     xmlns:inkscape="http://www.inkscape.org/namespaces/inkscape"
     xmlns:sodipodi="http://sodipodi.sourceforge.net/DTD/sodipodi-0.dtd"
     xmlns="http://www.w3.org/2000/svg"
     xmlns:svg="http://www.w3.org/2000/svg">
    <defs
         id="defs2190" />
    <sodipodi:namedview
         id="namedview438"
         pagecolor="#505050"
         bordercolor="#ffffff"
         borderopacity="1"
         inkscape:showpageshadow="0"
         inkscape:pageopacity="0"
         inkscape:pagecheckerboard="1"
         inkscape:deskcolor="#505050"
         inkscape:document-units="pt"
         showgrid="false"
         inkscape:zoom="2.4526413"
         inkscape:cx="235.25658"
         inkscape:cy="296.41513"
         inkscape:window-width="1680"
         inkscape:window-height="1022"
         inkscape:window-x="2120"
         inkscape:window-y="207"
         inkscape:window-maximized="0"
         inkscape:current-layer="venn5e" />
    <path
         style="fill-opacity:0;stroke-width:1;stroke-opacity:1;stroke:#ffffff"
         d="m 370.24148,148.97667 -0.51563,-4.92187 -0.74218,-4.84766 -0.96875,-4.77343 -1.1875,-4.69141 -1.39844,-4.60156 -1.60938,-4.50781 -1.80859,-4.40625 -2.00391,-4.30469 -2.19531,-4.19141 -2.38281,-4.07812 -2.5586,-3.957032 -2.73437,-3.82813 -2.90234,-3.695312 -3.06641,-3.558594 -3.21875,-3.414063 -3.375,-3.265625 -3.51953,-3.109375 -3.65625,-2.949219 -3.79297,-2.78125 -3.92188,-2.613281 -4.04687,-2.433593 -4.16406,-2.253907 -4.27344,-2.066406 -4.37891,-1.867187 -4.48437,-1.671876 -4.57813,-1.46875 -4.66406,-1.253906 -4.75,-1.039062 -4.82812,-0.820313 -4.90235,-0.59375 -4.96875,-0.355469 -5.03125,-0.121093 -3.29687,0.05078 -3.27735,0.15625 -3.24609,0.253906 -3.21875,0.359375 -3.1875,0.453125 -3.15625,0.550782 -3.12109,0.648437 -3.08985,0.742187 -3.05078,0.832032 -3.01172,0.921875 -2.97265,1.011719 -2.9336,1.101562 -2.89062,1.183594 -2.84375,1.269531 -2.79688,1.355469 -2.75,1.433594 -2.70312,1.511718 -2.65235,1.59375 -2.59765,1.667969 -2.54297,1.742187 -2.49219,1.816407 -2.42969,1.886719 -2.375,1.960937 -2.3125,2.027344 -2.25,2.09375 -2.1914,2.160156 -2.1211,2.226563 -2.05859,2.285156 -1.98828,2.347656 -1.91797,2.40625 -1.84766,2.464844 -1.77343,2.523437 -2.32032,3.628912 -2.14843,3.57812 -1.98047,3.54297 -1.8125,3.53516 -1.64453,3.54297 -1.48438,3.57422 -1.32031,3.6289 -1.16406,3.69922 -1.00782,3.79687 -0.85156,3.91407 -0.69922,4.05078 -0.54687,4.21094 -0.40235,4.39453 -0.2539,4.59375 -0.10938,4.8164 0.0352,5.0625 0.21094,5.60547 0.35937,5.33985 0.49609,5.08593 0.62891,4.84766 0.75781,4.62109 0.87891,4.40625 0.99219,4.20703 1.10547,4.01954 0.96875,3.15234 1.03515,3.04687 1.08985,2.94532 1.14062,2.85547 1.19141,2.76562 1.23828,2.69141 2.59765,5.17578 2.73047,4.95312 2.83985,4.78516 2.91015,4.67578 2.95703,4.62891 2.38282,3.55859 2.2539,3.52344 2.13282,3.49609 2.01171,3.47266 1.89844,3.46484 1.78516,3.45703 1.6875,3.46485 1.58594,3.47265 1.48828,3.4961 1.40234,3.52734 1.31641,3.55859 1.23828,3.60938 1.16406,3.65625 1.09375,3.71875 1.02734,3.78906 0.96875,3.86719 2.29297,9.90234 2.30078,9.96875 1.19922,4.94922 1.26563,4.88281 1.33984,4.80079 1.44531,4.6875 0.99219,2.98046 1.04688,2.91016 1.10547,2.83594 1.17578,2.7539 1.24609,2.66407 1.32031,2.5664 1.40625,2.46094 1.49219,2.35156 1.58984,2.23047 1.6836,2.10547 1.79297,1.97266 1.90234,1.82812 2.01563,1.6836 2.14062,1.52343 2.26563,1.36328 2.39843,1.19141 2.30469,0.82031 2.26563,0.69141 2.22265,0.57031 2.1836,0.44531 2.14453,0.32813 2.10156,0.21484 2.0625,0.0977 2.01953,-0.0117 1.98047,-0.12109 1.94141,-0.23047 1.89843,-0.32813 1.85938,-0.43359 1.8164,-0.52734 1.77735,-0.625 1.73437,-0.71485 1.69532,-0.80859 1.65234,-0.89453 1.60937,-0.98047 1.57032,-1.0625 1.52734,-1.14453 1.48828,-1.21875 1.44531,-1.29297 1.40235,-1.36719 1.36328,-1.43359 1.32031,-1.50391 1.27735,-1.5625 1.23828,-1.62891 1.19531,-1.6875 2.26172,-3.53906 2.09375,-3.74219 1.19922,-2.8164 1.125,-2.90235 1.0664,-2.98437 1.01172,-3.0625 1.8711,-6.3125 1.71484,-6.51953 1.60156,-6.67188 1.54297,-6.76562 3.08203,-13.57813 1.41797,-5.8789 1.56641,-5.73828 1.72656,-5.60938 1.89453,-5.48437 2.07031,-5.36719 2.25,-5.26172 2.44141,-5.15625 2.64062,-5.0625 2.10157,-3.66016 2.12109,-3.53515 4.26563,-6.8086 4.23046,-6.625 4.11719,-6.65234 2.50781,-4.55859 2.32422,-4.36719 2.14453,-4.22656 1.96485,-4.13672 1.78125,-4.10547 1.59765,-4.125 1.41016,-4.19922 1.22656,-4.32422 1.03516,-4.50391 0.85156,-4.73828 0.66016,-5.02343 0.47265,-5.35938 0.28125,-5.75781 0.0859,-6.19922 -0.10547,-6.69922 -0.29687,-7.25391"
         id="basoid" />
    <path
         style="fill-opacity:0;stroke-width:1;stroke-opacity:1;stroke:#ffffff"
         d="m 370.24148,148.97667 -0.51563,-4.92187 -0.74218,-4.84766 -0.96875,-4.77343 -1.1875,-4.69141 -1.39844,-4.60156 -1.60938,-4.50781 -1.80859,-4.40625 -2.00391,-4.30469 -2.19531,-4.19141 -2.38281,-4.07812 -2.5586,-3.957032 -2.73437,-3.82813 -2.90234,-3.695312 -3.06641,-3.558594 -3.21875,-3.414063 -3.375,-3.265625 -3.51953,-3.109375 -3.65625,-2.949219 -3.79297,-2.78125 -3.92188,-2.613281 -4.04687,-2.433593 -4.16406,-2.253907 -4.27344,-2.066406 -4.37891,-1.867187 -4.48437,-1.671876 -4.57813,-1.46875 -4.66406,-1.253906 -4.75,-1.039062 -4.82812,-0.820313 -4.90235,-0.59375 -4.96875,-0.355469 -5.03125,-0.121093 -3.29687,0.05078 -3.27735,0.15625 -3.24609,0.253906 -3.21875,0.359375 -3.1875,0.453125 -3.15625,0.550782 -3.12109,0.648437 -3.08985,0.742187 -3.05078,0.832032 -3.01172,0.921875 -2.97265,1.011719 -2.9336,1.101562 -2.89062,1.183594 -2.84375,1.269531 -2.79688,1.355469 -2.75,1.433594 -2.70312,1.511718 -2.65235,1.59375 -2.59765,1.667969 -2.54297,1.742187 -2.49219,1.816407 -2.42969,1.886719 -2.375,1.960937 -2.3125,2.027344 -2.25,2.09375 -2.1914,2.160156 -2.1211,2.226563 -2.05859,2.285156 -1.98828,2.347656 -1.91797,2.40625 -1.84766,2.464844 -1.77343,2.523437 -2.32032,3.628912 -2.14843,3.57812 -1.98047,3.54297 -1.8125,3.53516 -1.64453,3.54297 -1.48438,3.57422 -1.32031,3.6289 -1.16406,3.69922 -1.00782,3.79687 -0.85156,3.91407 -0.69922,4.05078 -0.54687,4.21094 -0.40235,4.39453 -0.2539,4.59375 -0.10938,4.8164 0.0352,5.0625 0.21094,5.60547 0.35937,5.33985 0.49609,5.08593 0.62891,4.84766 0.75781,4.62109 0.87891,4.40625 0.99219,4.20703 1.10547,4.01954 0.96875,3.15234 1.03515,3.04687 1.08985,2.94532 1.14062,2.85547 1.19141,2.76562 1.23828,2.69141 2.59765,5.17578 2.73047,4.95312 2.83985,4.78516 2.91015,4.67578 2.95703,4.62891 2.38282,3.55859 2.2539,3.52344 2.13282,3.49609 2.01171,3.47266 1.89844,3.46484 1.78516,3.45703 1.6875,3.46485 1.58594,3.47265 1.48828,3.4961 1.40234,3.52734 1.31641,3.55859 1.23828,3.60938 1.16406,3.65625 1.09375,3.71875 1.02734,3.78906 0.96875,3.86719 2.29297,9.90234 2.30078,9.96875 1.19922,4.94922 1.26563,4.88281 1.33984,4.80079 1.44531,4.6875 0.99219,2.98046 1.04688,2.91016 1.10547,2.83594 1.17578,2.7539 1.24609,2.66407 1.32031,2.5664 1.40625,2.46094 1.49219,2.35156 1.58984,2.23047 1.6836,2.10547 1.79297,1.97266 1.90234,1.82812 2.01563,1.6836 2.14062,1.52343 2.26563,1.36328 2.39843,1.19141 2.30469,0.82031 2.26563,0.69141 2.22265,0.57031 2.1836,0.44531 2.14453,0.32813 2.10156,0.21484 2.0625,0.0977 2.01953,-0.0117 1.98047,-0.12109 1.94141,-0.23047 1.89843,-0.32813 1.85938,-0.43359 1.8164,-0.52734 1.77735,-0.625 1.73437,-0.71485 1.69532,-0.80859 1.65234,-0.89453 1.60937,-0.98047 1.57032,-1.0625 1.52734,-1.14453 1.48828,-1.21875 1.44531,-1.29297 1.40235,-1.36719 1.36328,-1.43359 1.32031,-1.50391 1.27735,-1.5625 1.23828,-1.62891 1.19531,-1.6875 2.26172,-3.53906 2.09375,-3.74219 1.19922,-2.8164 1.125,-2.90235 1.0664,-2.98437 1.01172,-3.0625 1.8711,-6.3125 1.71484,-6.51953 1.60156,-6.67188 1.54297,-6.76562 3.08203,-13.57813 1.41797,-5.8789 1.56641,-5.73828 1.72656,-5.60938 1.89453,-5.48437 2.07031,-5.36719 2.25,-5.26172 2.44141,-5.15625 2.64062,-5.0625 2.10157,-3.66016 2.12109,-3.53515 4.26563,-6.8086 4.23046,-6.625 4.11719,-6.65234 2.50781,-4.55859 2.32422,-4.36719 2.14453,-4.22656 1.96485,-4.13672 1.78125,-4.10547 1.59765,-4.125 1.41016,-4.19922 1.22656,-4.32422 1.03516,-4.50391 0.85156,-4.73828 0.66016,-5.02343 0.47265,-5.35938 0.28125,-5.75781 0.0859,-6.19922 -0.10547,-6.69922 -0.29687,-7.25391"
         id="path2181"
         transform="rotate(72 245 245)" />
    <path
         style="fill-opacity:0;stroke-width:1;stroke-opacity:1;stroke:#ffffff"
         d="m 370.24148,148.97667 -0.51563,-4.92187 -0.74218,-4.84766 -0.96875,-4.77343 -1.1875,-4.69141 -1.39844,-4.60156 -1.60938,-4.50781 -1.80859,-4.40625 -2.00391,-4.30469 -2.19531,-4.19141 -2.38281,-4.07812 -2.5586,-3.957032 -2.73437,-3.82813 -2.90234,-3.695312 -3.06641,-3.558594 -3.21875,-3.414063 -3.375,-3.265625 -3.51953,-3.109375 -3.65625,-2.949219 -3.79297,-2.78125 -3.92188,-2.613281 -4.04687,-2.433593 -4.16406,-2.253907 -4.27344,-2.066406 -4.37891,-1.867187 -4.48437,-1.671876 -4.57813,-1.46875 -4.66406,-1.253906 -4.75,-1.039062 -4.82812,-0.820313 -4.90235,-0.59375 -4.96875,-0.355469 -5.03125,-0.121093 -3.29687,0.05078 -3.27735,0.15625 -3.24609,0.253906 -3.21875,0.359375 -3.1875,0.453125 -3.15625,0.550782 -3.12109,0.648437 -3.08985,0.742187 -3.05078,0.832032 -3.01172,0.921875 -2.97265,1.011719 -2.9336,1.101562 -2.89062,1.183594 -2.84375,1.269531 -2.79688,1.355469 -2.75,1.433594 -2.70312,1.511718 -2.65235,1.59375 -2.59765,1.667969 -2.54297,1.742187 -2.49219,1.816407 -2.42969,1.886719 -2.375,1.960937 -2.3125,2.027344 -2.25,2.09375 -2.1914,2.160156 -2.1211,2.226563 -2.05859,2.285156 -1.98828,2.347656 -1.91797,2.40625 -1.84766,2.464844 -1.77343,2.523437 -2.32032,3.628912 -2.14843,3.57812 -1.98047,3.54297 -1.8125,3.53516 -1.64453,3.54297 -1.48438,3.57422 -1.32031,3.6289 -1.16406,3.69922 -1.00782,3.79687 -0.85156,3.91407 -0.69922,4.05078 -0.54687,4.21094 -0.40235,4.39453 -0.2539,4.59375 -0.10938,4.8164 0.0352,5.0625 0.21094,5.60547 0.35937,5.33985 0.49609,5.08593 0.62891,4.84766 0.75781,4.62109 0.87891,4.40625 0.99219,4.20703 1.10547,4.01954 0.96875,3.15234 1.03515,3.04687 1.08985,2.94532 1.14062,2.85547 1.19141,2.76562 1.23828,2.69141 2.59765,5.17578 2.73047,4.95312 2.83985,4.78516 2.91015,4.67578 2.95703,4.62891 2.38282,3.55859 2.2539,3.52344 2.13282,3.49609 2.01171,3.47266 1.89844,3.46484 1.78516,3.45703 1.6875,3.46485 1.58594,3.47265 1.48828,3.4961 1.40234,3.52734 1.31641,3.55859 1.23828,3.60938 1.16406,3.65625 1.09375,3.71875 1.02734,3.78906 0.96875,3.86719 2.29297,9.90234 2.30078,9.96875 1.19922,4.94922 1.26563,4.88281 1.33984,4.80079 1.44531,4.6875 0.99219,2.98046 1.04688,2.91016 1.10547,2.83594 1.17578,2.7539 1.24609,2.66407 1.32031,2.5664 1.40625,2.46094 1.49219,2.35156 1.58984,2.23047 1.6836,2.10547 1.79297,1.97266 1.90234,1.82812 2.01563,1.6836 2.14062,1.52343 2.26563,1.36328 2.39843,1.19141 2.30469,0.82031 2.26563,0.69141 2.22265,0.57031 2.1836,0.44531 2.14453,0.32813 2.10156,0.21484 2.0625,0.0977 2.01953,-0.0117 1.98047,-0.12109 1.94141,-0.23047 1.89843,-0.32813 1.85938,-0.43359 1.8164,-0.52734 1.77735,-0.625 1.73437,-0.71485 1.69532,-0.80859 1.65234,-0.89453 1.60937,-0.98047 1.57032,-1.0625 1.52734,-1.14453 1.48828,-1.21875 1.44531,-1.29297 1.40235,-1.36719 1.36328,-1.43359 1.32031,-1.50391 1.27735,-1.5625 1.23828,-1.62891 1.19531,-1.6875 2.26172,-3.53906 2.09375,-3.74219 1.19922,-2.8164 1.125,-2.90235 1.0664,-2.98437 1.01172,-3.0625 1.8711,-6.3125 1.71484,-6.51953 1.60156,-6.67188 1.54297,-6.76562 3.08203,-13.57813 1.41797,-5.8789 1.56641,-5.73828 1.72656,-5.60938 1.89453,-5.48437 2.07031,-5.36719 2.25,-5.26172 2.44141,-5.15625 2.64062,-5.0625 2.10157,-3.66016 2.12109,-3.53515 4.26563,-6.8086 4.23046,-6.625 4.11719,-6.65234 2.50781,-4.55859 2.32422,-4.36719 2.14453,-4.22656 1.96485,-4.13672 1.78125,-4.10547 1.59765,-4.125 1.41016,-4.19922 1.22656,-4.32422 1.03516,-4.50391 0.85156,-4.73828 0.66016,-5.02343 0.47265,-5.35938 0.28125,-5.75781 0.0859,-6.19922 -0.10547,-6.69922 -0.29687,-7.25391"
         id="path2183"
         transform="rotate(144 245 245)" />
    <path
         style="fill-opacity:0;stroke-width:1;stroke-opacity:1;stroke:#ffffff"
         d="m 370.24148,148.97667 -0.51563,-4.92187 -0.74218,-4.84766 -0.96875,-4.77343 -1.1875,-4.69141 -1.39844,-4.60156 -1.60938,-4.50781 -1.80859,-4.40625 -2.00391,-4.30469 -2.19531,-4.19141 -2.38281,-4.07812 -2.5586,-3.957032 -2.73437,-3.82813 -2.90234,-3.695312 -3.06641,-3.558594 -3.21875,-3.414063 -3.375,-3.265625 -3.51953,-3.109375 -3.65625,-2.949219 -3.79297,-2.78125 -3.92188,-2.613281 -4.04687,-2.433593 -4.16406,-2.253907 -4.27344,-2.066406 -4.37891,-1.867187 -4.48437,-1.671876 -4.57813,-1.46875 -4.66406,-1.253906 -4.75,-1.039062 -4.82812,-0.820313 -4.90235,-0.59375 -4.96875,-0.355469 -5.03125,-0.121093 -3.29687,0.05078 -3.27735,0.15625 -3.24609,0.253906 -3.21875,0.359375 -3.1875,0.453125 -3.15625,0.550782 -3.12109,0.648437 -3.08985,0.742187 -3.05078,0.832032 -3.01172,0.921875 -2.97265,1.011719 -2.9336,1.101562 -2.89062,1.183594 -2.84375,1.269531 -2.79688,1.355469 -2.75,1.433594 -2.70312,1.511718 -2.65235,1.59375 -2.59765,1.667969 -2.54297,1.742187 -2.49219,1.816407 -2.42969,1.886719 -2.375,1.960937 -2.3125,2.027344 -2.25,2.09375 -2.1914,2.160156 -2.1211,2.226563 -2.05859,2.285156 -1.98828,2.347656 -1.91797,2.40625 -1.84766,2.464844 -1.77343,2.523437 -2.32032,3.628912 -2.14843,3.57812 -1.98047,3.54297 -1.8125,3.53516 -1.64453,3.54297 -1.48438,3.57422 -1.32031,3.6289 -1.16406,3.69922 -1.00782,3.79687 -0.85156,3.91407 -0.69922,4.05078 -0.54687,4.21094 -0.40235,4.39453 -0.2539,4.59375 -0.10938,4.8164 0.0352,5.0625 0.21094,5.60547 0.35937,5.33985 0.49609,5.08593 0.62891,4.84766 0.75781,4.62109 0.87891,4.40625 0.99219,4.20703 1.10547,4.01954 0.96875,3.15234 1.03515,3.04687 1.08985,2.94532 1.14062,2.85547 1.19141,2.76562 1.23828,2.69141 2.59765,5.17578 2.73047,4.95312 2.83985,4.78516 2.91015,4.67578 2.95703,4.62891 2.38282,3.55859 2.2539,3.52344 2.13282,3.49609 2.01171,3.47266 1.89844,3.46484 1.78516,3.45703 1.6875,3.46485 1.58594,3.47265 1.48828,3.4961 1.40234,3.52734 1.31641,3.55859 1.23828,3.60938 1.16406,3.65625 1.09375,3.71875 1.02734,3.78906 0.96875,3.86719 2.29297,9.90234 2.30078,9.96875 1.19922,4.94922 1.26563,4.88281 1.33984,4.80079 1.44531,4.6875 0.99219,2.98046 1.04688,2.91016 1.10547,2.83594 1.17578,2.7539 1.24609,2.66407 1.32031,2.5664 1.40625,2.46094 1.49219,2.35156 1.58984,2.23047 1.6836,2.10547 1.79297,1.97266 1.90234,1.82812 2.01563,1.6836 2.14062,1.52343 2.26563,1.36328 2.39843,1.19141 2.30469,0.82031 2.26563,0.69141 2.22265,0.57031 2.1836,0.44531 2.14453,0.32813 2.10156,0.21484 2.0625,0.0977 2.01953,-0.0117 1.98047,-0.12109 1.94141,-0.23047 1.89843,-0.32813 1.85938,-0.43359 1.8164,-0.52734 1.77735,-0.625 1.73437,-0.71485 1.69532,-0.80859 1.65234,-0.89453 1.60937,-0.98047 1.57032,-1.0625 1.52734,-1.14453 1.48828,-1.21875 1.44531,-1.29297 1.40235,-1.36719 1.36328,-1.43359 1.32031,-1.50391 1.27735,-1.5625 1.23828,-1.62891 1.19531,-1.6875 2.26172,-3.53906 2.09375,-3.74219 1.19922,-2.8164 1.125,-2.90235 1.0664,-2.98437 1.01172,-3.0625 1.8711,-6.3125 1.71484,-6.51953 1.60156,-6.67188 1.54297,-6.76562 3.08203,-13.57813 1.41797,-5.8789 1.56641,-5.73828 1.72656,-5.60938 1.89453,-5.48437 2.07031,-5.36719 2.25,-5.26172 2.44141,-5.15625 2.64062,-5.0625 2.10157,-3.66016 2.12109,-3.53515 4.26563,-6.8086 4.23046,-6.625 4.11719,-6.65234 2.50781,-4.55859 2.32422,-4.36719 2.14453,-4.22656 1.96485,-4.13672 1.78125,-4.10547 1.59765,-4.125 1.41016,-4.19922 1.22656,-4.32422 1.03516,-4.50391 0.85156,-4.73828 0.66016,-5.02343 0.47265,-5.35938 0.28125,-5.75781 0.0859,-6.19922 -0.10547,-6.69922 -0.29687,-7.25391"
         id="path2185"
         transform="rotate(216 245 245)" />
    <path
         style="fill-opacity:0;stroke-width:1;stroke-opacity:1;stroke:#ffffff"
         d="m 370.24148,148.97667 -0.51563,-4.92187 -0.74218,-4.84766 -0.96875,-4.77343 -1.1875,-4.69141 -1.39844,-4.60156 -1.60938,-4.50781 -1.80859,-4.40625 -2.00391,-4.30469 -2.19531,-4.19141 -2.38281,-4.07812 -2.5586,-3.957032 -2.73437,-3.82813 -2.90234,-3.695312 -3.06641,-3.558594 -3.21875,-3.414063 -3.375,-3.265625 -3.51953,-3.109375 -3.65625,-2.949219 -3.79297,-2.78125 -3.92188,-2.613281 -4.04687,-2.433593 -4.16406,-2.253907 -4.27344,-2.066406 -4.37891,-1.867187 -4.48437,-1.671876 -4.57813,-1.46875 -4.66406,-1.253906 -4.75,-1.039062 -4.82812,-0.820313 -4.90235,-0.59375 -4.96875,-0.355469 -5.03125,-0.121093 -3.29687,0.05078 -3.27735,0.15625 -3.24609,0.253906 -3.21875,0.359375 -3.1875,0.453125 -3.15625,0.550782 -3.12109,0.648437 -3.08985,0.742187 -3.05078,0.832032 -3.01172,0.921875 -2.97265,1.011719 -2.9336,1.101562 -2.89062,1.183594 -2.84375,1.269531 -2.79688,1.355469 -2.75,1.433594 -2.70312,1.511718 -2.65235,1.59375 -2.59765,1.667969 -2.54297,1.742187 -2.49219,1.816407 -2.42969,1.886719 -2.375,1.960937 -2.3125,2.027344 -2.25,2.09375 -2.1914,2.160156 -2.1211,2.226563 -2.05859,2.285156 -1.98828,2.347656 -1.91797,2.40625 -1.84766,2.464844 -1.77343,2.523437 -2.32032,3.628912 -2.14843,3.57812 -1.98047,3.54297 -1.8125,3.53516 -1.64453,3.54297 -1.48438,3.57422 -1.32031,3.6289 -1.16406,3.69922 -1.00782,3.79687 -0.85156,3.91407 -0.69922,4.05078 -0.54687,4.21094 -0.40235,4.39453 -0.2539,4.59375 -0.10938,4.8164 0.0352,5.0625 0.21094,5.60547 0.35937,5.33985 0.49609,5.08593 0.62891,4.84766 0.75781,4.62109 0.87891,4.40625 0.99219,4.20703 1.10547,4.01954 0.96875,3.15234 1.03515,3.04687 1.08985,2.94532 1.14062,2.85547 1.19141,2.76562 1.23828,2.69141 2.59765,5.17578 2.73047,4.95312 2.83985,4.78516 2.91015,4.67578 2.95703,4.62891 2.38282,3.55859 2.2539,3.52344 2.13282,3.49609 2.01171,3.47266 1.89844,3.46484 1.78516,3.45703 1.6875,3.46485 1.58594,3.47265 1.48828,3.4961 1.40234,3.52734 1.31641,3.55859 1.23828,3.60938 1.16406,3.65625 1.09375,3.71875 1.02734,3.78906 0.96875,3.86719 2.29297,9.90234 2.30078,9.96875 1.19922,4.94922 1.26563,4.88281 1.33984,4.80079 1.44531,4.6875 0.99219,2.98046 1.04688,2.91016 1.10547,2.83594 1.17578,2.7539 1.24609,2.66407 1.32031,2.5664 1.40625,2.46094 1.49219,2.35156 1.58984,2.23047 1.6836,2.10547 1.79297,1.97266 1.90234,1.82812 2.01563,1.6836 2.14062,1.52343 2.26563,1.36328 2.39843,1.19141 2.30469,0.82031 2.26563,0.69141 2.22265,0.57031 2.1836,0.44531 2.14453,0.32813 2.10156,0.21484 2.0625,0.0977 2.01953,-0.0117 1.98047,-0.12109 1.94141,-0.23047 1.89843,-0.32813 1.85938,-0.43359 1.8164,-0.52734 1.77735,-0.625 1.73437,-0.71485 1.69532,-0.80859 1.65234,-0.89453 1.60937,-0.98047 1.57032,-1.0625 1.52734,-1.14453 1.48828,-1.21875 1.44531,-1.29297 1.40235,-1.36719 1.36328,-1.43359 1.32031,-1.50391 1.27735,-1.5625 1.23828,-1.62891 1.19531,-1.6875 2.26172,-3.53906 2.09375,-3.74219 1.19922,-2.8164 1.125,-2.90235 1.0664,-2.98437 1.01172,-3.0625 1.8711,-6.3125 1.71484,-6.51953 1.60156,-6.67188 1.54297,-6.76562 3.08203,-13.57813 1.41797,-5.8789 1.56641,-5.73828 1.72656,-5.60938 1.89453,-5.48437 2.07031,-5.36719 2.25,-5.26172 2.44141,-5.15625 2.64062,-5.0625 2.10157,-3.66016 2.12109,-3.53515 4.26563,-6.8086 4.23046,-6.625 4.11719,-6.65234 2.50781,-4.55859 2.32422,-4.36719 2.14453,-4.22656 1.96485,-4.13672 1.78125,-4.10547 1.59765,-4.125 1.41016,-4.19922 1.22656,-4.32422 1.03516,-4.50391 0.85156,-4.73828 0.66016,-5.02343 0.47265,-5.35938 0.28125,-5.75781 0.0859,-6.19922 -0.10547,-6.69922 -0.29687,-7.25391"
         id="path2187"
         transform="rotate(288 245 245)" />
    <path
         style="fill:#000000;fill-opacity:0.497409;stroke:#f80000;stroke-width:1;stroke-dasharray:0.74999999,2.24999761;stroke-dashoffset:0"
         d="m 366.64554,140.7778 c -1.93058,-0.65984 -3.91758,-1.13664 -5.89518,-1.63116 -4.49888,-1.08136 -9.02781,-2.07137 -13.61966,-2.66906 -6.83973,-0.92937 -13.78911,-1.10794 -20.65835,-0.39527 -2.22365,0.21601 -4.43217,0.55563 -6.63757,0.90733 -0.82934,0.10674 -1.66405,0.2526 -2.50252,0.20866 -0.31955,-0.0863 -0.36616,-0.53291 -0.58441,-0.76504 -2.52391,-4.00054 -5.55836,-7.70022 -9.15756,-10.78165 -4.69623,-4.04745 -10.37691,-7.02689 -16.48027,-8.22941 -2.88743,-0.53648 -5.83249,-0.72 -8.76622,-0.69668 -2.21437,0.0142 -4.42387,0.24167 -6.60066,0.64499 -5.0009,0.91708 -9.87683,2.48001 -14.52232,4.53946 -2.53609,1.12867 -4.99292,2.44085 -7.30671,3.97644 -0.39213,0.25342 -0.78425,0.50683 -1.17638,0.76025 -2.86984,-2.58998 -5.70851,-5.21862 -8.73193,-7.63125 -5.28046,-4.27371 -11.00231,-8.00478 -17.07031,-11.06183 -5.20901,-2.63604 -10.62503,-4.84776 -16.14311,-6.74752 -5.58919,-1.930975 -11.23202,-3.71539 -16.94542,-5.243253 -1.61924,-0.434715 -3.25275,-0.813914 -4.89529,-1.148872 -0.49502,-0.132998 -1.0196,-0.229815 -1.45857,-0.505687 -0.0813,-0.306038 0.29694,-0.585083 0.44019,-0.850643 1.37962,-1.7787 2.90182,-3.440843 4.4227,-5.098395 4.39869,-4.775258 9.22572,-9.158925 14.4478,-13.019362 12.3335,-9.153229 26.74358,-15.502921 41.84,-18.351923 3.52038,-0.696547 7.07814,-1.238081 10.66487,-1.426607 3.92125,-0.213687 7.85076,-0.191218 11.7762,-0.154741 3.75189,0.0448 7.5101,0.245617 11.21989,0.831966 6.11033,0.966595 12.15906,2.370068 18.01778,4.36705 16.31883,5.505885 31.17612,15.234279 42.79049,27.946802 11.23859,12.251915 19.43914,27.276505 23.58981,43.380115 0.68697,2.7264 1.3292,5.4709 1.75829,8.25129 0.0412,0.40132 0.13806,0.81178 0.0763,1.21299 -0.38491,-0.0642 -0.76582,-0.23694 -1.14528,-0.35437 -0.24936,-0.0868 -0.49819,-0.17505 -0.74655,-0.26462 z"
         id="path2309"
         inkscape:transform-center-x="10.10082"
         inkscape:transform-center-y="10.3986" />
    <path
         style="fill:#000000;fill-opacity:0.497409;stroke:#f80000;stroke-width:0.999997;stroke-dasharray:none"
         d="m 357.01307,213.5796 c -1.69713,-1.32218 -3.48759,-2.51844 -5.27424,-3.71479 -5.08891,-3.36883 -10.28052,-6.57928 -15.48814,-9.7604 -5.20969,-3.17606 -10.46167,-6.28201 -15.67733,-9.44821 -1.9492,-1.18619 -3.90628,-2.36002 -5.83558,-3.57852 -0.14503,-0.1102 -0.35379,-0.17704 -0.4115,-0.36779 -0.0821,-0.32441 0.01,-0.65993 0.0721,-0.97979 0.24823,-1.04484 0.59961,-2.06146 0.93248,-3.08142 0.80566,-2.37657 1.59778,-4.7585 2.29516,-7.16954 1.51498,-5.18456 2.66688,-10.49719 3.07038,-15.89182 0.21417,-2.82197 0.23587,-5.65772 0.0955,-8.48391 -0.1195,-2.32344 -0.43485,-4.64263 -1.04628,-6.88998 -0.32359,-1.2234 -0.73562,-2.42062 -1.16131,-3.61153 -0.17965,-0.54757 -0.36902,-1.09654 -0.46373,-1.66649 -0.0685,-0.20746 0.18252,-0.25779 0.32574,-0.31194 0.70899,-0.21659 1.44371,-0.33169 2.17237,-0.4604 1.63862,-0.26938 3.28376,-0.4993 4.93187,-0.70218 4.29683,-0.48748 8.63313,-0.54416 12.95074,-0.36999 5.58899,0.24067 11.16806,0.88959 16.63595,2.08447 3.28491,0.71409 6.55016,1.52398 9.77727,2.46649 1.0988,0.33237 2.20451,0.65547 3.26455,1.09984 0.18458,0.0883 0.38708,0.16107 0.53498,0.30687 0.18351,0.28707 0.22698,0.63744 0.30023,0.96377 0.26538,1.51545 0.36184,3.05417 0.46888,4.58706 0.28581,4.69638 0.36908,9.40279 0.38486,14.10703 -2.9e-4,4.44031 -0.0562,8.88374 -0.33586,13.31635 -0.14678,2.34976 -0.45177,4.68585 -0.773,7.01702 -0.71554,5.08666 -1.76947,10.13066 -3.26653,15.04653 -0.71095,2.33412 -1.49118,4.64879 -2.40226,6.91301 -1.05518,2.64093 -2.16145,5.26224 -3.35054,7.84584 -0.29146,0.61069 -0.56591,1.23241 -0.9149,1.81324 -0.0524,0.14988 -0.18682,0.17244 -0.29235,0.0551 -0.52359,-0.35406 -1.02202,-0.7445 -1.51951,-1.13393 z"
         id="path2321"
         inkscape:transform-center-x="3.975847"
         inkscape:transform-center-y="6.1450736" />
    <path
         style="fill:#000000;fill-opacity:0.497409;stroke:#f80000;stroke-width:2;stroke-dasharray:none;stroke-dashoffset:0"
         d="m 263.89917,377.03458 c -1.08827,-0.197 -2.18227,-0.36059 -3.27189,-0.54957 -1.81161,-0.33687 -3.5986,-0.79785 -5.36252,-1.3287 -1.13207,-0.34584 -2.25792,-0.72116 -3.34119,-1.20092 -0.38313,-0.16482 -0.76626,-0.32964 -1.14938,-0.49446 0.90235,-1.04104 1.80989,-2.07762 2.70715,-3.12305 2.79316,-3.29689 5.3765,-6.76583 7.86718,-10.29496 3.12318,-4.44817 6.09205,-9.00729 8.83246,-13.70175 1.12721,-1.93147 2.20238,-3.8935 3.20826,-5.89092 0.44172,-0.8688 0.88344,-1.73759 1.32516,-2.60639 3.40555,0.86719 6.81016,1.73808 10.2165,2.60217 5.24556,1.32268 10.51607,2.56597 15.84897,3.48646 1.86812,0.33165 3.74864,0.59264 5.61125,0.95554 0.1111,0.034 0.30056,0.0179 0.3068,0.17609 0.0187,0.27987 -0.0708,0.55281 -0.1413,0.82026 -0.30215,1.00388 -0.71559,1.96992 -1.13658,2.92858 -0.88891,1.99083 -1.89456,3.93011 -3.02597,5.79417 -1.63342,2.72992 -3.4635,5.34707 -5.54021,7.75932 -1.57627,1.83101 -3.26439,3.56663 -5.0563,5.18729 -3.12515,2.81775 -6.63961,5.24188 -10.51338,6.91056 -3.38714,1.47016 -7.02887,2.33314 -10.70964,2.59788 -1.80471,0.14056 -3.61614,0.10726 -5.42353,0.0484 -0.41733,-0.0194 -0.83698,-0.0239 -1.25184,-0.076 z"
         id="path2337"
         inkscape:transform-center-x="2.4269486"
         inkscape:transform-center-y="0.083388795" />
    <path
         style="fill:#000000;fill-opacity:0.497409;stroke:#f80000;stroke-width:1.2;stroke-dasharray:none;stroke-dashoffset:0"
         d="m 305.18119,343.38304 c -1.17814,-0.22941 -2.36076,-0.43539 -3.54162,-0.65027 -1.36441,-0.24886 -2.73374,-0.47236 -4.08968,-0.76557 -3.86028,-0.81844 -7.70214,-1.72101 -11.54123,-2.63287 -2.98754,-0.71844 -5.97613,-1.43493 -8.94503,-2.2277 -0.4847,-0.13771 -0.97673,-0.25631 -1.44875,-0.4344 -0.13981,-0.0438 -0.0128,-0.21221 -4.3e-4,-0.30872 0.26752,-0.7652 0.59054,-1.50951 0.90951,-2.25428 0.61579,-1.40403 1.2444,-2.80258 1.82559,-4.2215 2.04312,-4.9146 3.75066,-9.97063 5.05441,-15.13172 2.01192,-7.92017 3.13299,-16.033 3.99164,-24.1495 0.0305,-0.28348 0.061,-0.56694 0.0914,-0.85042 0.88752,0.10542 1.7745,0.21613 2.66507,0.29354 5.04247,0.4693 10.08951,0.88778 15.13629,1.30757 3.46754,0.28149 6.93444,0.5733 10.40517,0.8132 1.39422,0.094 2.78897,0.18676 4.1796,0.32545 0.15595,0.0211 0.31658,0.0259 0.46808,0.0692 0.0174,0.13186 -0.0241,0.2662 -0.0415,0.39752 -0.25757,1.37126 -0.63268,2.71642 -0.94654,4.07509 -1.42156,6.01588 -2.78353,12.04562 -4.16442,18.07092 -1.31795,5.69517 -2.65181,11.38883 -4.19638,17.02765 -0.70245,2.56896 -1.46733,5.12048 -2.278,7.65728 -0.39772,1.25488 -0.79543,2.50977 -1.19314,3.76465 -0.76402,-0.033 -1.5327,-0.0346 -2.28843,-0.16435 l -0.0269,-0.005 -0.0247,-0.005 z"
         id="path2339"
         inkscape:transform-center-x="2.7573616"
         inkscape:transform-center-y="0.9427262" />
    <path
         style="fill:#000000;fill-opacity:0.497409;stroke:#f80000;stroke-width:2.3;stroke-dasharray:none"
         d="m 246.74628,371.03575 c -3.16599,-2.20206 -5.87303,-5.0081 -8.21351,-8.05988 -2.98527,-3.90487 -5.39628,-8.22166 -7.42995,-12.68849 -0.63177,-1.39904 -1.246,-2.80754 -1.77094,-4.25072 -1.02277,-2.77901 -1.97238,-5.58446 -2.89285,-8.39882 -0.4355,-1.35499 -0.87963,-2.70828 -1.25283,-4.08211 -0.046,-0.19982 -0.1141,-0.39877 -0.12162,-0.60486 0.0306,-0.11681 0.17021,-0.14551 0.27026,-0.17768 0.42786,-0.10137 0.87022,-0.11545 1.30733,-0.1432 1.59718,-0.0725 3.1966,-0.0687 4.79505,-0.078 4.68367,-0.0217 9.37008,0.0515 14.04504,0.35375 5.43203,0.34259 10.84387,1.0085 16.19419,2.00884 2.90258,0.53621 5.78528,1.17337 8.65611,1.85816 1.02341,0.24197 2.04681,0.48395 3.07021,0.72593 -0.77538,1.47123 -1.54677,2.94459 -2.32537,4.41412 -2.05304,3.82333 -4.30842,7.5349 -6.66,11.18106 -2.45519,3.78858 -5.01925,7.50968 -7.76821,11.09192 -1.60871,2.07616 -3.24687,4.13096 -4.96428,6.11865 -0.58891,0.6707 -1.17533,1.34681 -1.82516,1.95999 -0.13842,0.12159 -0.27299,0.25593 -0.4421,0.33421 -0.11389,0.029 -0.21939,-0.052 -0.32157,-0.0927 -0.57655,-0.29533 -1.12018,-0.6499 -1.66193,-1.00381 -0.23104,-0.15285 -0.46032,-0.30836 -0.68787,-0.46636 z"
         id="path2720"
         inkscape:transform-center-x="0.27936528"
         inkscape:transform-center-y="4.8926845" />
    <path
         style="fill:#000000;fill-opacity:0.497409;stroke:#f80000;stroke-width:1.23;stroke-dasharray:none"
         d="m 271.69688,335.7355 c -1.37852,-0.37092 -2.77753,-0.65947 -4.17274,-0.95931 -3.21009,-0.67007 -6.42899,-1.301 -9.6624,-1.8486 -2.23926,-0.37012 -4.49325,-0.64632 -6.75034,-0.88153 -6.11741,-0.62837 -12.27181,-0.79311 -18.41815,-0.78548 -2.72753,-0.003 -5.45506,-0.006 -8.1826,-0.009 -0.38319,-1.45587 -0.77433,-2.90965 -1.15028,-4.36741 -1.08386,-4.32869 -2.09433,-8.67535 -3.11122,-13.02014 -1.02756,-4.43627 -2.06006,-8.87172 -3.02457,-13.32223 -0.10168,-0.50759 -0.22645,-1.01193 -0.29707,-1.52507 0.0825,-0.0932 0.26074,-0.0975 0.38159,-0.15044 1.67831,-0.48959 3.36949,-0.93372 5.05886,-1.38321 3.84722,-1.01084 7.69247,-2.02921 11.5399,-3.0392 8.91514,-2.29361 18.02309,-3.83857 27.19564,-4.6156 1.27213,-0.1174 2.54803,-0.18635 3.82496,-0.22157 4.21869,-0.12177 8.43972,-0.1385 12.6599,-0.12597 2.40664,0.0166 4.81436,0.0259 7.21917,0.12992 0.38201,0.0262 0.7691,0.0279 1.1455,0.10415 0.13766,0.0693 0.0695,0.27468 0.0885,0.40612 -0.0251,0.99709 -0.13525,1.98971 -0.23119,2.98181 -0.33442,3.17594 -0.74725,6.34383 -1.23929,9.4992 -0.88736,5.62716 -2.13432,11.20211 -3.83833,16.63987 -1.07926,3.47167 -2.34593,6.88228 -3.71687,10.24861 -0.68737,1.6806 -1.37451,3.36405 -2.18046,4.9922 -0.26168,0.5055 -0.51658,1.0228 -0.87622,1.46765 -0.10766,0.12157 -0.24833,0.28229 -0.43049,0.23213 -0.61811,-0.11349 -1.22592,-0.28163 -1.83176,-0.44718 z"
         id="path2769"
         inkscape:transform-center-x="1.8346409"
         inkscape:transform-center-y="0.91716416" />
</svg>
