<?xml version="1.0" encoding="UTF-8" standalone="no"?>
<svg
     width="500"
     height="500"
     viewBox="0 0 500 500"
     version="1.1"
     id="venn5e"
     sodipodi:docname="5e.svg"
     inkscape:version="1.2.2 (b0a8486, 2022-12-01)"
     xmlns:inkscape="http://www.inkscape.org/namespaces/inkscape"
     xmlns:sodipodi="http://sodipodi.sourceforge.net/DTD/sodipodi-0.dtd"
     xmlns="http://www.w3.org/2000/svg"
     xmlns:svg="http://www.w3.org/2000/svg">
    <defs
         id="defs9817" />
    <sodipodi:namedview
         id="namedview438"
         pagecolor="#505050"
         bordercolor="#ffffff"
         borderopacity="1"
         inkscape:showpageshadow="0"
         inkscape:pageopacity="0"
         inkscape:pagecheckerboard="1"
         inkscape:deskcolor="#505050"
         inkscape:document-units="pt"
         showgrid="false"
         inkscape:zoom="1.7849914"
         inkscape:cx="219.32879"
         inkscape:cy="460.50642"
         inkscape:window-width="1680"
         inkscape:window-height="1022"
         inkscape:window-x="0"
         inkscape:window-y="390"
         inkscape:window-maximized="0"
         inkscape:current-layer="venn5e" />
    <ellipse
         style="fill-opacity:0;stroke:#ffffff;stroke-width:1;stroke-opacity:1"
         cx="266"
         cy="223"
         rx="85"
         ry="170"
         id="basoid" />
    <ellipse
         style="fill-opacity:0;stroke:#ffffff;stroke-width:1;stroke-opacity:1"
         cx="345.28421"
         cy="-197.87462"
         rx="85"
         ry="170"
         id="ellipse9808"
         transform="rotate(72)" />
    <ellipse
         style="fill-opacity:0;stroke:#ffffff;stroke-width:1;stroke-opacity:1"
         cx="-30.491158"
         cy="-403.33582"
         rx="85"
         ry="170"
         id="ellipse9810"
         transform="rotate(144)" />
    <ellipse
         style="fill-opacity:0;stroke:#ffffff;stroke-width:1;stroke-opacity:1"
         cx="-342.01733"
         cy="-109.44319"
         rx="85"
         ry="170"
         id="ellipse9812"
         transform="rotate(-144)" />
    <ellipse
         style="fill-opacity:0;stroke:#ffffff;stroke-width:1;stroke-opacity:1"
         cx="-158.77573"
         cy="277.65363"
         rx="85"
         ry="170"
         id="ellipse9814"
         transform="rotate(-72)" />
    <path
         style="fill:#000000;fill-opacity:0.497409;stroke:#f80000;stroke-width:0.999997;stroke-dasharray:0.75, 2.25;stroke-dashoffset:0"
         d="m 327.10701,169.04575 c -2.92726,-5.9163 -6.92245,-11.35804 -11.99928,-15.60774 -5.27691,-4.45415 -11.65471,-7.51742 -18.3426,-9.16945 -7.85385,-1.94629 -16.07753,-2.0047 -24.06459,-0.91927 -7.12047,0.97578 -14.10426,2.82874 -20.85929,5.26585 -3.57357,1.32066 -7.11258,2.73774 -10.59861,4.27511 -0.77225,0.33625 -1.52688,0.71094 -2.28445,1.07779 -0.65543,0.26943 -1.36875,0.0298 -2.02439,-0.11627 -2.43003,-0.64983 -4.81898,-1.44324 -7.24558,-2.10579 -7.80642,-2.18029 -15.69132,-4.07361 -23.61338,-5.78354 -4.31715,-0.92269 -8.64985,-1.78337 -13.01662,-2.43818 -0.46968,-0.0826 -0.94478,-0.14357 -1.40768,-0.25898 0.0587,-0.52001 0.24023,-1.02251 0.36808,-1.53034 1.18825,-4.16639 2.47904,-8.30308 3.80982,-12.42592 2.7809,-8.47638 6.09004,-16.78528 10.00269,-24.80419 4.85905,-9.913015 10.66538,-19.423878 17.86534,-27.819873 3.91937,-4.536075 8.22737,-8.764509 13.02668,-12.368691 3.61064,-2.714373 7.53062,-5.018919 11.67551,-6.817214 3.42052,-1.511562 7.01817,-2.647672 10.71885,-3.217093 4.44397,-0.699666 8.99672,-0.771411 13.44371,-0.05436 7.5172,1.172544 14.60394,4.395404 20.8237,8.717148 7.69841,5.34862 14.18739,12.273338 19.74242,19.785465 6.76783,9.195196 12.2038,19.313248 16.71854,29.783098 6.61287,15.40738 11.21003,31.61873 14.51115,48.03768 0.67579,3.33075 1.26415,6.67809 1.85939,10.02389 -2.4284,0.17361 -4.85607,0.35867 -7.27926,0.5955 -3.4195,0.32068 -6.83639,0.66943 -10.24897,1.05707 -0.52706,-1.06057 -1.05412,-2.12114 -1.58118,-3.1817 z"
         id="path10908"
         inkscape:transform-center-x="2.9136214"
         inkscape:transform-center-y="7.1006763" />
    <path
         style="fill:#000000;fill-opacity:0.497409;stroke:#f80000;stroke-width:0.999997;stroke-dasharray:0.75, 2.25;stroke-dashoffset:0"
         d="m 349.67404,217.57251 c -0.34201,-0.39515 -0.72432,-0.75305 -1.09603,-1.11971 -1.74417,-1.68058 -3.53318,-3.31389 -5.32732,-4.94077 -1.76703,-1.59318 -3.53962,-3.18107 -5.35777,-4.71598 -1.14762,-0.95917 -2.29577,-1.91771 -3.4436,-2.87663 -0.0842,-1.51268 -0.16443,-3.02559 -0.25237,-4.53806 -0.3249,-5.27588 -0.94335,-10.5438 -2.07081,-15.71181 -0.47898,-2.19553 -1.05851,-4.3694 -1.75071,-6.50746 -0.3408,-1.066 -0.67727,-2.13351 -1.03379,-3.1944 -0.0213,-0.068 -0.0745,-0.15019 -0.0131,-0.21377 0.10925,-0.11328 0.26843,-0.15514 0.41316,-0.20399 0.55563,-0.15944 1.13052,-0.23703 1.70119,-0.32101 1.78491,-0.24134 3.57971,-0.39982 5.37311,-0.56241 1.89789,-0.16372 3.79581,-0.32926 5.6961,-0.46315 0.96924,-0.0628 1.93969,-0.12835 2.91148,-0.12359 0.26907,0.007 0.54258,0.005 0.80538,0.0704 0.0946,0.0135 0.14497,0.0969 0.16311,0.18345 0.13248,0.45858 0.20246,0.93235 0.28639,1.40145 0.34709,2.11683 0.61732,4.24534 0.88702,6.37314 0.57365,4.62953 1.08467,9.2671 1.51096,13.9126 0.32946,3.5911 0.54591,7.19138 0.7468,10.79159 0.16973,3.17212 0.3262,6.34542 0.41079,9.5211 0.0148,0.79215 0.0419,1.58526 0.007,2.37724 -0.0262,0.32152 -0.042,0.64532 -0.10243,0.96276 -0.0215,0.0783 -0.0386,0.21234 -0.14495,0.20382 -0.1087,-0.0404 -0.17746,-0.14296 -0.25367,-0.22509 -0.0223,-0.0264 -0.0444,-0.053 -0.0663,-0.0797 z"
         id="path10910"
         inkscape:transform-center-x="1.3980144"
         inkscape:transform-center-y="5.4302335" />
    <path
         style="fill:#000000;fill-opacity:0.497409;stroke:#f80000;stroke-width:1.2;stroke-dasharray:0.9, 2.70001;stroke-dashoffset:0"
         d="m 265.88682,360.17185 c 0.12426,-0.20715 0.28621,-0.39045 0.4312,-0.58364 1.5405,-1.95095 3.15792,-3.83952 4.71228,-5.7793 4.05413,-5.02593 7.97011,-10.16338 11.74101,-15.40517 1.0932,-1.51384 2.1864,-3.02766 3.27959,-4.5415 2.27564,-0.10862 4.55179,-0.20724 6.82671,-0.33035 8.32498,-0.46222 16.6381,-1.36288 24.81767,-3.00425 2.85368,-0.56718 5.68707,-1.23233 8.50326,-1.96241 1.88657,-0.47872 3.77149,-0.96412 5.66112,-1.43058 0.11677,-0.0188 0.27165,-0.0815 0.36806,0.0175 0.0726,0.12818 0.0166,0.28315 -0.01,0.41729 -0.15951,0.57557 -0.39644,1.12574 -0.61412,1.68084 -1.44064,3.56478 -3.00409,7.0787 -4.61862,10.56773 -0.82944,1.77936 -1.66803,3.55571 -2.58871,5.29012 -0.26183,0.49935 -0.52366,0.9987 -0.78548,1.49805 -3.47068,1.09556 -6.93526,2.2111 -10.42653,3.24004 -11.12789,3.29648 -22.41572,6.06482 -33.8259,8.1932 -3.68761,0.69336 -7.39419,1.27817 -11.09776,1.87829 -0.7152,0.10944 -1.42821,0.23752 -2.14767,0.31642 -0.0653,-0.007 -0.24385,0.0528 -0.22642,-0.0623 z"
         id="path10914"
         inkscape:transform-center-x="3.4037623"
         inkscape:transform-center-y="0.92836229" />
    <path
         style="fill:#000000;fill-opacity:0.497409;stroke:#f80000;stroke-width:1.23;stroke-dasharray:0.9225, 2.76751;stroke-dashoffset:0"
         d="m 222.17577,362.83759 c -1.26836,-0.0558 -2.53673,-0.11157 -3.8051,-0.16735 -1.01004,-1.47653 -2.03223,-2.94484 -3.02625,-4.43224 -3.68734,-5.57396 -6.90942,-11.44513 -9.82965,-17.45315 -2.61952,-5.39865 -4.9697,-10.92667 -7.06599,-16.54889 -0.35223,-0.95309 -0.71715,-1.90224 -1.03134,-2.86876 -0.11789,-0.224 0.21286,-0.12845 0.32751,-0.12022 0.90283,0.15124 1.78714,0.3944 2.66985,0.63351 2.68906,0.77278 5.38911,1.50726 8.10062,2.19729 6.62698,1.68633 13.29825,3.20191 20.01057,4.50893 11.45275,2.19834 23.02723,3.80845 34.66719,4.57435 4.35947,0.29355 8.72659,0.4598 13.09494,0.54043 2.64199,0.0547 5.28398,0.10948 7.92597,0.16423 -0.35783,0.60872 -0.70127,1.22684 -1.11019,1.80375 -1.50955,2.18434 -3.12106,4.29589 -4.72388,6.41199 -3.93957,5.15696 -7.95415,10.25716 -12.06404,15.27955 -0.75629,0.91951 -1.51349,1.83855 -2.28448,2.74569 -0.23838,0.18878 -0.54722,0.25354 -0.83194,0.34133 -1.29948,0.33377 -2.6329,0.50972 -3.95981,0.69441 -4.1393,0.53571 -8.30174,0.87041 -12.46473,1.15726 -5.63975,0.3837 -11.28961,0.59568 -16.94026,0.73345 -0.8577,0.014 -1.71588,0.0466 -2.57362,0.023 -1.69523,-0.0701 -3.39031,-0.14427 -5.08537,-0.21852 z"
         id="path10916"
         inkscape:transform-center-x="-0.89130551"
         inkscape:transform-center-y="-4.7315579" />
    <path
         style="fill:#000000;fill-opacity:0.497409;stroke:#f80000;stroke-width:2.3;stroke-dasharray:1.72501, 5.17503;stroke-dashoffset:0"
         d="m 238.04569,382.6369 c -3.55549,-2.53953 -6.87389,-5.40516 -9.94331,-8.51327 -2.79232,-2.82129 -5.3863,-5.8327 -7.85571,-8.93881 -0.26268,-0.32853 -0.52537,-0.65708 -0.78806,-0.98562 3.6839,-0.0122 7.3678,-0.0231 11.0517,-0.0361 6.6054,-0.0295 13.21277,-0.25301 19.7965,-0.80209 2.61544,-0.21471 5.22612,-0.48372 7.83289,-0.7854 1.07301,-0.11632 2.14673,-0.2311 3.22391,-0.30167 0.17469,-0.008 0.35017,-0.0245 0.52485,-0.0104 0.0812,0.0399 -0.0356,0.15157 -0.0567,0.20691 -0.33415,0.48652 -0.72788,0.92851 -1.10772,1.37915 -1.68625,1.94731 -3.43841,3.83625 -5.19064,5.72399 -3.24495,3.47712 -6.52578,6.92129 -9.86897,10.30423 -1.17863,1.18245 -2.3535,2.37037 -3.58817,3.49485 -0.26817,0.24475 -0.54644,0.47898 -0.84527,0.68548 -0.20001,0.14297 -0.40002,0.28595 -0.60003,0.42893 -0.86175,-0.61673 -1.7235,-1.23347 -2.58525,-1.8502 z"
         id="path11644" />
    <path
         style="fill:#000000;stroke:#ffffee;stroke-width:0.560227"
         d="m 259.21108,391.8042 c -4.12737,-0.69854 -8.76491,-2.22032 -12.92928,-4.24266 l -4.34966,-2.11232 7.30533,-7.4296 c 4.01793,-4.08628 8.97551,-9.32036 11.01684,-11.6313 2.04133,-2.31094 3.92558,-4.31359 4.18721,-4.45034 0.26165,-0.13674 2.08287,-0.47738 4.04717,-0.75697 14.42407,-2.05307 35.04779,-6.81669 49.30303,-11.3879 2.27412,-0.72924 4.2261,-1.23455 4.33773,-1.12291 0.51357,0.51357 -4.8061,9.04762 -9.86593,15.82735 -4.29562,5.75576 -12.83985,14.38638 -17.57926,17.757 -6.71231,4.77374 -14.33814,8.15483 -21.15353,9.37892 -3.38799,0.6085 -11.18385,0.70146 -14.31965,0.17073 z"
         id="path50759" />
</svg>
