<?xml version="1.0" encoding="UTF-8" standalone="no"?>
<svg
    width="500pt"
    height="500pt"
    viewBox="0 0 500 500"
    version="1.1"
    id="venn5a"
    xmlns="http://www.w3.org/2000/svg"
    xmlns:svg="http://www.w3.org/2000/svg">
    <defs>
        <path
            style="fill-opacity:0;stroke-width:1;stroke-opacity:1"
            d="m 370.24148,148.97667 -0.51563,-4.92187 -0.74218,-4.84766 -0.96875,-4.77343 -1.1875,-4.69141 -1.39844,-4.60156 -1.60938,-4.50781 -1.80859,-4.40625 -2.00391,-4.30469 -2.19531,-4.19141 -2.38281,-4.07812 -2.5586,-3.957032 -2.73437,-3.82813 -2.90234,-3.695312 -3.06641,-3.558594 -3.21875,-3.414063 -3.375,-3.265625 -3.51953,-3.109375 -3.65625,-2.949219 -3.79297,-2.78125 -3.92188,-2.613281 -4.04687,-2.433593 -4.16406,-2.253907 -4.27344,-2.066406 -4.37891,-1.867187 -4.48437,-1.671876 -4.57813,-1.46875 -4.66406,-1.253906 -4.75,-1.039062 -4.82812,-0.820313 -4.90235,-0.59375 -4.96875,-0.355469 -5.03125,-0.121093 -3.29687,0.05078 -3.27735,0.15625 -3.24609,0.253906 -3.21875,0.359375 -3.1875,0.453125 -3.15625,0.550782 -3.12109,0.648437 -3.08985,0.742187 -3.05078,0.832032 -3.01172,0.921875 -2.97265,1.011719 -2.9336,1.101562 -2.89062,1.183594 -2.84375,1.269531 -2.79688,1.355469 -2.75,1.433594 -2.70312,1.511718 -2.65235,1.59375 -2.59765,1.667969 -2.54297,1.742187 -2.49219,1.816407 -2.42969,1.886719 -2.375,1.960937 -2.3125,2.027344 -2.25,2.09375 -2.1914,2.160156 -2.1211,2.226563 -2.05859,2.285156 -1.98828,2.347656 -1.91797,2.40625 -1.84766,2.464844 -1.77343,2.523437 -2.32032,3.628912 -2.14843,3.57812 -1.98047,3.54297 -1.8125,3.53516 -1.64453,3.54297 -1.48438,3.57422 -1.32031,3.6289 -1.16406,3.69922 -1.00782,3.79687 -0.85156,3.91407 -0.69922,4.05078 -0.54687,4.21094 -0.40235,4.39453 -0.2539,4.59375 -0.10938,4.8164 0.0352,5.0625 0.21094,5.60547 0.35937,5.33985 0.49609,5.08593 0.62891,4.84766 0.75781,4.62109 0.87891,4.40625 0.99219,4.20703 1.10547,4.01954 0.96875,3.15234 1.03515,3.04687 1.08985,2.94532 1.14062,2.85547 1.19141,2.76562 1.23828,2.69141 2.59765,5.17578 2.73047,4.95312 2.83985,4.78516 2.91015,4.67578 2.95703,4.62891 2.38282,3.55859 2.2539,3.52344 2.13282,3.49609 2.01171,3.47266 1.89844,3.46484 1.78516,3.45703 1.6875,3.46485 1.58594,3.47265 1.48828,3.4961 1.40234,3.52734 1.31641,3.55859 1.23828,3.60938 1.16406,3.65625 1.09375,3.71875 1.02734,3.78906 0.96875,3.86719 2.29297,9.90234 2.30078,9.96875 1.19922,4.94922 1.26563,4.88281 1.33984,4.80079 1.44531,4.6875 0.99219,2.98046 1.04688,2.91016 1.10547,2.83594 1.17578,2.7539 1.24609,2.66407 1.32031,2.5664 1.40625,2.46094 1.49219,2.35156 1.58984,2.23047 1.6836,2.10547 1.79297,1.97266 1.90234,1.82812 2.01563,1.6836 2.14062,1.52343 2.26563,1.36328 2.39843,1.19141 2.30469,0.82031 2.26563,0.69141 2.22265,0.57031 2.1836,0.44531 2.14453,0.32813 2.10156,0.21484 2.0625,0.0977 2.01953,-0.0117 1.98047,-0.12109 1.94141,-0.23047 1.89843,-0.32813 1.85938,-0.43359 1.8164,-0.52734 1.77735,-0.625 1.73437,-0.71485 1.69532,-0.80859 1.65234,-0.89453 1.60937,-0.98047 1.57032,-1.0625 1.52734,-1.14453 1.48828,-1.21875 1.44531,-1.29297 1.40235,-1.36719 1.36328,-1.43359 1.32031,-1.50391 1.27735,-1.5625 1.23828,-1.62891 1.19531,-1.6875 2.26172,-3.53906 2.09375,-3.74219 1.19922,-2.8164 1.125,-2.90235 1.0664,-2.98437 1.01172,-3.0625 1.8711,-6.3125 1.71484,-6.51953 1.60156,-6.67188 1.54297,-6.76562 3.08203,-13.57813 1.41797,-5.8789 1.56641,-5.73828 1.72656,-5.60938 1.89453,-5.48437 2.07031,-5.36719 2.25,-5.26172 2.44141,-5.15625 2.64062,-5.0625 2.10157,-3.66016 2.12109,-3.53515 4.26563,-6.8086 4.23046,-6.625 4.11719,-6.65234 2.50781,-4.55859 2.32422,-4.36719 2.14453,-4.22656 1.96485,-4.13672 1.78125,-4.10547 1.59765,-4.125 1.41016,-4.19922 1.22656,-4.32422 1.03516,-4.50391 0.85156,-4.73828 0.66016,-5.02343 0.47265,-5.35938 0.28125,-5.75781 0.0859,-6.19922 -0.10547,-6.69922 -0.29687,-7.25391"
            id="basoid"
        />
        <path
            id="int12"
            style="fill-opacity:0;stroke-width:1;stroke-opacity:1"
            d="m 336.26447,136.27988 c -1.37611,0.0202 -2.75316,0.011 -4.12866,0.0501 -1.31611,0.0802 -2.6347,0.12822 -3.9492,0.2292 -1.33699,0.14245 -2.67808,0.25133 -4.0124,0.41568 -1.36417,0.20544 -2.734,0.37676 -4.09442,0.60486 -1.39869,0.27007 -2.80428,0.50672 -4.19836,0.79906 -1.43241,0.33285 -2.8726,0.634 -4.29984,0.98788 -1.49856,0.40558 -3.00624,0.77884 -4.49869,1.20606 -1.55334,0.47493 -3.1169,0.91756 -4.66335,1.41431 -1.58115,0.5339 -3.17285,1.03764 -4.74695,1.59167 -1.73505,0.64419 -3.47995,1.26274 -5.20862,1.92353 -1.65352,0.67048 -3.31779,1.31528 -4.96434,2.00242 -1.55824,0.68767 -3.12861,1.34869 -4.67893,2.05376 -1.46824,0.70534 -2.95017,1.38306 -4.40944,2.10652 -1.38319,0.72323 -2.78119,1.41897 -4.15467,2.16024 -1.31042,0.74411 -2.63774,1.45926 -3.93689,2.22268 -1.21948,0.75002 -2.45678,1.47189 -3.66444,2.2406 -1.49829,0.99695 -3.0216,1.95711 -4.48172,3.01015 -1.09177,0.74835 -2.15214,1.54005 -3.20962,2.33573 -1.14876,0.85054 -2.25759,1.75361 -3.3772,2.64171 -1.18204,0.98352 -2.37259,1.95708 -3.51574,2.98608 -1.1175,0.9682 -2.19577,1.98071 -3.27557,2.99029 -1.37585,1.36686 -2.76806,2.71779 -4.13354,4.09475 -1.30344,1.40088 -2.62575,2.78464 -3.91715,4.19644 -1.57418,1.80562 -3.18331,3.58116 -4.71333,5.42477 -1.45194,1.71388 -2.89337,3.4365 -4.3124,5.17777 -0.97376,1.17132 -1.93001,2.35671 -2.86405,3.55998 -1.27405,1.65051 -2.61586,3.2466 -3.93682,4.85937 -1.31134,1.52216 -2.59981,3.06438 -3.95669,4.5466 -0.92918,1.0511 -1.88065,2.08171 -2.84886,3.09694 -1.29836,1.40693 -2.66386,2.74916 -4.00812,4.11171 -1.36407,1.30958 -2.708,2.64057 -4.11484,3.90471 -0.96466,0.90019 -1.94949,1.77781 -2.95059,2.63725 -1.41969,1.2594 -2.89435,2.4544 -4.35501,3.66545 -1.46304,1.15118 -2.91061,2.32245 -4.41081,3.42541 -1.54364,1.18301 -3.13578,2.30016 -4.71571,3.43364 -1.59866,1.09151 -3.18495,2.20151 -4.81596,3.24466 -1.16312,0.77173 -2.34327,1.51685 -3.52891,2.25339 1.45365,2.33485 2.89644,4.67654 4.38979,6.98636 0.81951,1.29492 1.65102,2.582 2.51346,3.84884 0.88757,1.30371 1.74262,2.6287 2.58746,3.96038 1.06126,1.63342 2.05541,3.309 3.06982,4.97155 0.96113,1.6684 1.94798,3.32232 2.85538,5.02099 0.67754,1.21545 1.32905,2.44475 1.95979,3.68511 0.88835,1.68056 1.69892,3.4003 2.53192,5.10853 0.76025,1.67735 1.54985,3.34175 2.25221,5.04463 0.56513,1.29794 1.09763,2.6093 1.61334,3.92758 0.68992,1.69567 1.3027,3.42117 1.93752,5.13784 0.61034,1.7863 1.24083,3.56594 1.79547,5.37065 0.60926,1.85844 1.1419,3.74053 1.69219,5.61692 0.51722,1.91132 1.05004,3.81856 1.51452,5.74363 0.63543,2.4807 1.1772,4.98396 1.7643,7.47631 1.13771,4.89519 2.25601,9.79494 3.40007,14.68862 0.55507,2.28405 1.09244,4.57255 1.6987,6.84377 0.40447,1.58975 0.82681,3.17469 1.2773,4.75205 1.54298,-0.065 3.08487,-0.16456 4.62859,-0.20607 1.90007,-0.0235 3.80016,-0.0716 5.7002,-0.0794 1.92421,0.0411 3.84928,0.0585 5.77294,0.11457 1.91444,0.10956 3.83057,0.19547 5.74392,0.32002 1.88995,0.17618 3.78232,0.33015 5.67073,0.52037 1.88544,0.2483 3.77423,0.47408 5.65755,0.73665 1.87549,0.32168 3.7554,0.61994 5.6281,0.95635 2.01578,0.42521 4.03569,0.83164 6.03955,1.31102 2.42454,0.54079 4.82535,1.18032 7.23697,1.77489 3.55932,0.8777 7.09707,1.84017 10.65178,2.73578 2.37994,0.57768 4.75582,1.174 7.13831,1.74 2.54694,0.48458 5.09051,0.98753 7.64659,1.42239 1.70418,0.31467 3.41604,0.58332 5.12862,0.84764 0.3858,0.0605 0.77161,0.12097 1.15742,0.18145 0.48438,-1.33439 0.95367,-2.67398 1.38812,-4.02554 0.56623,-1.66299 1.02338,-3.36016 1.53385,-5.04063 0.39064,-1.31711 0.79311,-2.63092 1.12426,-3.96466 0.48993,-1.89544 1.01333,-3.78245 1.47944,-5.68388 0.71819,-3.00462 1.45715,-6.00437 2.12891,-9.01986 1.34761,-5.88788 2.67045,-11.78148 4.02014,-17.66883 0.47419,-1.94029 0.92516,-3.88654 1.41412,-5.82303 0.52532,-1.90181 1.02818,-3.81014 1.5678,-5.70781 0.58131,-1.8679 1.13916,-3.74346 1.73544,-5.60649 0.63368,-1.8173 1.24511,-3.64273 1.89288,-5.45489 0.69571,-1.7867 1.3696,-3.58228 2.07917,-5.36335 0.75132,-1.74315 1.48209,-3.49555 2.24639,-5.23285 0.81884,-1.71617 1.61745,-3.44239 2.44911,-5.15218 0.8854,-1.68481 1.74984,-3.38109 2.64843,-5.05867 1.02272,-1.77733 2.02792,-3.56494 3.09895,-5.31391 1.28365,-2.17042 2.65339,-4.28804 3.98392,-6.42971 1.92499,-3.09786 3.92366,-6.14919 5.86301,-9.23791 1.2803,-2.07727 2.57715,-4.14486 3.84707,-6.22818 1.25666,-2.28868 2.52827,-4.56927 3.74141,-6.8815 0.82266,-1.51498 1.60099,-3.05302 2.3776,-4.59194 0.91485,-1.75708 1.73285,-3.56172 2.58965,-5.3473 0.65678,-1.43972 1.26472,-2.90163 1.90205,-4.35019 0.56833,-1.45043 1.13522,-2.90225 1.6868,-4.35907 0.47214,-1.42803 0.97093,-2.84782 1.42616,-4.28109 0.40004,-1.43422 0.82518,-2.862 1.20929,-4.3003 0.33883,-1.50242 0.70199,-2.99986 1.02549,-4.50542 0.27787,-1.58058 0.57974,-3.15742 0.8425,-4.74035 0.21533,-1.68405 0.45589,-3.36532 0.6553,-5.05112 0.15168,-1.78688 0.32643,-3.57218 0.46353,-5.36006 0.0882,-1.9292 0.19946,-3.85768 0.27306,-5.78733 0.0229,-2.08464 0.0695,-4.1693 0.0774,-6.25393 -0.0411,-2.2516 -0.0584,-4.50387 -0.11467,-6.75503 -0.10012,-2.33394 -0.18133,-4.66924 -0.29328,-7.00231 -0.18092,-1.66774 -0.3376,-3.3386 -0.53388,-5.00436 -0.0744,-0.48574 -0.1488,-0.97148 -0.2232,-1.45722 -1.34558,-0.45943 -2.68662,-0.93285 -4.05167,-1.3323 -0.89957,-0.28664 -1.80526,-0.55169 -2.72245,-0.77628 -1.49791,-0.38879 -2.99137,-0.7957 -4.50412,-1.12402 -1.3193,-0.30496 -2.63642,-0.62012 -3.96872,-0.86439 -1.28173,-0.2523 -2.56006,-0.52359 -3.85349,-0.71064 -1.28024,-0.20308 -2.55664,-0.43338 -3.84674,-0.5665 -1.28354,-0.1513 -2.56398,-0.33357 -3.85481,-0.41215 -1.25853,-0.0942 -2.5149,-0.22613 -3.77772,-0.24552 -0.87639,-0.0307 -1.75279,-0.0614 -2.62918,-0.0921 z"
        />

        <path
            id="int13"
            style="fill-opacity:0;stroke-width:1;stroke-opacity:1"
            d="m 171.17455,143.36141 c -0.94411,0.0191 -1.8902,-0.003 -2.83303,0.0426 -0.88605,0.089 -1.77813,0.13092 -2.66016,0.25122 -0.15371,0.0528 -0.0698,0.33439 -0.12805,0.47912 -0.15288,1.58001 -0.30131,3.16125 -0.43262,4.7432 -0.0804,1.61005 -0.1963,3.21871 -0.2529,4.82969 -0.0334,1.97927 -0.12249,3.9581 -0.0882,5.93791 0.0174,1.72637 -9.2e-4,3.45354 0.0872,5.17835 0.0784,1.8684 0.11159,3.73919 0.26079,5.60388 0.12694,1.789 0.21595,3.58113 0.41303,5.36436 0.16802,1.66543 0.29953,3.33501 0.53845,4.99238 0.21369,1.60547 0.39246,3.21606 0.67794,4.81099 0.25511,1.52993 0.4784,3.06564 0.80549,4.58249 0.29458,1.45833 0.56099,2.92279 0.92546,4.36591 0.32954,1.38241 0.63169,2.77182 1.03157,4.13626 0.38834,1.416 0.76736,2.83473 1.21679,4.23296 0.46661,1.58413 1.01826,3.14107 1.55314,4.70294 0.56292,1.52566 1.11657,3.05488 1.73739,4.55828 0.5467,1.39478 1.15491,2.76452 1.7556,4.13656 0.58994,1.28076 1.16378,2.56926 1.81595,3.8201 0.69287,1.36137 1.3553,2.73876 2.06815,4.08961 0.91636,1.64733 1.80787,3.30887 2.74031,4.947 1.25447,2.09801 2.47157,4.21873 3.78043,6.28369 1.25239,2.03127 2.52973,4.04679 3.81993,6.05422 1.36263,2.18025 2.86603,4.26839 4.23028,6.44761 0.87535,1.35164 1.73104,2.71557 2.56081,4.09569 1.03776,1.67004 2.00284,3.38354 2.98686,5.08537 0.92249,1.69078 1.86826,3.36917 2.73375,5.09027 0.91717,1.73519 1.75828,3.50874 2.61549,5.27388 0.7699,1.69569 1.5658,3.37992 2.27571,5.10208 0.77833,1.77966 1.47675,3.59239 2.19216,5.39783 0.65142,1.76734 1.32474,3.52688 1.9166,5.31547 0.64852,1.84089 1.22283,3.70656 1.81119,5.5672 0.5469,1.86215 1.11003,3.7197 1.59997,5.59795 0.54322,1.95448 1.02078,3.92635 1.50756,5.89538 1.54307,6.65079 3.07258,13.30477 4.61737,19.95512 0.57481,2.36587 1.13175,4.73622 1.75975,7.08875 0.4419,1.75454 0.92319,3.49847 1.41511,5.23954 0.35661,1.31964 0.74425,2.63018 1.15604,3.93363 0.4774,1.56352 0.95853,3.12584 1.48931,4.67225 0.46242,1.40446 0.97473,2.79219 1.48459,4.17988 0.52981,1.35692 1.04422,2.72013 1.63546,4.05196 0.56309,1.36655 1.21035,2.69591 1.83975,4.03252 0.62557,1.20184 1.21386,2.42391 1.90952,3.58771 0.46611,0.83326 0.94884,1.6565 1.47381,2.45427 0.46469,0.74663 0.94074,1.48562 1.46592,2.19154 0.51982,0.73889 1.04307,1.4752 1.62321,2.16855 0.5341,0.67315 1.06292,1.3508 1.65922,1.97091 0.5848,0.64254 1.15508,1.29921 1.80054,1.88274 0.63473,0.60866 1.25399,1.23458 1.94735,1.77784 0.65166,0.53939 1.28188,1.10655 1.98971,1.57316 0.7166,0.50297 1.41068,1.04032 2.17778,1.46622 0.75811,0.44905 1.49519,0.93646 2.29985,1.30056 0.60288,0.28353 1.18295,0.62076 1.80148,0.86743 1.10208,0.39086 2.19689,0.80376 3.32318,1.12133 1.11487,0.35906 2.2549,0.63126 3.39031,0.91541 1.08463,0.21942 2.16536,0.46073 3.26354,0.60424 1.049,0.17904 2.11078,0.26504 3.16919,0.36597 1.03098,0.0481 2.06156,0.11611 3.09418,0.0852 0.99066,0.0121 1.97912,-0.0722 2.96649,-0.13954 0.98889,-0.11665 1.97971,-0.22007 2.95747,-0.41305 0.93351,-0.14561 1.84929,-0.38443 2.76652,-0.60667 0.91751,-0.26461 1.83836,-0.5188 2.73193,-0.85804 0.8899,-0.30002 1.75257,-0.67508 2.61513,-1.04438 0.86816,-0.40978 1.73733,-0.81756 2.57174,-1.29365 0.82249,-0.43519 1.60898,-0.93545 2.39642,-1.42999 0.81949,-0.54775 1.63565,-1.10017 2.4134,-1.70654 0.74953,-0.55583 1.46396,-1.15827 2.1764,-1.76026 0.78042,-0.68741 1.5502,-1.3862 2.28392,-2.12363 0.67091,-0.65607 1.3126,-1.34253 1.94626,-2.03436 0.76042,-0.84837 1.49639,-1.71745 2.20816,-2.60703 0.8113,-1.02274 1.59301,-2.06908 2.33675,-3.14216 0.68867,-0.98275 1.30192,-2.01625 1.95857,-3.02053 0.48608,-0.72148 0.90877,-1.4809 1.32831,-2.2422 0.465,-0.84838 0.96012,-1.68199 1.40617,-2.53967 0.59399,-1.40077 1.20947,-2.7928 1.73941,-4.21962 0.60451,-1.51579 1.13658,-3.05895 1.6788,-4.59769 0.48374,-1.46965 0.98933,-2.93246 1.40788,-4.42254 0.49855,-1.71061 1.02793,-3.41261 1.50627,-5.12887 0.57255,-2.20321 1.17159,-4.39976 1.72678,-6.60733 0.74924,-3.13238 1.51851,-6.26006 2.21881,-9.40389 1.33693,-5.84004 2.6477,-11.68611 3.98803,-17.52531 0.47475,-1.93911 0.92304,-3.88502 1.41475,-5.81977 0.526,-1.90109 1.02623,-3.80967 1.56876,-5.70596 0.57877,-1.8584 1.13271,-3.7249 1.72725,-5.57815 0.63758,-1.82581 1.24943,-3.66102 1.90346,-5.48082 0.69249,-1.7774 1.36192,-3.56419 2.06901,-5.33566 0.75592,-1.7513 1.48753,-3.51355 2.25883,-5.25793 0.81976,-1.71571 1.6156,-3.44331 2.45055,-5.15146 0.88108,-1.67597 1.74025,-3.36394 2.63522,-5.03231 1.03904,-1.80776 2.06329,-3.62422 3.15245,-5.40256 0.93755,-1.59203 1.93398,-3.14793 2.91211,-4.71507 -1.12725,-1.12174 -2.32513,-2.16954 -3.48484,-3.25729 -1.10533,-1.01046 -2.26334,-1.96184 -3.39091,-2.94735 -1.14913,-0.96354 -2.33922,-1.87771 -3.50488,-2.82131 -1.35218,-1.01859 -2.69392,-2.05217 -4.0885,-3.01278 -1.32888,-0.95713 -2.70028,-1.85302 -4.06708,-2.75443 -1.30708,-0.82574 -2.60911,-1.65973 -3.94865,-2.4324 -1.26048,-0.75714 -2.54821,-1.46827 -3.83607,-2.17718 -1.71744,-0.88159 -3.42428,-1.78468 -5.14842,-2.65267 -1.74509,-0.8109 -3.47834,-1.64811 -5.23108,-2.44199 -2.23896,-0.95554 -4.46074,-1.95214 -6.72418,-2.84917 -2.28027,-0.93682 -4.57249,-1.8437 -6.86925,-2.7392 -2.33954,-0.94052 -4.73637,-1.73021 -7.07404,-2.67569 -1.50318,-0.57845 -2.99619,-1.18207 -4.47913,-1.81062 -1.81099,-0.7392 -3.59062,-1.55202 -5.37749,-2.34692 -1.72236,-0.81734 -3.45656,-1.61041 -5.15054,-2.48596 -1.7703,-0.86996 -3.50258,-1.81378 -5.24229,-2.74259 -1.61987,-0.9191 -3.25419,-1.81339 -4.84073,-2.78978 -1.67566,-0.98256 -3.3064,-2.03838 -4.94648,-3.07848 -1.56589,-1.04695 -3.14499,-2.07459 -4.67495,-3.17405 -1.61441,-1.11435 -3.18405,-2.29144 -4.7608,-3.4579 -1.5292,-1.17852 -3.06847,-2.34426 -4.56097,-3.5694 -1.58823,-1.26157 -3.13303,-2.57644 -4.68393,-3.88323 -5.15117,-4.46717 -10.29294,-8.94523 -15.44373,-13.4128 -1.86302,-1.58212 -3.71387,-3.17881 -5.61238,-4.71853 -1.42647,-1.19134 -2.88095,-2.348 -4.3401,-3.49888 -1.10732,-0.89798 -2.24684,-1.7542 -3.39049,-2.60506 -1.25652,-0.95194 -2.52421,-1.88864 -3.81302,-2.7965 -1.15302,-0.8282 -2.33508,-1.61558 -3.51342,-2.40697 -1.23438,-0.79144 -2.45946,-1.59788 -3.72898,-2.33261 -1.25863,-0.77445 -2.56332,-1.46968 -3.85795,-2.181 -1.22128,-0.60946 -2.425,-1.2557 -3.68099,-1.79246 -0.8576,-0.39669 -1.72352,-0.77371 -2.60786,-1.10714 -0.82374,-0.33503 -1.65312,-0.65461 -2.50206,-0.92062 -0.84523,-0.28972 -1.69231,-0.57335 -2.55961,-0.79062 -0.82799,-0.23033 -1.65437,-0.46737 -2.50131,-0.61903 -0.85082,-0.17632 -1.69815,-0.37276 -2.56346,-0.46508 -0.87155,-0.11916 -1.74072,-0.2614 -2.62123,-0.29325 -0.54982,-0.0372 -1.09963,-0.0744 -1.64944,-0.11166 z"
        />

        <path
            id="int123"
            style="fill-opacity:0;stroke-width:1.5;stroke-opacity:1"
            d="m 237.09542,184.70546 c -1.63136,1.94203 -3.2803,3.86943 -4.88053,5.83737 -1.00397,1.22493 -2.02231,2.43831 -2.98969,3.69268 -0.8822,1.12218 -1.75819,2.24937 -2.67476,3.34393 -0.88419,1.07801 -1.76402,2.15968 -2.68155,3.20971 -0.87353,1.02022 -1.74234,2.04458 -2.6494,3.03538 -0.87794,0.97901 -1.74942,1.96396 -2.66148,2.91161 -0.8977,0.95328 -1.78829,1.91343 -2.71967,2.8342 -0.92208,0.93306 -1.83929,1.87107 -2.79314,2.77195 -0.91331,0.88208 -1.82206,1.76901 -2.76665,2.61784 -0.92069,0.8457 -1.83462,1.69896 -2.78732,2.50886 -0.97735,0.85197 -1.94999,1.70946 -2.95661,2.52699 -0.97275,0.80912 -1.94256,1.62186 -2.94397,2.39557 -0.9974,0.78974 -1.99256,1.58239 -3.01743,2.33649 -1.03336,0.77974 -2.06617,1.56023 -3.1252,2.30503 -1.04352,0.75216 -2.0877,1.50339 -3.15581,2.22048 -1.07076,0.73662 -2.14233,1.47203 -3.23678,2.17324 -1.13751,0.74789 -2.27824,1.49075 -3.43749,2.20466 -0.1351,0.0846 -0.27021,0.16921 -0.40531,0.25382 1.35111,2.1646 2.6838,4.34081 4.06883,6.48402 0.84242,1.3145 1.66958,2.63898 2.551,3.92797 0.80323,1.19844 1.6129,2.39268 2.37926,3.61525 0.74409,1.16106 1.49324,2.31895 2.20042,3.50307 0.69993,1.14599 1.40655,2.28801 2.06765,3.45709 0.6671,1.15101 1.34152,2.29789 1.96842,3.47154 0.62951,1.148 1.26637,2.2921 1.85479,3.46197 0.596,1.15207 1.19849,2.30088 1.75419,3.47317 0.55632,1.14113 1.12016,2.27871 1.63455,3.43962 0.5256,1.15082 1.05998,2.29777 1.54233,3.46767 0.50252,1.17851 1.01212,2.35412 1.47248,3.54999 0.47136,1.18266 0.9478,2.36337 1.37715,3.56214 0.44024,1.18534 0.88479,2.36914 1.28253,3.56963 0.42447,1.23093 0.85039,2.46137 1.23367,3.70591 0.39297,1.22508 0.78486,2.45049 1.13676,3.68814 0.37195,1.25313 0.74171,2.50687 1.0728,3.77155 0.35813,1.30519 0.70992,2.61204 1.02912,3.92738 0.34119,1.33905 0.66982,2.68111 0.97316,4.02927 1.4073,6.06783 2.80397,12.13814 4.21113,18.20597 0.53601,2.18694 1.04125,4.38159 1.61988,6.55785 0.41324,1.59117 0.81446,3.18557 1.26982,4.7654 0.0511,0.18305 0.1022,0.36611 0.1533,0.54916 1.47607,-0.0652 2.9515,-0.15086 4.42798,-0.20294 1.93357,-0.0261 3.86715,-0.0684 5.8007,-0.0844 1.92613,0.0389 3.8528,0.063 5.77859,0.11129 1.91458,0.10741 3.83025,0.19983 5.74416,0.31663 1.89941,0.17539 3.80054,0.3351 5.69887,0.52037 1.88569,0.24666 3.77374,0.47739 5.65794,0.7341 1.86853,0.31813 3.73975,0.62208 5.60661,0.94909 1.89628,0.40383 3.79908,0.77804 5.68527,1.22775 1.35422,0.30843 2.70781,0.61946 4.05244,0.96777 2.99668,0.75381 5.99778,1.4903 8.98565,2.27862 2.26153,0.58304 4.51689,1.19047 6.78883,1.73224 1.87191,0.45428 3.74055,0.92354 5.61449,1.36844 2.36653,0.44698 4.72802,0.92133 7.10221,1.32664 1.49095,0.26364 2.98053,0.53548 4.47849,0.75705 0.79301,0.12432 1.58603,0.24865 2.37904,0.37297 0.42506,-1.18499 0.85413,-2.3686 1.23689,-3.56814 0.3176,-0.94894 0.63208,-1.89887 0.90413,-2.86208 0.51737,-1.76075 1.0506,-3.51706 1.55799,-5.28061 0.5736,-2.1957 1.1621,-4.38766 1.72629,-6.58573 0.56902,-2.39254 1.15849,-4.7803 1.71337,-7.17615 1.50966,-6.59653 2.9975,-13.19808 4.50342,-19.79543 0.47488,-1.95163 0.93431,-3.90724 1.41892,-5.85638 0.52386,-1.90415 1.03312,-3.81254 1.56617,-5.71402 0.57931,-1.86856 1.14328,-3.74213 1.73222,-5.60754 0.63224,-1.81979 1.25044,-3.64471 1.8915,-5.46128 0.69373,-1.7875 1.37364,-3.58064 2.07604,-5.36462 0.75349,-1.7524 1.49246,-3.51134 2.25507,-5.25963 0.81737,-1.71689 1.62042,-3.44091 2.44681,-5.15332 0.87988,-1.67929 1.74706,-3.36554 2.63489,-5.04048 0.96636,-1.6719 1.90576,-3.35962 2.91299,-5.00752 0.72,-1.20538 1.4424,-2.40928 2.19696,-3.59347 0.33498,-0.53477 0.66996,-1.06955 1.00494,-1.60432 -0.91951,-0.9246 -1.90234,-1.7829 -2.85339,-2.67448 -0.65643,-0.61393 -1.32095,-1.21878 -2.00943,-1.79676 -0.86364,-0.73456 -1.70927,-1.49084 -2.58501,-2.21082 -1.08915,-0.86292 -2.16373,-1.74467 -3.26246,-2.59522 -1.1519,-0.85811 -2.2849,-1.74218 -3.46869,-2.55652 -0.89826,-0.63878 -1.79847,-1.27474 -2.72228,-1.8763 -0.91104,-0.61533 -1.83071,-1.21736 -2.76547,-1.79612 -0.88123,-0.56681 -1.77711,-1.10969 -2.68165,-1.6384 -1.25503,-0.76025 -2.54319,-1.46345 -3.8229,-2.18072 -1.74317,-0.89711 -3.47924,-1.80864 -5.22689,-2.69667 -1.72185,-0.80323 -3.43675,-1.62192 -5.163,-2.41538 -1.75317,-0.75018 -3.49884,-1.51828 -5.25686,-2.25685 -2.34764,-0.9498 -4.68776,-1.91842 -7.04995,-2.8318 -1.44697,-0.56581 -2.88756,-1.14841 -4.35121,-1.67031 -1.34702,-0.4949 -2.69705,-0.98186 -4.02842,-1.51798 -1.29155,-0.50511 -2.58557,-1.00412 -3.86069,-1.54987 -1.24645,-0.51857 -2.49556,-1.03094 -3.72451,-1.5902 -1.20276,-0.53258 -2.40917,-1.05718 -3.59267,-1.63185 -1.18395,-0.55908 -2.37226,-1.10924 -3.53564,-1.71053 -1.17926,-0.59188 -2.36129,-1.1784 -3.51982,-1.81034 -1.10796,-0.58875 -2.21932,-1.17131 -3.30516,-1.80041 -1.10192,-0.62196 -2.20873,-1.23553 -3.28662,-1.89878 -1.10579,-0.66181 -2.21512,-1.31787 -3.2969,-2.01866 -1.07032,-0.67555 -2.14327,-1.34706 -3.18912,-2.06029 -1.05295,-0.70022 -2.10851,-1.39663 -3.13583,-2.1343 -1.07302,-0.75055 -2.14644,-1.50055 -3.19399,-2.28654 -1.03826,-0.76001 -2.07498,-1.52206 -3.08754,-2.31621 -1.02542,-0.78577 -2.04955,-1.57315 -3.04889,-2.39203 -1.05704,-0.84587 -2.11073,-1.69582 -3.14198,-2.5731 -0.12778,-0.10703 -0.25557,-0.21405 -0.38335,-0.32107 z"
        />
  
        <path
            id="int134"
            style="fill-opacity:0;stroke-width:1.5;stroke-opacity:1"
            d="m 210.75875,162.2547 c -1.17718,0.93572 -2.33824,1.89223 -3.52602,2.8143 -1.54085,1.15006 -3.06986,2.31647 -4.61818,3.45622 -1.58123,1.09915 -3.15196,2.21392 -4.73981,3.30324 -1.61267,1.03793 -3.21531,2.09199 -4.8343,3.11976 -1.63232,0.96987 -3.25582,1.95518 -4.89369,2.91536 -1.67084,0.90817 -3.3334,1.83223 -5.00946,2.7304 -1.70613,0.84351 -3.4043,1.70386 -5.11543,2.53677 -1.81905,0.81096 -3.62748,1.64621 -5.46721,2.40978 -1.34628,0.58111 -2.70117,1.14142 -4.06436,1.68166 -0.45868,0.18464 -0.91735,0.36928 -1.37603,0.55392 0.21618,1.37985 0.5277,2.74238 0.78989,4.11388 0.27672,1.48082 0.66145,2.93814 0.99725,4.4061 0.30917,1.37341 0.72251,2.7202 1.0848,4.08004 0.37034,1.37884 0.81902,2.735 1.2321,4.10133 0.51295,1.49712 1.00125,3.00298 1.5676,4.48116 0.52864,1.4786 1.12812,2.93012 1.7114,4.38762 0.60667,1.40475 1.19835,2.81617 1.85332,4.1994 0.59658,1.34637 1.28756,2.64735 1.94113,3.96632 0.58705,1.15486 1.14021,2.32755 1.78487,3.45209 0.77021,1.38443 1.51926,2.78097 2.30315,4.15758 0.98156,1.6423 1.94206,3.2974 2.93768,4.93116 1.35972,2.18218 2.70573,4.37302 4.10186,6.53225 0.82737,1.29701 1.64913,2.59769 2.51743,3.86793 0.81647,1.21182 1.62839,2.42662 2.40581,3.66401 0.75596,1.1713 1.50258,2.34843 2.21942,3.54417 0.69831,1.13421 1.38786,2.27362 2.0455,3.43201 0.66183,1.1338 1.31777,2.27092 1.93782,3.42826 0.6324,1.14548 1.2599,2.29357 1.84925,3.46196 0.60746,1.16502 1.20734,2.33383 1.77192,3.52036 0.55986,1.13754 1.11109,2.27916 1.62677,3.43754 0.52585,1.14063 1.04531,2.28408 1.52573,3.44475 0.51058,1.18611 1.01289,2.37563 1.47881,3.58012 0.47934,1.18947 0.94628,2.3837 1.38126,3.5902 0.44505,1.18362 0.87591,2.37231 1.27631,3.57185 0.43903,1.25616 0.85874,2.51871 1.25385,3.78939 0.42095,1.28733 0.81,2.58442 1.18651,3.88535 0.55116,1.81721 1.02489,3.65639 1.52437,5.48816 0.479,1.92228 0.97784,3.83978 1.40882,5.77364 1.40806,6.06857 2.80322,12.14017 4.21252,18.20843 0.55143,2.25787 1.0768,4.52228 1.67573,6.76825 0.40451,1.57172 0.80958,3.14329 1.25797,4.7032 0.40843,1.45496 0.79661,2.91586 1.25927,4.3549 0.50103,1.61736 0.98244,3.24102 1.53374,4.84226 0.47578,1.46843 1.01327,2.91577 1.53912,4.36668 0.52464,1.33259 1.0215,2.67652 1.6024,3.98613 0.38812,0.92878 0.79295,1.85009 1.22996,2.75701 0.39473,0.86143 0.80468,1.71539 1.24889,2.55254 0.4024,0.79024 0.8046,1.58058 1.25949,2.34234 0.46415,0.81322 0.91842,1.63238 1.43689,2.41285 0.48064,0.75484 0.94462,1.52088 1.48222,2.23739 0.52723,0.73514 1.03416,1.48561 1.6171,2.17869 0.54889,0.67925 1.07175,1.3807 1.67841,2.01069 0.59155,0.64008 1.15247,1.30995 1.79945,1.89612 0.63354,0.59747 1.2356,1.23007 1.92136,1.7693 0.66545,0.54241 1.29651,1.12938 2.01282,1.60588 0.71961,0.49839 1.40728,1.04553 2.17221,1.47472 0.61004,0.35441 1.19882,0.74769 1.82342,1.07546 0.13912,0.0846 0.21673,-0.17417 0.32922,-0.2382 1.03733,-1.15251 2.04628,-2.33085 3.07255,-3.49343 1.02234,-1.26404 2.0629,-2.51373 3.07354,-3.78698 0.97837,-1.29431 1.9766,-2.57395 2.94214,-3.87774 0.97268,-1.36839 1.96482,-2.7233 2.92494,-4.10041 1.03237,-1.54895 2.08262,-3.08629 3.10356,-4.64266 0.9444,-1.51314 1.9071,-3.01517 2.83983,-4.53541 0.85782,-1.47149 1.73537,-2.93182 2.58054,-4.41048 0.77153,-1.42614 1.56252,-2.84208 2.32168,-4.2747 0.69927,-1.40468 1.42037,-2.79885 2.10557,-4.2103 0.62068,-1.3627 1.26414,-2.71539 1.87018,-4.08452 0.55066,-1.33156 1.12519,-2.65364 1.66045,-3.99133 0.49756,-1.34172 1.02318,-2.67336 1.5019,-4.02185 0.47228,-1.38877 0.96721,-2.77016 1.38439,-4.17692 0.3493,-1.09374 0.67419,-2.19471 0.97592,-3.30252 0.42915,-1.47626 0.78928,-2.97119 1.16455,-4.46169 0.33356,-1.48452 0.68086,-2.96611 0.96322,-4.46151 0.31067,-1.44805 0.51605,-2.91529 0.76457,-4.37467 0.20152,-1.26247 0.43937,-2.51969 0.57673,-3.79145 0.19065,-1.57295 0.40546,-3.14327 0.58047,-4.71793 0.17068,-1.89744 0.36538,-3.79291 0.52028,-5.69166 0.18405,-2.58957 0.38342,-5.17813 0.52493,-7.7705 0.0924,-1.51899 0.19028,-3.03771 0.23425,-4.55908 0.0519,-1.46018 0.10926,-2.92009 0.20755,-4.378 0.0768,-1.39209 0.16476,-2.7834 0.28797,-4.17224 0.10238,-1.33622 0.21584,-2.67142 0.36526,-4.00331 0.13053,-1.3063 0.2695,-2.61162 0.44734,-3.91244 0.15923,-1.28218 0.32377,-2.5636 0.532,-3.8389 0.1963,-1.31559 0.40113,-2.62978 0.64443,-3.93762 0.21531,-1.24987 0.4417,-2.49764 0.70454,-3.73849 0.24115,-1.2151 0.48901,-2.42875 0.77905,-3.63328 0.28823,-1.27668 0.58527,-2.55122 0.92047,-3.8165 0.30887,-1.23577 0.63142,-2.46787 0.9862,-3.69133 0.33568,-1.21917 0.68586,-2.43407 1.0672,-3.63982 0.38333,-1.27411 0.78593,-2.54206 1.21302,-3.8022 0.41129,-1.27324 0.85248,-2.53621 1.30756,-3.7944 0.62751,-1.80984 1.33115,-3.59171 2.0101,-5.38255 0.27355,-0.68058 0.54709,-1.36116 0.82064,-2.04174 -2.46687,-0.9993 -4.92757,-2.01405 -7.41025,-2.97376 -1.40033,-0.55115 -2.79861,-1.10769 -4.21616,-1.61351 -1.37257,-0.50066 -2.74375,-1.005 -4.09965,-1.54956 -1.30798,-0.50673 -2.61209,-1.02305 -3.90263,-1.57294 -1.24679,-0.51338 -2.48886,-1.03773 -3.71722,-1.59398 -1.18701,-0.52058 -2.37052,-1.04882 -3.53744,-1.61329 -1.17733,-0.55162 -2.35268,-1.10732 -3.50849,-1.70309 -1.19084,-0.59333 -2.37774,-1.19429 -3.54675,-1.82982 -1.11449,-0.58701 -2.22402,-1.18306 -3.31517,-1.81264 -1.08873,-0.60969 -2.17448,-1.22448 -3.23819,-1.87716 -1.11727,-0.66406 -2.23029,-1.33502 -3.32226,-2.04016 -1.08704,-0.6805 -2.16682,-1.37217 -3.22792,-2.0926 -1.05585,-0.69597 -2.10315,-1.40445 -3.13207,-2.13978 -1.09336,-0.75832 -2.17487,-1.53313 -3.2413,-2.32891 -1.10406,-0.79907 -2.1877,-1.62528 -3.26393,-2.46133 -1.50749,-1.14108 -2.96509,-2.34565 -4.43954,-3.52862 -1.52327,-1.27861 -3.05925,-2.54233 -4.55056,-3.85842 -4.69455,-4.07097 -9.37986,-8.15264 -14.07389,-12.22417 -1.77323,-1.50204 -3.52864,-3.02537 -5.33326,-4.48989 -1.26415,-1.04428 -2.52881,-2.08793 -3.82133,-3.0971 -0.0813,-0.0645 -0.16256,-0.12893 -0.24384,-0.19339 z"
        />
  
        <path
            id="int1234"
            style="fill-opacity:0;stroke-width:1.5;stroke-opacity:1"
            d="m 237.09542,184.70546 c -1.26751,1.51158 -2.54992,3.01076 -3.80689,4.53111 -1.0704,1.30815 -2.1524,2.60697 -3.21538,3.92108 -0.90602,1.14405 -1.79714,2.30008 -2.71304,3.43619 -0.89701,1.08393 -1.77819,2.18116 -2.68589,3.25613 -0.88858,1.02839 -1.76143,2.07058 -2.66067,3.08963 -0.884,0.97791 -1.75355,1.96909 -2.6471,2.93822 -0.9065,0.9552 -1.79856,1.92434 -2.71458,2.87034 -0.92933,0.9317 -1.84352,1.87874 -2.78318,2.79998 -0.92373,0.88353 -1.83277,1.78266 -2.76648,2.65559 -0.92655,0.84408 -1.83955,1.70331 -2.77502,2.5374 -0.97802,0.84441 -1.94181,1.70555 -2.92948,2.53861 -0.98211,0.80771 -1.94973,1.63331 -2.94188,2.42862 -1.00103,0.78323 -1.98782,1.58496 -2.99882,2.35526 -1.2403,0.92431 -2.4615,1.87465 -3.72582,2.76628 -1.07131,0.76629 -2.13345,1.54566 -3.22781,2.27906 -1.07217,0.73254 -2.13681,1.47634 -3.23095,2.17604 -1.128,0.73666 -2.2509,1.48129 -3.39903,2.18648 -0.22026,0.13793 -0.44051,0.27586 -0.66077,0.41379 1.05666,1.68893 2.09636,3.38855 3.16523,5.06978 0.90284,1.40614 1.79315,2.82047 2.70402,4.22136 0.80831,1.21542 1.63242,2.42049 2.43027,3.64276 0.75056,1.18221 1.51818,2.35376 2.25732,3.5431 0.70346,1.16259 1.4245,2.31473 2.11615,3.48434 0.66287,1.15465 1.34338,2.29936 1.99451,3.46062 0.62525,1.15151 1.26798,2.29372 1.88169,3.45137 0.59937,1.17183 1.2182,2.3339 1.8043,3.51239 0.55474,1.15137 1.1293,2.29339 1.67057,3.45111 0.51849,1.14817 1.056,2.28795 1.56187,3.44168 0.49615,1.17877 1.01221,2.34935 1.49496,3.53364 0.46476,1.18401 0.95011,2.36012 1.40089,3.5495 0.43585,1.1937 0.89321,2.37972 1.31416,3.57872 0.49558,1.46533 1.02215,2.92042 1.47979,4.3983 0.39964,1.26199 0.81499,2.51918 1.17606,3.79299 0.36533,1.24608 0.74355,2.48851 1.07131,3.74521 0.35222,1.29994 0.71358,2.59749 1.02959,3.90687 0.32991,1.31415 0.66533,2.62696 0.9603,3.94952 1.43143,6.17399 2.854,12.35005 4.28422,18.5243 0.42172,1.72342 0.82712,3.45094 1.25963,5.17166 0.4212,1.60794 0.82585,3.22033 1.25785,4.82536 0.17952,0.64306 0.35903,1.28612 0.53855,1.92918 1.45121,-0.0655 2.90197,-0.14549 4.35347,-0.20178 1.94324,-0.0273 3.8865,-0.0667 5.82974,-0.0864 1.92726,0.038 3.85491,0.065 5.78193,0.10985 1.91466,0.10641 3.83011,0.20183 5.74427,0.31511 1.89952,0.17437 3.80031,0.33719 5.69904,0.51878 1.88585,0.24562 3.77343,0.47951 5.65818,0.73249 1.87602,0.31884 3.75432,0.62561 5.62891,0.95203 1.47621,0.31495 2.95667,0.61061 4.43002,0.93853 1.66145,0.38829 3.32986,0.74763 4.98201,1.1746 0.7338,0.1839 1.46759,0.36779 2.20139,0.55169 0.53395,-1.03309 0.99243,-2.10252 1.48605,-3.15503 0.39982,-0.87337 0.8163,-1.73941 1.17336,-2.63156 0.44872,-1.08324 0.91423,-2.15981 1.35221,-3.24732 0.48808,-1.30753 0.99188,-2.60942 1.46993,-3.92055 0.36506,-1.08414 0.7525,-2.16097 1.10219,-3.25013 0.39001,-1.27656 0.81112,-2.54392 1.15806,-3.83321 0.29368,-1.04486 0.59439,-2.08785 0.84931,-3.14306 0.24825,-0.97467 0.50115,-1.94823 0.71048,-2.93222 0.23114,-1.01591 0.46169,-2.03194 0.65594,-3.05569 0.17367,-0.86805 0.3571,-1.73432 0.48734,-2.61029 0.26332,-1.62135 0.54022,-3.24074 0.79499,-4.86333 0.23158,-1.87747 0.4759,-3.75355 0.69946,-5.63189 0.17148,-1.87914 0.3568,-3.75715 0.5195,-5.63702 0.13837,-1.99713 0.29654,-3.99296 0.42071,-5.99103 0.0963,-1.67472 0.20862,-3.34867 0.29474,-5.0239 0.0608,-1.45827 0.10199,-2.91751 0.17584,-4.37515 0.0873,-1.39135 0.15444,-2.78411 0.25529,-4.17452 0.11441,-1.35387 0.20862,-2.7096 0.33659,-4.06222 0.14229,-1.32373 0.26468,-2.64977 0.42023,-3.97197 0.16975,-1.2931 0.32037,-2.58888 0.50266,-3.88022 0.20522,-1.30616 0.38934,-2.6158 0.60893,-3.91959 0.22663,-1.25172 0.43269,-2.50734 0.67307,-3.75645 0.25471,-1.23328 0.48969,-2.47083 0.75739,-3.7013 0.29323,-1.25221 0.56581,-2.50943 0.87294,-3.75826 0.32146,-1.23698 0.62092,-2.47985 0.9576,-3.71275 0.34735,-1.21574 0.67272,-2.43794 1.03529,-3.6492 0.46577,-1.49503 0.90149,-2.99965 1.40643,-4.48217 0.41222,-1.23811 0.80995,-2.48121 1.26034,-3.7062 0.43688,-1.22241 0.86119,-2.44945 1.33478,-3.65833 0.48368,-1.27093 0.95991,-2.54477 1.47754,-3.80241 0.0922,-0.22938 0.18439,-0.45875 0.27658,-0.68813 -1.89482,-0.76355 -3.78152,-1.54746 -5.68252,-2.29554 -1.51516,-0.59048 -3.0246,-1.19602 -4.54345,-1.77682 -1.36219,-0.50586 -2.73115,-0.99389 -4.08886,-1.51157 -1.3023,-0.51556 -2.61216,-1.0124 -3.90939,-1.54051 -1.25793,-0.52977 -2.52406,-1.04048 -3.77645,-1.58314 -1.20933,-0.54147 -2.42722,-1.06425 -3.63085,-1.61818 -1.18272,-0.56413 -2.37425,-1.11017 -3.55114,-1.68624 -1.17905,-0.59903 -2.36828,-1.1784 -3.54034,-1.79095 -1.12013,-0.60226 -2.25078,-1.18535 -3.36376,-1.80066 -1.08915,-0.62067 -2.18833,-1.22412 -3.27086,-1.85615 -1.09973,-0.66538 -2.21069,-1.31253 -3.30286,-1.99018 -1.07202,-0.68468 -2.15607,-1.35082 -3.21992,-2.04809 -1.05428,-0.70959 -2.12154,-1.40021 -3.16684,-2.12292 -1.26734,-0.8979 -2.55358,-1.76952 -3.79736,-2.70019 -1.06008,-0.78235 -2.1297,-1.55201 -3.16579,-2.36623 -1.02782,-0.79303 -2.06396,-1.57549 -3.06752,-2.39935 -1.04426,-0.841 -2.09496,-1.67415 -3.11537,-2.54421 -0.20397,-0.17082 -0.40793,-0.34165 -0.6119,-0.51248 z"
        />
  
        <path
            id="int12345"
            style="fill-opacity:0;stroke-width:1.5;stroke-opacity:1"
            d="m 237.09542,184.70546 c -1.20777,1.43818 -2.42516,2.86835 -3.62663,4.31178 -1.11571,1.36176 -2.23996,2.71665 -3.35027,4.08275 -0.89522,1.13258 -1.78006,2.27351 -2.68193,3.40075 -0.88754,1.0752 -1.7649,2.15894 -2.65898,3.22865 -0.8915,1.03433 -1.77244,2.07793 -2.67078,3.10627 -0.88842,0.98517 -1.76713,1.97926 -2.66177,2.9587 -0.90536,0.9563 -1.80097,1.92201 -2.71255,2.87231 -0.91835,0.92324 -1.82703,1.85628 -2.75159,2.77323 -0.92311,0.88561 -1.83704,1.78097 -2.76602,2.66034 -0.93555,0.85465 -1.86219,1.71926 -2.80345,2.56752 -0.96565,0.83623 -1.92232,1.683 -2.89376,2.51242 -0.97587,0.80524 -1.94281,1.62154 -2.92444,2.41967 -0.99466,0.78103 -1.98083,1.57309 -2.98095,2.34703 -1.02759,0.76797 -2.04647,1.54779 -3.07972,2.30804 -1.04562,0.74557 -2.08247,1.50365 -3.13385,2.24101 -1.06826,0.72689 -2.12812,1.46634 -3.20186,2.18503 -1.1114,0.72161 -2.21441,1.45634 -3.33138,2.16925 -0.55095,0.34502 -1.10191,0.69004 -1.65286,1.03506 0.99794,1.59782 1.98518,3.20238 2.99015,4.79577 0.94722,1.4774 1.88521,2.96083 2.83827,4.43441 0.80074,1.2016 1.61248,2.39601 2.40616,3.60224 0.74848,1.17597 1.50837,2.34481 2.24952,3.52536 0.70542,1.16256 1.42239,2.31825 2.12037,3.48523 0.66741,1.15942 1.34693,2.31203 2.00655,3.47584 0.62712,1.15162 1.26595,2.29701 1.88555,3.45263 0.59474,1.15876 1.20189,2.3113 1.78865,3.47406 0.55694,1.15141 1.12628,2.29697 1.6753,3.45211 0.52531,1.15913 1.06342,2.31261 1.58049,3.47538 0.49491,1.17132 1.00291,2.33725 1.48937,3.51205 0.46422,1.17737 0.94146,2.34975 1.39729,3.53035 0.43557,1.187 0.88443,2.36927 1.31146,3.55932 0.41279,1.21465 0.83949,2.42471 1.24321,3.64236 0.38454,1.21983 0.78308,2.43537 1.15855,3.65797 0.36273,1.24581 0.73983,2.48754 1.09318,3.736 0.34305,1.27949 0.70102,2.5551 1.03419,3.83717 0.15819,0.63069 0.31638,1.26137 0.47457,1.89206 1.83279,-0.45676 3.66877,-0.90099 5.49946,-1.36602 1.69257,-0.44285 3.38801,-0.87515 5.07877,-1.32467 1.38978,-0.38978 2.77614,-0.7922 4.16813,-1.17387 1.35035,-0.34849 2.6975,-0.70982 4.04991,-1.05005 1.32322,-0.31179 2.64347,-0.63677 3.96861,-0.94008 1.30372,-0.27566 2.60486,-0.56415 3.91024,-0.83159 1.29978,-0.2422 2.59712,-0.49823 3.89848,-0.7315 1.28032,-0.20678 2.55854,-0.42747 3.84022,-0.62531 1.2671,-0.17372 2.53251,-0.36074 3.8007,-0.52596 1.25925,-0.14141 2.51716,-0.29607 3.77727,-0.42899 1.27293,-0.10894 2.54481,-0.23168 3.81843,-0.33172 1.26254,-0.0779 2.52435,-0.16987 3.78738,-0.23865 1.26391,-0.0474 2.52742,-0.10876 3.79159,-0.14717 1.2829,-0.0173 2.56573,-0.0495 3.84869,-0.0572 1.28419,0.0116 2.56864,0.008 3.85265,0.0295 1.29129,0.04 2.58314,0.0652 3.87406,0.11482 1.31801,0.0687 2.63692,0.1222 3.95434,0.20099 0.65393,0.0452 1.30785,0.0904 1.96178,0.13564 0.1318,-1.88468 0.27635,-3.76852 0.39972,-5.65376 0.10188,-1.74665 0.21474,-3.49277 0.30966,-5.23977 0.0586,-1.44267 0.10416,-2.88597 0.17114,-4.32822 0.0857,-1.39147 0.1579,-2.78388 0.25229,-4.17473 0.11282,-1.355 0.21237,-2.71121 0.33373,-4.06541 0.14144,-1.33027 0.26923,-2.66212 0.41947,-3.99137 0.16934,-1.30059 0.32505,-2.6031 0.50309,-3.90247 0.20034,-1.28655 0.38724,-2.57531 0.59621,-3.86043 0.22616,-1.2593 0.43903,-2.52113 0.67368,-3.77882 0.25453,-1.24086 0.49608,-2.48452 0.75891,-3.72358 0.28966,-1.24449 0.56573,-2.49228 0.86416,-3.73465 0.31629,-1.22513 0.61902,-2.45389 0.94405,-3.67668 0.34536,-1.21632 0.67714,-2.43663 1.03124,-3.65039 0.38009,-1.22512 0.74632,-2.45467 1.13544,-3.67691 0.406,-1.21322 0.79806,-2.43123 1.21309,-3.64135 0.43884,-1.22065 0.86362,-2.44647 1.31164,-3.66375 0.47886,-1.24699 0.94262,-2.4999 1.43161,-3.74293 0.23843,-0.59323 0.47687,-1.18645 0.7153,-1.77967 -1.75631,-0.70948 -3.50778,-1.4311 -5.2673,-2.13254 -1.62442,-0.63469 -3.24488,-1.27978 -4.8718,-1.90788 -1.35396,-0.50134 -2.71262,-0.99026 -4.06355,-1.49956 -1.29695,-0.51173 -2.59896,-1.01095 -3.89266,-1.53073 -1.25858,-0.52827 -2.52265,-1.04375 -3.77767,-1.58028 -1.21186,-0.54064 -2.4292,-1.0693 -3.63754,-1.61761 -1.1892,-0.56541 -2.38431,-1.1187 -3.56972,-1.69189 -1.16199,-0.58817 -2.33022,-1.16428 -3.48819,-1.7602 -1.12758,-0.60401 -2.26174,-1.19601 -3.38511,-1.80769 -1.10655,-0.62888 -2.22022,-1.24554 -3.3222,-1.88229 -1.08885,-0.65681 -2.18509,-1.30162 -3.26919,-1.96616 -1.06767,-0.67962 -2.14296,-1.34753 -3.20573,-2.03471 -1.05015,-0.70432 -2.1083,-1.39694 -3.15329,-2.10879 -1.04774,-0.74014 -2.10402,-1.46841 -3.14621,-2.21627 -1.02817,-0.76098 -2.06506,-1.51035 -3.08758,-2.27883 -1.02554,-0.79436 -2.06038,-1.57691 -3.07986,-2.37896 -1.02575,-0.83026 -2.06109,-1.64884 -3.08051,-2.48681 -0.50236,-0.42073 -1.00471,-0.84147 -1.50707,-1.2622 z"
        />

    </defs>

    <script><![CDATA[
        var rcx = 245;
        var rcy = 245;
        var n = 5;

        var angle = 360 / n;
        var fills = ["#6600ff", "#0099ff", "#00cc00", "#cc9900", "#ff0000", "#999999", "#009933"];
        var strokes = ["#ffffff", "#0099ff", "#00ff00", "#ff0000", "#cccc00", "#cc00cc", "#00cccc"];
        
        var svg = document.getElementsByTagName('svg')[0];
        var defs = document.getElementsByTagName('defs')[0];
        var templates = defs.querySelectorAll("circle,ellipse,path");
        var numTemplates = templates.length;
        for (var e = 0; e < numTemplates; e++) {
            
            for (var r = 0; r < n; r++) {
                
                var newElement = templates[e].cloneNode();
                var fill = (r >= fills.length ? "none" : fills[r]);
                var stroke = (e >= strokes.length ? "none" : strokes[e]);
                    stroke = (r >= strokes.length ? "none" : strokes[r]);
                var myAngle = (angle * r);
                newElement.setAttribute("style", newElement.getAttribute("style")
                     + ";stroke:" + stroke + ";fill:" + fill + ";"
                     );
                newElement.setAttribute("transform","rotate( " + myAngle + " " + rcx + " " + rcy
                + ")");
                svg.appendChild(newElement);

                // There is only one center piece
                if (e == numTemplates - 1 && numTemplates > 1) {
                    break;
                }
            }
        }
    ]]></script>

</svg>