<?xml version="1.0" standalone="no"?><!DOCTYPE svg PUBLIC "-//W3C//DTD SVG 1.1//EN" "http://www.w3.org/Graphics/SVG/1.1/DTD/svg11.dtd"><svg width="500" height="500" version="1.1" xmlns="http://www.w3.org/2000/svg" xmlns:xlink="http://www.w3.org/1999/xlink" style="block-size:500px;height:500px;inline-size:500px;perspective-origin:250px 250px;transform-origin:250px 250px;width:500px;"><circle cx="250" cy="200" r="115" index="0" id="S0" style="block-size:auto;cx:250px;cy:200px;fill:rgb(102, 0, 255);fill-opacity:0.05;height:auto;inline-size:auto;overflow-clip-margin:0px;overflow-x:visible;overflow-y:visible;perspective-origin:0px 0px;r:115px;stroke:rgb(102, 0, 255);transform-origin:0px 0px;width:auto;" class="set"/><circle cx="250" cy="200" r="115" transform="rotate(120 250 265)" index="1" id="S1" style="block-size:auto;cx:250px;cy:200px;fill:rgb(0, 153, 255);fill-opacity:0.05;height:auto;inline-size:auto;overflow-clip-margin:0px;overflow-x:visible;overflow-y:visible;perspective-origin:0px 0px;r:115px;stroke:rgb(0, 153, 255);transform:matrix(-0.5, 0.866025, -0.866025, -0.5, 604.497, 180.994);transform-origin:0px 0px;width:auto;" class="set"/><circle cx="250" cy="200" r="115" transform="rotate(240 250 265)" index="2" id="S2" style="block-size:auto;cx:250px;cy:200px;fill:rgb(0, 204, 0);fill-opacity:0.05;height:auto;inline-size:auto;overflow-clip-margin:0px;overflow-x:visible;overflow-y:visible;perspective-origin:0px 0px;r:115px;stroke:rgb(0, 204, 0);transform:matrix(-0.5, -0.866025, 0.866025, -0.5, 145.503, 614.006);transform-origin:0px 0px;width:auto;" class="set"/><path d="M 310.92188 182.59277 A 115 115 0 0 0 206.69824 240 A 115 115 0 0 0 191.50342 298.77246 A 115 115 0 0 0 250.00049 315 A 115 115 0 0 0 364.99951 199.99951 A 115 115 0 0 0 364.97021 198.62256 A 115 115 0 0 0 363.79102 197.90771 A 115 115 0 0 0 310.92188 182.59277 z " index="0,1" id="S0n1" style="block-size:auto;d:path(&quot;M 310.922 182.593 A 115 115 0 0 0 206.698 240 A 115 115 0 0 0 191.503 298.772 A 115 115 0 0 0 250 315 A 115 115 0 0 0 365 200 A 115 115 0 0 0 364.97 198.623 A 115 115 0 0 0 363.791 197.908 A 115 115 0 0 0 310.922 182.593 Z&quot;);fill-opacity:0.05;height:auto;inline-size:auto;overflow-clip-margin:0px;overflow-x:visible;overflow-y:visible;perspective-origin:0px 0px;stroke:rgb(255, 255, 255);transform-origin:0px 0px;width:auto;" class="intersection"/><path d="M 310.92188 182.59277 A 115 115 0 0 0 206.69824 240 A 115 115 0 0 0 191.50342 298.77246 A 115 115 0 0 0 250.00049 315 A 115 115 0 0 0 364.99951 199.99951 A 115 115 0 0 0 364.97021 198.62256 A 115 115 0 0 0 363.79102 197.90771 A 115 115 0 0 0 310.92188 182.59277 z " transform="rotate(120 250 265)" index="1,2" id="S1n2" style="block-size:auto;d:path(&quot;M 310.922 182.593 A 115 115 0 0 0 206.698 240 A 115 115 0 0 0 191.503 298.772 A 115 115 0 0 0 250 315 A 115 115 0 0 0 365 200 A 115 115 0 0 0 364.97 198.623 A 115 115 0 0 0 363.791 197.908 A 115 115 0 0 0 310.922 182.593 Z&quot;);fill-opacity:0.05;height:auto;inline-size:auto;overflow-clip-margin:0px;overflow-x:visible;overflow-y:visible;perspective-origin:0px 0px;stroke:rgb(255, 255, 255);transform:matrix(-0.5, 0.866025, -0.866025, -0.5, 604.497, 180.994);transform-origin:0px 0px;width:auto;" class="intersection"/><path d="M 310.92188 182.59277 A 115 115 0 0 0 206.69824 240 A 115 115 0 0 0 191.50342 298.77246 A 115 115 0 0 0 250.00049 315 A 115 115 0 0 0 364.99951 199.99951 A 115 115 0 0 0 364.97021 198.62256 A 115 115 0 0 0 363.79102 197.90771 A 115 115 0 0 0 310.92188 182.59277 z " transform="rotate(240 250 265)" index="0,2" id="S0n2" style="block-size:auto;d:path(&quot;M 310.922 182.593 A 115 115 0 0 0 206.698 240 A 115 115 0 0 0 191.503 298.772 A 115 115 0 0 0 250 315 A 115 115 0 0 0 365 200 A 115 115 0 0 0 364.97 198.623 A 115 115 0 0 0 363.791 197.908 A 115 115 0 0 0 310.922 182.593 Z&quot;);fill-opacity:0.05;height:auto;inline-size:auto;overflow-clip-margin:0px;overflow-x:visible;overflow-y:visible;perspective-origin:0px 0px;stroke:rgb(255, 255, 255);transform:matrix(-0.5, -0.866025, 0.866025, -0.5, 145.503, 614.006);transform-origin:0px 0px;width:auto;" class="intersection"/><path d="M 249.99902 197.45361 A 115 115 0 0 0 206.69824 240 A 115 115 0 0 0 191.50342 298.77246 A 115 115 0 0 0 250.00049 315 A 115 115 0 0 0 308.67627 298.66406 A 115 115 0 0 0 293.30127 240 A 115 115 0 0 0 249.99902 197.45361 z " index="0,1,2" id="S0n1n2" style="block-size:auto;d:path(&quot;M 249.999 197.454 A 115 115 0 0 0 206.698 240 A 115 115 0 0 0 191.503 298.772 A 115 115 0 0 0 250 315 A 115 115 0 0 0 308.676 298.664 A 115 115 0 0 0 293.301 240 A 115 115 0 0 0 249.999 197.454 Z&quot;);fill-opacity:0.05;height:auto;inline-size:auto;overflow-clip-margin:0px;overflow-x:visible;overflow-y:visible;perspective-origin:0px 0px;stroke:rgb(255, 255, 255);transform-origin:0px 0px;width:auto;" class="intersection"/><text x="245.5" y="152.25" index="0" id="S0Label" style="block-size:auto;display:block;font-size:18px;height:auto;inline-size:auto;overflow-clip-margin:0px;overflow-x:visible;overflow-y:visible;perspective-origin:63.625px 39.1875px;stroke:rgb(255, 255, 255);stroke-width:0.25px;transform-origin:0px 0px;white-space:nowrap;width:auto;" class="intersection-label">5</text><text x="352.5" y="336.25" index="1" id="S1Label" style="block-size:auto;display:block;font-size:18px;height:auto;inline-size:auto;overflow-clip-margin:0px;overflow-x:visible;overflow-y:visible;perspective-origin:90.375px 85.1875px;stroke:rgb(255, 255, 255);stroke-width:0.25px;transform-origin:0px 0px;white-space:nowrap;width:auto;" class="intersection-label">5</text><text x="138.5" y="337.25" index="2" id="S2Label" style="block-size:auto;display:block;font-size:18px;height:auto;inline-size:auto;overflow-clip-margin:0px;overflow-x:visible;overflow-y:visible;perspective-origin:36.875px 85.4375px;stroke:rgb(255, 255, 255);stroke-width:0.25px;transform-origin:0px 0px;white-space:nowrap;width:auto;" class="intersection-label">5</text><text x="226.5" y="60.25" index="-1" id="S-1Label" style="block-size:auto;display:block;fill:rgb(102, 0, 255);font-size:18px;height:auto;inline-size:auto;overflow-clip-margin:0px;overflow-x:visible;overflow-y:visible;perspective-origin:68.375px 16.1875px;stroke:rgb(102, 0, 255);stroke-width:0.25px;transform-origin:0px 0px;white-space:nowrap;width:auto;" class="set-label">Purple</text><text x="419" y="382.25" index="0" id="S0Label" style="block-size:auto;display:block;fill:rgb(0, 153, 255);font-size:18px;height:auto;inline-size:auto;overflow-clip-margin:0px;overflow-x:visible;overflow-y:visible;perspective-origin:113.25px 96.6875px;stroke:rgb(0, 153, 255);stroke-width:0.25px;transform-origin:0px 0px;white-space:nowrap;width:auto;" class="set-label">Blue</text><text x="42.01171875" y="383.25" index="1" id="S1Label" style="block-size:auto;display:block;fill:rgb(0, 204, 0);font-size:18px;height:auto;inline-size:auto;overflow-clip-margin:0px;overflow-x:visible;overflow-y:visible;perspective-origin:21.4922px 96.9375px;stroke:rgb(0, 204, 0);stroke-width:0.25px;transform-origin:0px 0px;white-space:nowrap;width:auto;" class="set-label">Green</text><text x="320.5" y="232.25" index="0,1" id="S0n1Label" style="block-size:auto;display:block;font-size:18px;height:auto;inline-size:auto;overflow-clip-margin:0px;overflow-x:visible;overflow-y:visible;perspective-origin:82.375px 59.1875px;stroke:rgb(255, 255, 255);stroke-width:0.25px;transform-origin:0px 0px;white-space:nowrap;width:auto;" class="intersection-label">3</text><text x="245.5" y="361.25" index="1,2" id="S1n2Label" style="block-size:auto;display:block;font-size:18px;height:auto;inline-size:auto;overflow-clip-margin:0px;overflow-x:visible;overflow-y:visible;perspective-origin:63.625px 91.4375px;stroke:rgb(255, 255, 255);stroke-width:0.25px;transform-origin:0px 0px;white-space:nowrap;width:auto;" class="intersection-label">2</text><text x="170.5" y="232.25" index="0,2" id="S0n2Label" style="block-size:auto;display:block;font-size:18px;height:auto;inline-size:auto;overflow-clip-margin:0px;overflow-x:visible;overflow-y:visible;perspective-origin:44.875px 59.1875px;stroke:rgb(255, 255, 255);stroke-width:0.25px;transform-origin:0px 0px;white-space:nowrap;width:auto;" class="intersection-label">4</text><text x="245.5" y="275.25" index="0,1,2" id="S0n1n2Label" style="block-size:auto;display:block;font-size:18px;height:auto;inline-size:auto;overflow-clip-margin:0px;overflow-x:visible;overflow-y:visible;perspective-origin:63.625px 69.9375px;stroke:rgb(255, 255, 255);stroke-width:0.25px;transform-origin:0px 0px;white-space:nowrap;width:auto;" class="intersection-label">2</text></svg>