<?xml version="1.0" standalone="no"?><!DOCTYPE svg PUBLIC "-//W3C//DTD SVG 1.1//EN" "http://www.w3.org/Graphics/SVG/1.1/DTD/svg11.dtd"><svg width="500" height="500" version="1.1" xmlns="http://www.w3.org/2000/svg" xmlns:xlink="http://www.w3.org/1999/xlink" style="block-size:500px;height:500px;inline-size:500px;perspective-origin:250px 250px;transform-origin:250px 250px;width:500px;"><path d="m 135.61984,196.97207 c 0.0821,-2.19848 0.30468,-4.38919 0.49517,-6.58032 0.30795,-3.3829 0.67414,-6.76319 1.28807,-10.1065 4.45954,-25.48523 17.85191,-49.32587 37.38119,-66.31002 13.50808,-11.80944 29.80665,-20.43589 47.22129,-24.793893 5.18907,-1.316819 10.45979,-2.359664 15.79809,-2.827079 4.8804,-0.434311 9.78472,-0.547868 14.68251,-0.522563 6.02445,0.04273 12.05218,0.558487 17.97151,1.69671 8.78496,1.679468 17.41211,4.248975 25.59754,7.86855 17.47714,7.663645 32.96344,19.805885 44.561,34.962345 7.44725,9.69575 13.25985,20.61955 17.32673,32.14181 3.42861,9.72482 5.43055,19.9291 6.15345,30.20874 0.0889,1.35566 0.22326,2.71099 0.25037,4.06915 -0.23374,0.49568 -0.90877,-0.045 -1.28255,-0.14273 -2.50204,-1.17846 -4.91477,-2.53788 -7.42626,-3.69767 -8.72248,-4.15258 -17.98386,-7.15666 -27.47261,-8.96292 -3.51853,-0.66468 -7.06081,-1.22295 -10.62437,-1.58111 -4.44348,-0.36599 -8.90642,-0.42588 -13.3629,-0.40953 -3.78389,0.0374 -7.5786,0.12103 -11.3325,0.64068 -12.92847,1.62955 -25.63715,5.25029 -37.35857,10.96864 -1.84846,0.90978 -3.66926,1.87415 -5.5014,2.81609 -3.14463,-1.63004 -6.27366,-3.29717 -9.53095,-4.69595 -10.76171,-4.6987 -22.23674,-7.73496 -33.89378,-9.11362 -6.65816,-0.78675 -13.38816,-0.96149 -20.07675,-0.49053 -10.53005,0.67296 -20.9882,2.70358 -30.93873,6.23396 -5.28479,1.85505 -10.41239,4.13445 -15.39851,6.68078 -1.40748,0.67725 -2.80483,1.39004 -4.27527,1.92263 -0.0676,0.002 -0.19887,0.0917 -0.25177,0.0243 z" index="0" id="S0" style="block-size:auto;d:path(&quot;M 135.62 196.972 C 135.702 194.774 135.925 192.583 136.115 190.392 C 136.423 187.009 136.789 183.629 137.403 180.285 C 141.863 154.8 155.255 130.959 174.784 113.975 C 188.292 102.166 204.591 93.5393 222.006 89.1813 C 227.195 87.8645 232.465 86.8217 237.804 86.3543 C 242.684 85.9199 247.588 85.8064 252.486 85.8317 C 258.511 85.8744 264.538 86.3902 270.458 87.5284 C 279.243 89.2079 287.87 91.7774 296.055 95.397 C 313.532 103.061 329.019 115.203 340.616 130.359 C 348.063 140.055 353.876 150.979 357.943 162.501 C 361.372 172.226 363.373 182.43 364.096 192.71 C 364.185 194.066 364.32 195.421 364.347 196.779 C 364.113 197.275 363.438 196.734 363.064 196.636 C 360.562 195.458 358.149 194.098 355.638 192.939 C 346.915 188.786 337.654 185.782 328.165 183.976 C 324.647 183.311 321.104 182.753 317.541 182.395 C 313.097 182.029 308.634 181.969 304.178 181.985 C 300.394 182.022 296.599 182.106 292.846 182.626 C 279.917 184.255 267.208 187.876 255.487 193.594 C 253.639 194.504 251.818 195.469 249.986 196.41 C 246.841 194.78 243.712 193.113 240.455 191.714 C 229.693 187.016 218.218 183.98 206.561 182.601 C 199.903 181.814 193.173 181.639 186.484 182.11 C 175.954 182.783 165.496 184.814 155.545 188.344 C 150.261 190.199 145.133 192.479 140.147 195.025 C 138.739 195.702 137.342 196.415 135.872 196.948 C 135.804 196.95 135.673 197.039 135.62 196.972 Z&quot;);fill:rgb(102, 0, 255);fill-opacity:0.05;height:auto;inline-size:auto;overflow-clip-margin:0px;overflow-x:visible;overflow-y:visible;perspective-origin:0px 0px;stroke:rgb(102, 0, 255);transform-origin:0px 0px;width:auto;" class="set"/><path d="m 135.61984,196.97207 c 0.0821,-2.19848 0.30468,-4.38919 0.49517,-6.58032 0.30795,-3.3829 0.67414,-6.76319 1.28807,-10.1065 4.45954,-25.48523 17.85191,-49.32587 37.38119,-66.31002 13.50808,-11.80944 29.80665,-20.43589 47.22129,-24.793893 5.18907,-1.316819 10.45979,-2.359664 15.79809,-2.827079 4.8804,-0.434311 9.78472,-0.547868 14.68251,-0.522563 6.02445,0.04273 12.05218,0.558487 17.97151,1.69671 8.78496,1.679468 17.41211,4.248975 25.59754,7.86855 17.47714,7.663645 32.96344,19.805885 44.561,34.962345 7.44725,9.69575 13.25985,20.61955 17.32673,32.14181 3.42861,9.72482 5.43055,19.9291 6.15345,30.20874 0.0889,1.35566 0.22326,2.71099 0.25037,4.06915 -0.23374,0.49568 -0.90877,-0.045 -1.28255,-0.14273 -2.50204,-1.17846 -4.91477,-2.53788 -7.42626,-3.69767 -8.72248,-4.15258 -17.98386,-7.15666 -27.47261,-8.96292 -3.51853,-0.66468 -7.06081,-1.22295 -10.62437,-1.58111 -4.44348,-0.36599 -8.90642,-0.42588 -13.3629,-0.40953 -3.78389,0.0374 -7.5786,0.12103 -11.3325,0.64068 -12.92847,1.62955 -25.63715,5.25029 -37.35857,10.96864 -1.84846,0.90978 -3.66926,1.87415 -5.5014,2.81609 -3.14463,-1.63004 -6.27366,-3.29717 -9.53095,-4.69595 -10.76171,-4.6987 -22.23674,-7.73496 -33.89378,-9.11362 -6.65816,-0.78675 -13.38816,-0.96149 -20.07675,-0.49053 -10.53005,0.67296 -20.9882,2.70358 -30.93873,6.23396 -5.28479,1.85505 -10.41239,4.13445 -15.39851,6.68078 -1.40748,0.67725 -2.80483,1.39004 -4.27527,1.92263 -0.0676,0.002 -0.19887,0.0917 -0.25177,0.0243 z" transform="rotate(120 250 265)" index="1" id="S1" style="block-size:auto;d:path(&quot;M 135.62 196.972 C 135.702 194.774 135.925 192.583 136.115 190.392 C 136.423 187.009 136.789 183.629 137.403 180.285 C 141.863 154.8 155.255 130.959 174.784 113.975 C 188.292 102.166 204.591 93.5393 222.006 89.1813 C 227.195 87.8645 232.465 86.8217 237.804 86.3543 C 242.684 85.9199 247.588 85.8064 252.486 85.8317 C 258.511 85.8744 264.538 86.3902 270.458 87.5284 C 279.243 89.2079 287.87 91.7774 296.055 95.397 C 313.532 103.061 329.019 115.203 340.616 130.359 C 348.063 140.055 353.876 150.979 357.943 162.501 C 361.372 172.226 363.373 182.43 364.096 192.71 C 364.185 194.066 364.32 195.421 364.347 196.779 C 364.113 197.275 363.438 196.734 363.064 196.636 C 360.562 195.458 358.149 194.098 355.638 192.939 C 346.915 188.786 337.654 185.782 328.165 183.976 C 324.647 183.311 321.104 182.753 317.541 182.395 C 313.097 182.029 308.634 181.969 304.178 181.985 C 300.394 182.022 296.599 182.106 292.846 182.626 C 279.917 184.255 267.208 187.876 255.487 193.594 C 253.639 194.504 251.818 195.469 249.986 196.41 C 246.841 194.78 243.712 193.113 240.455 191.714 C 229.693 187.016 218.218 183.98 206.561 182.601 C 199.903 181.814 193.173 181.639 186.484 182.11 C 175.954 182.783 165.496 184.814 155.545 188.344 C 150.261 190.199 145.133 192.479 140.147 195.025 C 138.739 195.702 137.342 196.415 135.872 196.948 C 135.804 196.95 135.673 197.039 135.62 196.972 Z&quot;);fill:rgb(0, 153, 255);fill-opacity:0.05;height:auto;inline-size:auto;overflow-clip-margin:0px;overflow-x:visible;overflow-y:visible;perspective-origin:0px 0px;stroke:rgb(0, 153, 255);transform:matrix(-0.5, 0.866025, -0.866025, -0.5, 604.497, 180.994);transform-origin:0px 0px;width:auto;" class="set"/><path d="m 135.61984,196.97207 c 0.0821,-2.19848 0.30468,-4.38919 0.49517,-6.58032 0.30795,-3.3829 0.67414,-6.76319 1.28807,-10.1065 4.45954,-25.48523 17.85191,-49.32587 37.38119,-66.31002 13.50808,-11.80944 29.80665,-20.43589 47.22129,-24.793893 5.18907,-1.316819 10.45979,-2.359664 15.79809,-2.827079 4.8804,-0.434311 9.78472,-0.547868 14.68251,-0.522563 6.02445,0.04273 12.05218,0.558487 17.97151,1.69671 8.78496,1.679468 17.41211,4.248975 25.59754,7.86855 17.47714,7.663645 32.96344,19.805885 44.561,34.962345 7.44725,9.69575 13.25985,20.61955 17.32673,32.14181 3.42861,9.72482 5.43055,19.9291 6.15345,30.20874 0.0889,1.35566 0.22326,2.71099 0.25037,4.06915 -0.23374,0.49568 -0.90877,-0.045 -1.28255,-0.14273 -2.50204,-1.17846 -4.91477,-2.53788 -7.42626,-3.69767 -8.72248,-4.15258 -17.98386,-7.15666 -27.47261,-8.96292 -3.51853,-0.66468 -7.06081,-1.22295 -10.62437,-1.58111 -4.44348,-0.36599 -8.90642,-0.42588 -13.3629,-0.40953 -3.78389,0.0374 -7.5786,0.12103 -11.3325,0.64068 -12.92847,1.62955 -25.63715,5.25029 -37.35857,10.96864 -1.84846,0.90978 -3.66926,1.87415 -5.5014,2.81609 -3.14463,-1.63004 -6.27366,-3.29717 -9.53095,-4.69595 -10.76171,-4.6987 -22.23674,-7.73496 -33.89378,-9.11362 -6.65816,-0.78675 -13.38816,-0.96149 -20.07675,-0.49053 -10.53005,0.67296 -20.9882,2.70358 -30.93873,6.23396 -5.28479,1.85505 -10.41239,4.13445 -15.39851,6.68078 -1.40748,0.67725 -2.80483,1.39004 -4.27527,1.92263 -0.0676,0.002 -0.19887,0.0917 -0.25177,0.0243 z" transform="rotate(240 250 265)" index="2" id="S2" style="block-size:auto;d:path(&quot;M 135.62 196.972 C 135.702 194.774 135.925 192.583 136.115 190.392 C 136.423 187.009 136.789 183.629 137.403 180.285 C 141.863 154.8 155.255 130.959 174.784 113.975 C 188.292 102.166 204.591 93.5393 222.006 89.1813 C 227.195 87.8645 232.465 86.8217 237.804 86.3543 C 242.684 85.9199 247.588 85.8064 252.486 85.8317 C 258.511 85.8744 264.538 86.3902 270.458 87.5284 C 279.243 89.2079 287.87 91.7774 296.055 95.397 C 313.532 103.061 329.019 115.203 340.616 130.359 C 348.063 140.055 353.876 150.979 357.943 162.501 C 361.372 172.226 363.373 182.43 364.096 192.71 C 364.185 194.066 364.32 195.421 364.347 196.779 C 364.113 197.275 363.438 196.734 363.064 196.636 C 360.562 195.458 358.149 194.098 355.638 192.939 C 346.915 188.786 337.654 185.782 328.165 183.976 C 324.647 183.311 321.104 182.753 317.541 182.395 C 313.097 182.029 308.634 181.969 304.178 181.985 C 300.394 182.022 296.599 182.106 292.846 182.626 C 279.917 184.255 267.208 187.876 255.487 193.594 C 253.639 194.504 251.818 195.469 249.986 196.41 C 246.841 194.78 243.712 193.113 240.455 191.714 C 229.693 187.016 218.218 183.98 206.561 182.601 C 199.903 181.814 193.173 181.639 186.484 182.11 C 175.954 182.783 165.496 184.814 155.545 188.344 C 150.261 190.199 145.133 192.479 140.147 195.025 C 138.739 195.702 137.342 196.415 135.872 196.948 C 135.804 196.95 135.673 197.039 135.62 196.972 Z&quot;);fill:rgb(0, 204, 0);fill-opacity:0.05;height:auto;inline-size:auto;overflow-clip-margin:0px;overflow-x:visible;overflow-y:visible;perspective-origin:0px 0px;stroke:rgb(0, 204, 0);transform:matrix(-0.5, -0.866025, 0.866025, -0.5, 145.503, 614.006);transform-origin:0px 0px;width:auto;" class="set"/><path d="m 309.21508,292.70888 c -0.80294,-20.82027 -7.47396,-41.34851 -18.88488,-58.76721 -7.14163,-10.89476 -16.17917,-20.53127 -26.52693,-28.43826 -2.98841,-2.28695 -6.1032,-4.40512 -9.30312,-6.38428 -0.97913,-0.62334 -1.96933,-1.23063 -2.93157,-1.87974 0.15327,-0.20692 0.43984,-0.30882 0.65762,-0.45334 1.88306,-1.03576 3.82528,-1.95936 5.76636,-2.8801 2.20312,-1.03738 4.43203,-2.02408 6.71849,-2.86489 4.22487,-1.56996 8.52114,-2.94825 12.86668,-4.14382 3.09121,-0.85385 6.23673,-1.49387 9.39004,-2.06975 4.64672,-0.84093 9.35499,-1.33101 14.07432,-1.48608 6.82806,-0.23466 13.68042,-0.0143 20.45815,0.87624 10.15097,1.30497 20.10382,4.07205 29.50236,8.11699 3.335,1.42049 6.58791,3.02398 9.79213,4.71686 1.13482,0.59379 2.26964,1.18758 3.40447,1.78137 0.0481,1.20486 0.14184,2.4092 0.10397,3.61583 -0.13693,6.08448 -0.82013,12.15227 -1.91299,18.13704 -2.75595,14.98901 -8.48818,29.43668 -16.86927,42.17221 -7.07332,10.77438 -16.00528,20.31968 -26.2586,28.12637 -2.57388,1.91704 -5.20135,3.76242 -7.87302,5.54056 -0.55175,0.35972 -1.10039,0.72715 -1.67192,1.05406 -0.23017,-0.18124 -0.18702,-0.56308 -0.25412,-0.83334 -0.14996,-1.30666 -0.19204,-2.62349 -0.24817,-3.93672 z" index="0,1" id="S0n1" style="block-size:auto;d:path(&quot;M 309.215 292.709 C 308.412 271.889 301.741 251.36 290.33 233.942 C 283.189 223.047 274.151 213.41 263.803 205.503 C 260.815 203.216 257.7 201.098 254.5 199.119 C 253.521 198.496 252.531 197.889 251.569 197.239 C 251.722 197.032 252.008 196.931 252.226 196.786 C 254.109 195.75 256.052 194.827 257.993 193.906 C 260.196 192.869 262.425 191.882 264.711 191.041 C 268.936 189.471 273.232 188.093 277.578 186.897 C 280.669 186.043 283.814 185.403 286.968 184.828 C 291.615 183.987 296.323 183.497 301.042 183.341 C 307.87 183.107 314.723 183.327 321.5 184.218 C 331.651 185.523 341.604 188.29 351.003 192.335 C 354.338 193.755 357.591 195.359 360.795 197.052 C 361.93 197.645 363.064 198.239 364.199 198.833 C 364.247 200.038 364.341 201.242 364.303 202.449 C 364.166 208.533 363.483 214.601 362.39 220.586 C 359.634 235.575 353.902 250.022 345.521 262.758 C 338.448 273.532 329.516 283.078 319.262 290.884 C 316.688 292.801 314.061 294.647 311.389 296.425 C 310.838 296.785 310.289 297.152 309.717 297.479 C 309.487 297.298 309.53 296.916 309.463 296.646 C 309.313 295.339 309.271 294.022 309.215 292.709 Z&quot;);fill-opacity:0.05;height:auto;inline-size:auto;overflow-clip-margin:0px;overflow-x:visible;overflow-y:visible;perspective-origin:0px 0px;stroke:rgb(255, 255, 255);transform-origin:0px 0px;width:auto;" class="intersection"/><path d="m 309.21508,292.70888 c -0.80294,-20.82027 -7.47396,-41.34851 -18.88488,-58.76721 -7.14163,-10.89476 -16.17917,-20.53127 -26.52693,-28.43826 -2.98841,-2.28695 -6.1032,-4.40512 -9.30312,-6.38428 -0.97913,-0.62334 -1.96933,-1.23063 -2.93157,-1.87974 0.15327,-0.20692 0.43984,-0.30882 0.65762,-0.45334 1.88306,-1.03576 3.82528,-1.95936 5.76636,-2.8801 2.20312,-1.03738 4.43203,-2.02408 6.71849,-2.86489 4.22487,-1.56996 8.52114,-2.94825 12.86668,-4.14382 3.09121,-0.85385 6.23673,-1.49387 9.39004,-2.06975 4.64672,-0.84093 9.35499,-1.33101 14.07432,-1.48608 6.82806,-0.23466 13.68042,-0.0143 20.45815,0.87624 10.15097,1.30497 20.10382,4.07205 29.50236,8.11699 3.335,1.42049 6.58791,3.02398 9.79213,4.71686 1.13482,0.59379 2.26964,1.18758 3.40447,1.78137 0.0481,1.20486 0.14184,2.4092 0.10397,3.61583 -0.13693,6.08448 -0.82013,12.15227 -1.91299,18.13704 -2.75595,14.98901 -8.48818,29.43668 -16.86927,42.17221 -7.07332,10.77438 -16.00528,20.31968 -26.2586,28.12637 -2.57388,1.91704 -5.20135,3.76242 -7.87302,5.54056 -0.55175,0.35972 -1.10039,0.72715 -1.67192,1.05406 -0.23017,-0.18124 -0.18702,-0.56308 -0.25412,-0.83334 -0.14996,-1.30666 -0.19204,-2.62349 -0.24817,-3.93672 z" transform="rotate(120 250 265)" index="1,2" id="S1n2" style="block-size:auto;d:path(&quot;M 309.215 292.709 C 308.412 271.889 301.741 251.36 290.33 233.942 C 283.189 223.047 274.151 213.41 263.803 205.503 C 260.815 203.216 257.7 201.098 254.5 199.119 C 253.521 198.496 252.531 197.889 251.569 197.239 C 251.722 197.032 252.008 196.931 252.226 196.786 C 254.109 195.75 256.052 194.827 257.993 193.906 C 260.196 192.869 262.425 191.882 264.711 191.041 C 268.936 189.471 273.232 188.093 277.578 186.897 C 280.669 186.043 283.814 185.403 286.968 184.828 C 291.615 183.987 296.323 183.497 301.042 183.341 C 307.87 183.107 314.723 183.327 321.5 184.218 C 331.651 185.523 341.604 188.29 351.003 192.335 C 354.338 193.755 357.591 195.359 360.795 197.052 C 361.93 197.645 363.064 198.239 364.199 198.833 C 364.247 200.038 364.341 201.242 364.303 202.449 C 364.166 208.533 363.483 214.601 362.39 220.586 C 359.634 235.575 353.902 250.022 345.521 262.758 C 338.448 273.532 329.516 283.078 319.262 290.884 C 316.688 292.801 314.061 294.647 311.389 296.425 C 310.838 296.785 310.289 297.152 309.717 297.479 C 309.487 297.298 309.53 296.916 309.463 296.646 C 309.313 295.339 309.271 294.022 309.215 292.709 Z&quot;);fill-opacity:0.05;height:auto;inline-size:auto;overflow-clip-margin:0px;overflow-x:visible;overflow-y:visible;perspective-origin:0px 0px;stroke:rgb(255, 255, 255);transform:matrix(-0.5, 0.866025, -0.866025, -0.5, 604.497, 180.994);transform-origin:0px 0px;width:auto;" class="intersection"/><path d="m 309.21508,292.70888 c -0.80294,-20.82027 -7.47396,-41.34851 -18.88488,-58.76721 -7.14163,-10.89476 -16.17917,-20.53127 -26.52693,-28.43826 -2.98841,-2.28695 -6.1032,-4.40512 -9.30312,-6.38428 -0.97913,-0.62334 -1.96933,-1.23063 -2.93157,-1.87974 0.15327,-0.20692 0.43984,-0.30882 0.65762,-0.45334 1.88306,-1.03576 3.82528,-1.95936 5.76636,-2.8801 2.20312,-1.03738 4.43203,-2.02408 6.71849,-2.86489 4.22487,-1.56996 8.52114,-2.94825 12.86668,-4.14382 3.09121,-0.85385 6.23673,-1.49387 9.39004,-2.06975 4.64672,-0.84093 9.35499,-1.33101 14.07432,-1.48608 6.82806,-0.23466 13.68042,-0.0143 20.45815,0.87624 10.15097,1.30497 20.10382,4.07205 29.50236,8.11699 3.335,1.42049 6.58791,3.02398 9.79213,4.71686 1.13482,0.59379 2.26964,1.18758 3.40447,1.78137 0.0481,1.20486 0.14184,2.4092 0.10397,3.61583 -0.13693,6.08448 -0.82013,12.15227 -1.91299,18.13704 -2.75595,14.98901 -8.48818,29.43668 -16.86927,42.17221 -7.07332,10.77438 -16.00528,20.31968 -26.2586,28.12637 -2.57388,1.91704 -5.20135,3.76242 -7.87302,5.54056 -0.55175,0.35972 -1.10039,0.72715 -1.67192,1.05406 -0.23017,-0.18124 -0.18702,-0.56308 -0.25412,-0.83334 -0.14996,-1.30666 -0.19204,-2.62349 -0.24817,-3.93672 z" transform="rotate(240 250 265)" index="0,2" id="S0n2" style="block-size:auto;d:path(&quot;M 309.215 292.709 C 308.412 271.889 301.741 251.36 290.33 233.942 C 283.189 223.047 274.151 213.41 263.803 205.503 C 260.815 203.216 257.7 201.098 254.5 199.119 C 253.521 198.496 252.531 197.889 251.569 197.239 C 251.722 197.032 252.008 196.931 252.226 196.786 C 254.109 195.75 256.052 194.827 257.993 193.906 C 260.196 192.869 262.425 191.882 264.711 191.041 C 268.936 189.471 273.232 188.093 277.578 186.897 C 280.669 186.043 283.814 185.403 286.968 184.828 C 291.615 183.987 296.323 183.497 301.042 183.341 C 307.87 183.107 314.723 183.327 321.5 184.218 C 331.651 185.523 341.604 188.29 351.003 192.335 C 354.338 193.755 357.591 195.359 360.795 197.052 C 361.93 197.645 363.064 198.239 364.199 198.833 C 364.247 200.038 364.341 201.242 364.303 202.449 C 364.166 208.533 363.483 214.601 362.39 220.586 C 359.634 235.575 353.902 250.022 345.521 262.758 C 338.448 273.532 329.516 283.078 319.262 290.884 C 316.688 292.801 314.061 294.647 311.389 296.425 C 310.838 296.785 310.289 297.152 309.717 297.479 C 309.487 297.298 309.53 296.916 309.463 296.646 C 309.313 295.339 309.271 294.022 309.215 292.709 Z&quot;);fill-opacity:0.05;height:auto;inline-size:auto;overflow-clip-margin:0px;overflow-x:visible;overflow-y:visible;perspective-origin:0px 0px;stroke:rgb(255, 255, 255);transform:matrix(-0.5, -0.866025, 0.866025, -0.5, 145.503, 614.006);transform-origin:0px 0px;width:auto;" class="intersection"/><path d="M 249.99902 197.45361 A 115 115 0 0 0 206.69824 240 A 115 115 0 0 0 191.50342 298.77246 A 115 115 0 0 0 250.00049 315 A 115 115 0 0 0 308.67627 298.66406 A 115 115 0 0 0 293.30127 240 A 115 115 0 0 0 249.99902 197.45361 z " index="0,1,2" id="S0n1n2" style="block-size:auto;d:path(&quot;M 249.999 197.454 A 115 115 0 0 0 206.698 240 A 115 115 0 0 0 191.503 298.772 A 115 115 0 0 0 250 315 A 115 115 0 0 0 308.676 298.664 A 115 115 0 0 0 293.301 240 A 115 115 0 0 0 249.999 197.454 Z&quot;);fill-opacity:0.05;height:auto;inline-size:auto;overflow-clip-margin:0px;overflow-x:visible;overflow-y:visible;perspective-origin:0px 0px;stroke:rgb(255, 255, 255);transform-origin:0px 0px;width:auto;" class="intersection"/><text x="245.5" y="152.25" index="0" id="S0Label" style="block-size:auto;display:block;font-size:18px;height:auto;inline-size:auto;overflow-clip-margin:0px;overflow-x:visible;overflow-y:visible;perspective-origin:63.625px 39.1875px;stroke:rgb(255, 255, 255);stroke-width:0.25px;transform-origin:0px 0px;white-space:nowrap;width:auto;" class="intersection-label">5</text><text x="352.5" y="336.25" index="1" id="S1Label" style="block-size:auto;display:block;font-size:18px;height:auto;inline-size:auto;overflow-clip-margin:0px;overflow-x:visible;overflow-y:visible;perspective-origin:90.375px 85.1875px;stroke:rgb(255, 255, 255);stroke-width:0.25px;transform-origin:0px 0px;white-space:nowrap;width:auto;" class="intersection-label">5</text><text x="138.5" y="337.25" index="2" id="S2Label" style="block-size:auto;display:block;font-size:18px;height:auto;inline-size:auto;overflow-clip-margin:0px;overflow-x:visible;overflow-y:visible;perspective-origin:36.875px 85.4375px;stroke:rgb(255, 255, 255);stroke-width:0.25px;transform-origin:0px 0px;white-space:nowrap;width:auto;" class="intersection-label">5</text><text x="226.5" y="60.25" index="-1" id="S-1Label" style="block-size:auto;display:block;fill:rgb(102, 0, 255);font-size:18px;height:auto;inline-size:auto;overflow-clip-margin:0px;overflow-x:visible;overflow-y:visible;perspective-origin:68.375px 16.1875px;stroke:rgb(102, 0, 255);stroke-width:0.25px;transform-origin:0px 0px;white-space:nowrap;width:auto;" class="set-label">Purple</text><text x="419" y="382.25" index="0" id="S0Label" style="block-size:auto;display:block;fill:rgb(0, 153, 255);font-size:18px;height:auto;inline-size:auto;overflow-clip-margin:0px;overflow-x:visible;overflow-y:visible;perspective-origin:113.25px 96.6875px;stroke:rgb(0, 153, 255);stroke-width:0.25px;transform-origin:0px 0px;white-space:nowrap;width:auto;" class="set-label">Blue</text><text x="42.01171875" y="383.25" index="1" id="S1Label" style="block-size:auto;display:block;fill:rgb(0, 204, 0);font-size:18px;height:auto;inline-size:auto;overflow-clip-margin:0px;overflow-x:visible;overflow-y:visible;perspective-origin:21.4922px 96.9375px;stroke:rgb(0, 204, 0);stroke-width:0.25px;transform-origin:0px 0px;white-space:nowrap;width:auto;" class="set-label">Green</text><text x="320.5" y="232.25" index="0,1" id="S0n1Label" style="block-size:auto;display:block;font-size:18px;height:auto;inline-size:auto;overflow-clip-margin:0px;overflow-x:visible;overflow-y:visible;perspective-origin:82.375px 59.1875px;stroke:rgb(255, 255, 255);stroke-width:0.25px;transform-origin:0px 0px;white-space:nowrap;width:auto;" class="intersection-label">3</text><text x="245.5" y="361.25" index="1,2" id="S1n2Label" style="block-size:auto;display:block;font-size:18px;height:auto;inline-size:auto;overflow-clip-margin:0px;overflow-x:visible;overflow-y:visible;perspective-origin:63.625px 91.4375px;stroke:rgb(255, 255, 255);stroke-width:0.25px;transform-origin:0px 0px;white-space:nowrap;width:auto;" class="intersection-label">2</text><text x="170.5" y="232.25" index="0,2" id="S0n2Label" style="block-size:auto;display:block;font-size:18px;height:auto;inline-size:auto;overflow-clip-margin:0px;overflow-x:visible;overflow-y:visible;perspective-origin:44.875px 59.1875px;stroke:rgb(255, 255, 255);stroke-width:0.25px;transform-origin:0px 0px;white-space:nowrap;width:auto;" class="intersection-label">4</text><text x="245.5" y="275.25" index="0,1,2" id="S0n1n2Label" style="block-size:auto;display:block;font-size:18px;height:auto;inline-size:auto;overflow-clip-margin:0px;overflow-x:visible;overflow-y:visible;perspective-origin:63.625px 69.9375px;stroke:rgb(255, 255, 255);stroke-width:0.25px;transform-origin:0px 0px;white-space:nowrap;width:auto;" class="intersection-label">2</text></svg>