<?xml version="1.0" standalone="no"?><!DOCTYPE svg PUBLIC "-//W3C//DTD SVG 1.1//EN" "http://www.w3.org/Graphics/SVG/1.1/DTD/svg11.dtd"><svg width="500" height="500" version="1.1" xmlns="http://www.w3.org/2000/svg" xmlns:xlink="http://www.w3.org/1999/xlink" style="block-size:500px;height:500px;inline-size:500px;perspective-origin:250px 250px;transform-origin:250px 250px;width:500px;"><ellipse cx="266" cy="223" rx="85" ry="170" index="0" id="S0" style="block-size:auto;cx:266px;cy:223px;fill:rgb(102, 0, 255);fill-opacity:0.05;height:auto;inline-size:auto;overflow-clip-margin:0px;overflow-x:visible;overflow-y:visible;perspective-origin:0px 0px;rx:85px;ry:170px;stroke:rgb(102, 0, 255);transform-origin:0px 0px;width:auto;" class="set"/><ellipse cx="266" cy="223" rx="85" ry="170" transform="rotate(72 250 265)" index="1" id="S1" style="block-size:auto;cx:266px;cy:223px;fill:rgb(0, 153, 255);fill-opacity:0.05;height:auto;inline-size:auto;overflow-clip-margin:0px;overflow-x:visible;overflow-y:visible;perspective-origin:0px 0px;rx:85px;ry:170px;stroke:rgb(0, 153, 255);transform:matrix(0.309017, 0.951057, -0.951057, 0.309017, 424.776, -54.6536);transform-origin:0px 0px;width:auto;" class="set"/><ellipse cx="266" cy="223" rx="85" ry="170" transform="rotate(144 250 265)" index="2" id="S2" style="block-size:auto;cx:266px;cy:223px;fill:rgb(0, 204, 0);fill-opacity:0.05;height:auto;inline-size:auto;overflow-clip-margin:0px;overflow-x:visible;overflow-y:visible;perspective-origin:0px 0px;rx:85px;ry:170px;stroke:rgb(0, 204, 0);transform:matrix(-0.809017, 0.587785, -0.587785, -0.809017, 608.017, 332.443);transform-origin:0px 0px;width:auto;" class="set"/><ellipse cx="266" cy="223" rx="85" ry="170" transform="rotate(216 250 265)" index="3" id="S3" style="block-size:auto;cx:266px;cy:223px;fill:rgb(204, 153, 0);fill-opacity:0.05;height:auto;inline-size:auto;overflow-clip-margin:0px;overflow-x:visible;overflow-y:visible;perspective-origin:0px 0px;rx:85px;ry:170px;stroke:rgb(204, 153, 0);transform:matrix(-0.809017, -0.587785, 0.587785, -0.809017, 296.491, 626.336);transform-origin:0px 0px;width:auto;" class="set"/><ellipse cx="266" cy="223" rx="85" ry="170" transform="rotate(288 250 265)" index="4" id="S4" style="block-size:auto;cx:266px;cy:223px;fill:rgb(255, 0, 0);fill-opacity:0.05;height:auto;inline-size:auto;overflow-clip-margin:0px;overflow-x:visible;overflow-y:visible;perspective-origin:0px 0px;rx:85px;ry:170px;stroke:rgb(255, 0, 0);transform:matrix(0.309017, -0.951057, 0.951057, 0.309017, -79.2842, 420.875);transform-origin:0px 0px;width:auto;" class="set"/><path d="M 346.98047 171.36035 A 85 170 72 0 0 268.62158 186.39844 A 85 170 72 0 0 181.22168 230.89307 A 85 170 0 0 0 218.20313 363.29004 A 85 170 72 0 0 321.15527 348.07764 A 85 170 72 0 0 323.89307 347.15918 A 85 170 0 0 0 351 223.00049 A 85 170 0 0 0 346.98047 171.36035 z " index="0,1" id="S0n1" style="block-size:auto;d:path(&quot;M 346.98 171.36 A 85 170 72 0 0 268.622 186.398 A 85 170 72 0 0 181.222 230.893 A 85 170 0 0 0 218.203 363.29 A 85 170 72 0 0 321.155 348.078 A 85 170 72 0 0 323.893 347.159 A 85 170 0 0 0 351 223 A 85 170 0 0 0 346.98 171.36 Z&quot;);fill-opacity:0.05;height:auto;inline-size:auto;overflow-clip-margin:0px;overflow-x:visible;overflow-y:visible;perspective-origin:0px 0px;stroke:rgb(255, 255, 255);transform-origin:0px 0px;width:auto;" class="intersection"/><path d="M 346.98047 171.36035 A 85 170 72 0 0 268.62158 186.39844 A 85 170 72 0 0 181.22168 230.89307 A 85 170 0 0 0 218.20313 363.29004 A 85 170 72 0 0 321.15527 348.07764 A 85 170 72 0 0 323.89307 347.15918 A 85 170 0 0 0 351 223.00049 A 85 170 0 0 0 346.98047 171.36035 z " transform="rotate(72 250 265)" index="1,2" id="S1n2" style="block-size:auto;d:path(&quot;M 346.98 171.36 A 85 170 72 0 0 268.622 186.398 A 85 170 72 0 0 181.222 230.893 A 85 170 0 0 0 218.203 363.29 A 85 170 72 0 0 321.155 348.078 A 85 170 72 0 0 323.893 347.159 A 85 170 0 0 0 351 223 A 85 170 0 0 0 346.98 171.36 Z&quot;);fill-opacity:0.05;height:auto;inline-size:auto;overflow-clip-margin:0px;overflow-x:visible;overflow-y:visible;perspective-origin:0px 0px;stroke:rgb(255, 255, 255);transform:matrix(0.309017, 0.951057, -0.951057, 0.309017, 424.776, -54.6536);transform-origin:0px 0px;width:auto;" class="intersection"/><path d="M 346.98047 171.36035 A 85 170 72 0 0 268.62158 186.39844 A 85 170 72 0 0 181.22168 230.89307 A 85 170 0 0 0 218.20313 363.29004 A 85 170 72 0 0 321.15527 348.07764 A 85 170 72 0 0 323.89307 347.15918 A 85 170 0 0 0 351 223.00049 A 85 170 0 0 0 346.98047 171.36035 z " transform="rotate(144 250 265)" index="2,3" id="S2n3" style="block-size:auto;d:path(&quot;M 346.98 171.36 A 85 170 72 0 0 268.622 186.398 A 85 170 72 0 0 181.222 230.893 A 85 170 0 0 0 218.203 363.29 A 85 170 72 0 0 321.155 348.078 A 85 170 72 0 0 323.893 347.159 A 85 170 0 0 0 351 223 A 85 170 0 0 0 346.98 171.36 Z&quot;);fill-opacity:0.05;height:auto;inline-size:auto;overflow-clip-margin:0px;overflow-x:visible;overflow-y:visible;perspective-origin:0px 0px;stroke:rgb(255, 255, 255);transform:matrix(-0.809017, 0.587785, -0.587785, -0.809017, 608.017, 332.443);transform-origin:0px 0px;width:auto;" class="intersection"/><path d="M 346.98047 171.36035 A 85 170 72 0 0 268.62158 186.39844 A 85 170 72 0 0 181.22168 230.89307 A 85 170 0 0 0 218.20313 363.29004 A 85 170 72 0 0 321.15527 348.07764 A 85 170 72 0 0 323.89307 347.15918 A 85 170 0 0 0 351 223.00049 A 85 170 0 0 0 346.98047 171.36035 z " transform="rotate(216 250 265)" index="3,4" id="S3n4" style="block-size:auto;d:path(&quot;M 346.98 171.36 A 85 170 72 0 0 268.622 186.398 A 85 170 72 0 0 181.222 230.893 A 85 170 0 0 0 218.203 363.29 A 85 170 72 0 0 321.155 348.078 A 85 170 72 0 0 323.893 347.159 A 85 170 0 0 0 351 223 A 85 170 0 0 0 346.98 171.36 Z&quot;);fill-opacity:0.05;height:auto;inline-size:auto;overflow-clip-margin:0px;overflow-x:visible;overflow-y:visible;perspective-origin:0px 0px;stroke:rgb(255, 255, 255);transform:matrix(-0.809017, -0.587785, 0.587785, -0.809017, 296.491, 626.336);transform-origin:0px 0px;width:auto;" class="intersection"/><path d="M 346.98047 171.36035 A 85 170 72 0 0 268.62158 186.39844 A 85 170 72 0 0 181.22168 230.89307 A 85 170 0 0 0 218.20313 363.29004 A 85 170 72 0 0 321.15527 348.07764 A 85 170 72 0 0 323.89307 347.15918 A 85 170 0 0 0 351 223.00049 A 85 170 0 0 0 346.98047 171.36035 z " transform="rotate(288 250 265)" index="0,4" id="S0n4" style="block-size:auto;d:path(&quot;M 346.98 171.36 A 85 170 72 0 0 268.622 186.398 A 85 170 72 0 0 181.222 230.893 A 85 170 0 0 0 218.203 363.29 A 85 170 72 0 0 321.155 348.078 A 85 170 72 0 0 323.893 347.159 A 85 170 0 0 0 351 223 A 85 170 0 0 0 346.98 171.36 Z&quot;);fill-opacity:0.05;height:auto;inline-size:auto;overflow-clip-margin:0px;overflow-x:visible;overflow-y:visible;perspective-origin:0px 0px;stroke:rgb(255, 255, 255);transform:matrix(0.309017, -0.951057, 0.951057, 0.309017, -79.2842, 420.875);transform-origin:0px 0px;width:auto;" class="intersection"/><path d="M 190.13818 162.06738 A 170 85 54 0 0 186.68555 162.43359 A 85 170 0 0 0 181.00049 223.00049 A 85 170 0 0 0 265.99951 393 A 85 170 0 0 0 345.77197 281.35986 A 170 85 54 0 0 330.50977 258.42188 A 170 85 54 0 0 190.13818 162.06738 z " index="0,2" id="S0n2" style="block-size:auto;d:path(&quot;M 190.138 162.067 A 170 85 54 0 0 186.686 162.434 A 85 170 0 0 0 181 223 A 85 170 0 0 0 266 393 A 85 170 0 0 0 345.772 281.36 A 170 85 54 0 0 330.51 258.422 A 170 85 54 0 0 190.138 162.067 Z&quot;);fill-opacity:0.05;height:auto;inline-size:auto;overflow-clip-margin:0px;overflow-x:visible;overflow-y:visible;perspective-origin:0px 0px;stroke:rgb(255, 255, 255);transform-origin:0px 0px;width:auto;" class="intersection"/><path d="M 190.13818 162.06738 A 170 85 54 0 0 186.68555 162.43359 A 85 170 0 0 0 181.00049 223.00049 A 85 170 0 0 0 265.99951 393 A 85 170 0 0 0 345.77197 281.35986 A 170 85 54 0 0 330.50977 258.42188 A 170 85 54 0 0 190.13818 162.06738 z " transform="rotate(72 250 265)" index="1,3" id="S1n3" style="block-size:auto;d:path(&quot;M 190.138 162.067 A 170 85 54 0 0 186.686 162.434 A 85 170 0 0 0 181 223 A 85 170 0 0 0 266 393 A 85 170 0 0 0 345.772 281.36 A 170 85 54 0 0 330.51 258.422 A 170 85 54 0 0 190.138 162.067 Z&quot;);fill-opacity:0.05;height:auto;inline-size:auto;overflow-clip-margin:0px;overflow-x:visible;overflow-y:visible;perspective-origin:0px 0px;stroke:rgb(255, 255, 255);transform:matrix(0.309017, 0.951057, -0.951057, 0.309017, 424.776, -54.6536);transform-origin:0px 0px;width:auto;" class="intersection"/><path d="M 190.13818 162.06738 A 170 85 54 0 0 186.68555 162.43359 A 85 170 0 0 0 181.00049 223.00049 A 85 170 0 0 0 265.99951 393 A 85 170 0 0 0 345.77197 281.35986 A 170 85 54 0 0 330.50977 258.42188 A 170 85 54 0 0 190.13818 162.06738 z " transform="rotate(144 250 265)" index="2,4" id="S2n4" style="block-size:auto;d:path(&quot;M 190.138 162.067 A 170 85 54 0 0 186.686 162.434 A 85 170 0 0 0 181 223 A 85 170 0 0 0 266 393 A 85 170 0 0 0 345.772 281.36 A 170 85 54 0 0 330.51 258.422 A 170 85 54 0 0 190.138 162.067 Z&quot;);fill-opacity:0.05;height:auto;inline-size:auto;overflow-clip-margin:0px;overflow-x:visible;overflow-y:visible;perspective-origin:0px 0px;stroke:rgb(255, 255, 255);transform:matrix(-0.809017, 0.587785, -0.587785, -0.809017, 608.017, 332.443);transform-origin:0px 0px;width:auto;" class="intersection"/><path d="M 190.13818 162.06738 A 170 85 54 0 0 186.68555 162.43359 A 85 170 0 0 0 181.00049 223.00049 A 85 170 0 0 0 265.99951 393 A 85 170 0 0 0 345.77197 281.35986 A 170 85 54 0 0 330.50977 258.42188 A 170 85 54 0 0 190.13818 162.06738 z " transform="rotate(216 250 265)" index="0,3" id="S0n3" style="block-size:auto;d:path(&quot;M 190.138 162.067 A 170 85 54 0 0 186.686 162.434 A 85 170 0 0 0 181 223 A 85 170 0 0 0 266 393 A 85 170 0 0 0 345.772 281.36 A 170 85 54 0 0 330.51 258.422 A 170 85 54 0 0 190.138 162.067 Z&quot;);fill-opacity:0.05;height:auto;inline-size:auto;overflow-clip-margin:0px;overflow-x:visible;overflow-y:visible;perspective-origin:0px 0px;stroke:rgb(255, 255, 255);transform:matrix(-0.809017, -0.587785, 0.587785, -0.809017, 296.491, 626.336);transform-origin:0px 0px;width:auto;" class="intersection"/><path d="M 190.13818 162.06738 A 170 85 54 0 0 186.68555 162.43359 A 85 170 0 0 0 181.00049 223.00049 A 85 170 0 0 0 265.99951 393 A 85 170 0 0 0 345.77197 281.35986 A 170 85 54 0 0 330.50977 258.42188 A 170 85 54 0 0 190.13818 162.06738 z " transform="rotate(288 250 265)" index="1,4" id="S1n4" style="block-size:auto;d:path(&quot;M 190.138 162.067 A 170 85 54 0 0 186.686 162.434 A 85 170 0 0 0 181 223 A 85 170 0 0 0 266 393 A 85 170 0 0 0 345.772 281.36 A 170 85 54 0 0 330.51 258.422 A 170 85 54 0 0 190.138 162.067 Z&quot;);fill-opacity:0.05;height:auto;inline-size:auto;overflow-clip-margin:0px;overflow-x:visible;overflow-y:visible;perspective-origin:0px 0px;stroke:rgb(255, 255, 255);transform:matrix(0.309017, -0.951057, 0.951057, 0.309017, -79.2842, 420.875);transform-origin:0px 0px;width:auto;" class="intersection"/><path d="M 261.18311 189.04834 A 85 170 72 0 0 181.22168 230.89307 A 85 170 0 0 0 218.20313 363.29004 A 85 170 72 0 0 321.15527 348.07764 A 85 170 72 0 0 323.89307 347.15918 A 85 170 0 0 0 345.77197 281.35986 A 170 85 54 0 0 330.50977 258.42188 A 170 85 54 0 0 261.18311 189.04834 z " index="0,1,2" id="S0n1n2" style="block-size:auto;d:path(&quot;M 261.183 189.048 A 85 170 72 0 0 181.222 230.893 A 85 170 0 0 0 218.203 363.29 A 85 170 72 0 0 321.155 348.078 A 85 170 72 0 0 323.893 347.159 A 85 170 0 0 0 345.772 281.36 A 170 85 54 0 0 330.51 258.422 A 170 85 54 0 0 261.183 189.048 Z&quot;);fill-opacity:0.05;height:auto;inline-size:auto;overflow-clip-margin:0px;overflow-x:visible;overflow-y:visible;perspective-origin:0px 0px;stroke:rgb(255, 255, 255);transform-origin:0px 0px;width:auto;" class="intersection"/><path d="M 261.18311 189.04834 A 85 170 72 0 0 181.22168 230.89307 A 85 170 0 0 0 218.20313 363.29004 A 85 170 72 0 0 321.15527 348.07764 A 85 170 72 0 0 323.89307 347.15918 A 85 170 0 0 0 345.77197 281.35986 A 170 85 54 0 0 330.50977 258.42188 A 170 85 54 0 0 261.18311 189.04834 z " transform="rotate(72 250 265)" index="1,2,3" id="S1n2n3" style="block-size:auto;d:path(&quot;M 261.183 189.048 A 85 170 72 0 0 181.222 230.893 A 85 170 0 0 0 218.203 363.29 A 85 170 72 0 0 321.155 348.078 A 85 170 72 0 0 323.893 347.159 A 85 170 0 0 0 345.772 281.36 A 170 85 54 0 0 330.51 258.422 A 170 85 54 0 0 261.183 189.048 Z&quot;);fill-opacity:0.05;height:auto;inline-size:auto;overflow-clip-margin:0px;overflow-x:visible;overflow-y:visible;perspective-origin:0px 0px;stroke:rgb(255, 255, 255);transform:matrix(0.309017, 0.951057, -0.951057, 0.309017, 424.776, -54.6536);transform-origin:0px 0px;width:auto;" class="intersection"/><path d="M 261.18311 189.04834 A 85 170 72 0 0 181.22168 230.89307 A 85 170 0 0 0 218.20313 363.29004 A 85 170 72 0 0 321.15527 348.07764 A 85 170 72 0 0 323.89307 347.15918 A 85 170 0 0 0 345.77197 281.35986 A 170 85 54 0 0 330.50977 258.42188 A 170 85 54 0 0 261.18311 189.04834 z " transform="rotate(144 250 265)" index="2,3,4" id="S2n3n4" style="block-size:auto;d:path(&quot;M 261.183 189.048 A 85 170 72 0 0 181.222 230.893 A 85 170 0 0 0 218.203 363.29 A 85 170 72 0 0 321.155 348.078 A 85 170 72 0 0 323.893 347.159 A 85 170 0 0 0 345.772 281.36 A 170 85 54 0 0 330.51 258.422 A 170 85 54 0 0 261.183 189.048 Z&quot;);fill-opacity:0.05;height:auto;inline-size:auto;overflow-clip-margin:0px;overflow-x:visible;overflow-y:visible;perspective-origin:0px 0px;stroke:rgb(255, 255, 255);transform:matrix(-0.809017, 0.587785, -0.587785, -0.809017, 608.017, 332.443);transform-origin:0px 0px;width:auto;" class="intersection"/><path d="M 261.18311 189.04834 A 85 170 72 0 0 181.22168 230.89307 A 85 170 0 0 0 218.20313 363.29004 A 85 170 72 0 0 321.15527 348.07764 A 85 170 72 0 0 323.89307 347.15918 A 85 170 0 0 0 345.77197 281.35986 A 170 85 54 0 0 330.50977 258.42188 A 170 85 54 0 0 261.18311 189.04834 z " transform="rotate(216 250 265)" index="0,3,4" id="S0n3n4" style="block-size:auto;d:path(&quot;M 261.183 189.048 A 85 170 72 0 0 181.222 230.893 A 85 170 0 0 0 218.203 363.29 A 85 170 72 0 0 321.155 348.078 A 85 170 72 0 0 323.893 347.159 A 85 170 0 0 0 345.772 281.36 A 170 85 54 0 0 330.51 258.422 A 170 85 54 0 0 261.183 189.048 Z&quot;);fill-opacity:0.05;height:auto;inline-size:auto;overflow-clip-margin:0px;overflow-x:visible;overflow-y:visible;perspective-origin:0px 0px;stroke:rgb(255, 255, 255);transform:matrix(-0.809017, -0.587785, 0.587785, -0.809017, 296.491, 626.336);transform-origin:0px 0px;width:auto;" class="intersection"/><path d="M 261.18311 189.04834 A 85 170 72 0 0 181.22168 230.89307 A 85 170 0 0 0 218.20313 363.29004 A 85 170 72 0 0 321.15527 348.07764 A 85 170 72 0 0 323.89307 347.15918 A 85 170 0 0 0 345.77197 281.35986 A 170 85 54 0 0 330.50977 258.42188 A 170 85 54 0 0 261.18311 189.04834 z " transform="rotate(288 250 265)" index="0,1,4" id="S0n1n4" style="block-size:auto;d:path(&quot;M 261.183 189.048 A 85 170 72 0 0 181.222 230.893 A 85 170 0 0 0 218.203 363.29 A 85 170 72 0 0 321.155 348.078 A 85 170 72 0 0 323.893 347.159 A 85 170 0 0 0 345.772 281.36 A 170 85 54 0 0 330.51 258.422 A 170 85 54 0 0 261.183 189.048 Z&quot;);fill-opacity:0.05;height:auto;inline-size:auto;overflow-clip-margin:0px;overflow-x:visible;overflow-y:visible;perspective-origin:0px 0px;stroke:rgb(255, 255, 255);transform:matrix(0.309017, -0.951057, 0.951057, 0.309017, -79.2842, 420.875);transform-origin:0px 0px;width:auto;" class="intersection"/><path d="M 217.94971 166.7915 A 85 170 36 0 0 182.26758 195.35156 A 85 170 0 0 0 181.00049 223.00049 A 85 170 0 0 0 240.93457 385.19385 A 85 170 36 0 0 281.13574 339.53613 A 85 170 36 0 0 325.79443 252.30029 A 170 85 54 0 0 217.94971 166.7915 z " index="0,2,3" id="S0n2n3" style="block-size:auto;d:path(&quot;M 217.95 166.792 A 85 170 36 0 0 182.268 195.352 A 85 170 0 0 0 181 223 A 85 170 0 0 0 240.935 385.194 A 85 170 36 0 0 281.136 339.536 A 85 170 36 0 0 325.794 252.3 A 170 85 54 0 0 217.95 166.792 Z&quot;);fill-opacity:0.05;height:auto;inline-size:auto;overflow-clip-margin:0px;overflow-x:visible;overflow-y:visible;perspective-origin:0px 0px;stroke:rgb(255, 255, 255);transform-origin:0px 0px;width:auto;" class="intersection"/><path d="M 217.94971 166.7915 A 85 170 36 0 0 182.26758 195.35156 A 85 170 0 0 0 181.00049 223.00049 A 85 170 0 0 0 240.93457 385.19385 A 85 170 36 0 0 281.13574 339.53613 A 85 170 36 0 0 325.79443 252.30029 A 170 85 54 0 0 217.94971 166.7915 z " transform="rotate(72 250 265)" index="1,3,4" id="S1n3n4" style="block-size:auto;d:path(&quot;M 217.95 166.792 A 85 170 36 0 0 182.268 195.352 A 85 170 0 0 0 181 223 A 85 170 0 0 0 240.935 385.194 A 85 170 36 0 0 281.136 339.536 A 85 170 36 0 0 325.794 252.3 A 170 85 54 0 0 217.95 166.792 Z&quot;);fill-opacity:0.05;height:auto;inline-size:auto;overflow-clip-margin:0px;overflow-x:visible;overflow-y:visible;perspective-origin:0px 0px;stroke:rgb(255, 255, 255);transform:matrix(0.309017, 0.951057, -0.951057, 0.309017, 424.776, -54.6536);transform-origin:0px 0px;width:auto;" class="intersection"/><path d="M 217.94971 166.7915 A 85 170 36 0 0 182.26758 195.35156 A 85 170 0 0 0 181.00049 223.00049 A 85 170 0 0 0 240.93457 385.19385 A 85 170 36 0 0 281.13574 339.53613 A 85 170 36 0 0 325.79443 252.30029 A 170 85 54 0 0 217.94971 166.7915 z " transform="rotate(144 250 265)" index="0,2,4" id="S0n2n4" style="block-size:auto;d:path(&quot;M 217.95 166.792 A 85 170 36 0 0 182.268 195.352 A 85 170 0 0 0 181 223 A 85 170 0 0 0 240.935 385.194 A 85 170 36 0 0 281.136 339.536 A 85 170 36 0 0 325.794 252.3 A 170 85 54 0 0 217.95 166.792 Z&quot;);fill-opacity:0.05;height:auto;inline-size:auto;overflow-clip-margin:0px;overflow-x:visible;overflow-y:visible;perspective-origin:0px 0px;stroke:rgb(255, 255, 255);transform:matrix(-0.809017, 0.587785, -0.587785, -0.809017, 608.017, 332.443);transform-origin:0px 0px;width:auto;" class="intersection"/><path d="M 217.94971 166.7915 A 85 170 36 0 0 182.26758 195.35156 A 85 170 0 0 0 181.00049 223.00049 A 85 170 0 0 0 240.93457 385.19385 A 85 170 36 0 0 281.13574 339.53613 A 85 170 36 0 0 325.79443 252.30029 A 170 85 54 0 0 217.94971 166.7915 z " transform="rotate(216 250 265)" index="0,1,3" id="S0n1n3" style="block-size:auto;d:path(&quot;M 217.95 166.792 A 85 170 36 0 0 182.268 195.352 A 85 170 0 0 0 181 223 A 85 170 0 0 0 240.935 385.194 A 85 170 36 0 0 281.136 339.536 A 85 170 36 0 0 325.794 252.3 A 170 85 54 0 0 217.95 166.792 Z&quot;);fill-opacity:0.05;height:auto;inline-size:auto;overflow-clip-margin:0px;overflow-x:visible;overflow-y:visible;perspective-origin:0px 0px;stroke:rgb(255, 255, 255);transform:matrix(-0.809017, -0.587785, 0.587785, -0.809017, 296.491, 626.336);transform-origin:0px 0px;width:auto;" class="intersection"/><path d="M 217.94971 166.7915 A 85 170 36 0 0 182.26758 195.35156 A 85 170 0 0 0 181.00049 223.00049 A 85 170 0 0 0 240.93457 385.19385 A 85 170 36 0 0 281.13574 339.53613 A 85 170 36 0 0 325.79443 252.30029 A 170 85 54 0 0 217.94971 166.7915 z " transform="rotate(288 250 265)" index="1,2,4" id="S1n2n4" style="block-size:auto;d:path(&quot;M 217.95 166.792 A 85 170 36 0 0 182.268 195.352 A 85 170 0 0 0 181 223 A 85 170 0 0 0 240.935 385.194 A 85 170 36 0 0 281.136 339.536 A 85 170 36 0 0 325.794 252.3 A 170 85 54 0 0 217.95 166.792 Z&quot;);fill-opacity:0.05;height:auto;inline-size:auto;overflow-clip-margin:0px;overflow-x:visible;overflow-y:visible;perspective-origin:0px 0px;stroke:rgb(255, 255, 255);transform:matrix(0.309017, -0.951057, 0.951057, 0.309017, -79.2842, 420.875);transform-origin:0px 0px;width:auto;" class="intersection"/><path d="M 261.18311 189.04834 A 85 170 72 0 0 181.22168 230.89307 A 85 170 0 0 0 218.20313 363.29004 A 85 170 72 0 0 263.85938 361.16016 A 85 170 36 0 0 281.13574 339.53613 A 85 170 36 0 0 325.79443 252.30029 A 170 85 54 0 0 261.18311 189.04834 z " index="0,1,2,3" id="S0n1n2n3" style="block-size:auto;d:path(&quot;M 261.183 189.048 A 85 170 72 0 0 181.222 230.893 A 85 170 0 0 0 218.203 363.29 A 85 170 72 0 0 263.859 361.16 A 85 170 36 0 0 281.136 339.536 A 85 170 36 0 0 325.794 252.3 A 170 85 54 0 0 261.183 189.048 Z&quot;);fill-opacity:0.05;height:auto;inline-size:auto;overflow-clip-margin:0px;overflow-x:visible;overflow-y:visible;perspective-origin:0px 0px;stroke:rgb(255, 255, 255);transform-origin:0px 0px;width:auto;" class="intersection"/><path d="M 261.18311 189.04834 A 85 170 72 0 0 181.22168 230.89307 A 85 170 0 0 0 218.20313 363.29004 A 85 170 72 0 0 263.85938 361.16016 A 85 170 36 0 0 281.13574 339.53613 A 85 170 36 0 0 325.79443 252.30029 A 170 85 54 0 0 261.18311 189.04834 z " transform="rotate(72 250 265)" index="1,2,3,4" id="S1n2n3n4" style="block-size:auto;d:path(&quot;M 261.183 189.048 A 85 170 72 0 0 181.222 230.893 A 85 170 0 0 0 218.203 363.29 A 85 170 72 0 0 263.859 361.16 A 85 170 36 0 0 281.136 339.536 A 85 170 36 0 0 325.794 252.3 A 170 85 54 0 0 261.183 189.048 Z&quot;);fill-opacity:0.05;height:auto;inline-size:auto;overflow-clip-margin:0px;overflow-x:visible;overflow-y:visible;perspective-origin:0px 0px;stroke:rgb(255, 255, 255);transform:matrix(0.309017, 0.951057, -0.951057, 0.309017, 424.776, -54.6536);transform-origin:0px 0px;width:auto;" class="intersection"/><path d="M 261.18311 189.04834 A 85 170 72 0 0 181.22168 230.89307 A 85 170 0 0 0 218.20313 363.29004 A 85 170 72 0 0 263.85938 361.16016 A 85 170 36 0 0 281.13574 339.53613 A 85 170 36 0 0 325.79443 252.30029 A 170 85 54 0 0 261.18311 189.04834 z " transform="rotate(144 250 265)" index="0,2,3,4" id="S0n2n3n4" style="block-size:auto;d:path(&quot;M 261.183 189.048 A 85 170 72 0 0 181.222 230.893 A 85 170 0 0 0 218.203 363.29 A 85 170 72 0 0 263.859 361.16 A 85 170 36 0 0 281.136 339.536 A 85 170 36 0 0 325.794 252.3 A 170 85 54 0 0 261.183 189.048 Z&quot;);fill-opacity:0.05;height:auto;inline-size:auto;overflow-clip-margin:0px;overflow-x:visible;overflow-y:visible;perspective-origin:0px 0px;stroke:rgb(255, 255, 255);transform:matrix(-0.809017, 0.587785, -0.587785, -0.809017, 608.017, 332.443);transform-origin:0px 0px;width:auto;" class="intersection"/><path d="M 261.18311 189.04834 A 85 170 72 0 0 181.22168 230.89307 A 85 170 0 0 0 218.20313 363.29004 A 85 170 72 0 0 263.85938 361.16016 A 85 170 36 0 0 281.13574 339.53613 A 85 170 36 0 0 325.79443 252.30029 A 170 85 54 0 0 261.18311 189.04834 z " transform="rotate(216 250 265)" index="0,1,3,4" id="S0n1n3n4" style="block-size:auto;d:path(&quot;M 261.183 189.048 A 85 170 72 0 0 181.222 230.893 A 85 170 0 0 0 218.203 363.29 A 85 170 72 0 0 263.859 361.16 A 85 170 36 0 0 281.136 339.536 A 85 170 36 0 0 325.794 252.3 A 170 85 54 0 0 261.183 189.048 Z&quot;);fill-opacity:0.05;height:auto;inline-size:auto;overflow-clip-margin:0px;overflow-x:visible;overflow-y:visible;perspective-origin:0px 0px;stroke:rgb(255, 255, 255);transform:matrix(-0.809017, -0.587785, 0.587785, -0.809017, 296.491, 626.336);transform-origin:0px 0px;width:auto;" class="intersection"/><path d="M 261.18311 189.04834 A 85 170 72 0 0 181.22168 230.89307 A 85 170 0 0 0 218.20313 363.29004 A 85 170 72 0 0 263.85938 361.16016 A 85 170 36 0 0 281.13574 339.53613 A 85 170 36 0 0 325.79443 252.30029 A 170 85 54 0 0 261.18311 189.04834 z " transform="rotate(288 250 265)" index="0,1,2,4" id="S0n1n2n4" style="block-size:auto;d:path(&quot;M 261.183 189.048 A 85 170 72 0 0 181.222 230.893 A 85 170 0 0 0 218.203 363.29 A 85 170 72 0 0 263.859 361.16 A 85 170 36 0 0 281.136 339.536 A 85 170 36 0 0 325.794 252.3 A 170 85 54 0 0 261.183 189.048 Z&quot;);fill-opacity:0.05;height:auto;inline-size:auto;overflow-clip-margin:0px;overflow-x:visible;overflow-y:visible;perspective-origin:0px 0px;stroke:rgb(255, 255, 255);transform:matrix(0.309017, -0.951057, 0.951057, 0.309017, -79.2842, 420.875);transform-origin:0px 0px;width:auto;" class="intersection"/><path d="M 261.18311 189.04834 A 85 170 72 0 0 181.22168 230.89307 A 85 170 0 0 0 196.30811 319.87207 A 170 85 18 0 0 285.74268 333.01611 A 85 170 36 0 0 325.79443 252.30029 A 170 85 54 0 0 261.18311 189.04834 z " index="0,1,2,3,4" id="S0n1n2n3n4" style="block-size:auto;d:path(&quot;M 261.183 189.048 A 85 170 72 0 0 181.222 230.893 A 85 170 0 0 0 196.308 319.872 A 170 85 18 0 0 285.743 333.016 A 85 170 36 0 0 325.794 252.3 A 170 85 54 0 0 261.183 189.048 Z&quot;);fill-opacity:0.05;height:auto;inline-size:auto;overflow-clip-margin:0px;overflow-x:visible;overflow-y:visible;perspective-origin:0px 0px;stroke:rgb(255, 255, 255);transform-origin:0px 0px;width:auto;" class="intersection"/><text x="267" y="112" index="0" id="S0Label" style="block-size:auto;display:block;font-size:12px;height:auto;inline-size:auto;overflow-clip-margin:0px;overflow-x:visible;overflow-y:visible;perspective-origin:68.25px 28.75px;stroke:rgb(255, 255, 255);stroke-width:0.25px;transform-origin:0px 0px;white-space:nowrap;width:auto;" class="intersection-label">5</text><text x="405" y="242" index="1" id="S1Label" style="block-size:auto;display:block;font-size:12px;height:auto;inline-size:auto;overflow-clip-margin:0px;overflow-x:visible;overflow-y:visible;perspective-origin:102.75px 61.25px;stroke:rgb(255, 255, 255);stroke-width:0.25px;transform-origin:0px 0px;white-space:nowrap;width:auto;" class="intersection-label">5</text><text x="325" y="413" index="2" id="S2Label" style="block-size:auto;display:block;font-size:12px;height:auto;inline-size:auto;overflow-clip-margin:0px;overflow-x:visible;overflow-y:visible;perspective-origin:82.75px 104px;stroke:rgb(255, 255, 255);stroke-width:0.25px;transform-origin:0px 0px;white-space:nowrap;width:auto;" class="intersection-label">5</text><text x="137" y="390" index="3" id="S3Label" style="block-size:auto;display:block;font-size:12px;height:auto;inline-size:auto;overflow-clip-margin:0px;overflow-x:visible;overflow-y:visible;perspective-origin:35.75px 98.25px;stroke:rgb(255, 255, 255);stroke-width:0.25px;transform-origin:0px 0px;white-space:nowrap;width:auto;" class="intersection-label">5</text><text x="101" y="204" index="4" id="S4Label" style="block-size:auto;display:block;font-size:12px;height:auto;inline-size:auto;overflow-clip-margin:0px;overflow-x:visible;overflow-y:visible;perspective-origin:26.75px 51.75px;stroke:rgb(255, 255, 255);stroke-width:0.25px;transform-origin:0px 0px;white-space:nowrap;width:auto;" class="intersection-label">5</text><text x="269.33203125" y="32" index="-1" id="S-1Label" style="block-size:auto;display:block;fill:rgb(102, 0, 255);font-size:12px;height:auto;inline-size:auto;overflow-clip-margin:0px;overflow-x:visible;overflow-y:visible;perspective-origin:75.1641px 8.75px;stroke:rgb(102, 0, 255);stroke-width:0.25px;transform-origin:0px 0px;white-space:nowrap;width:auto;" class="set-label">Purple</text><text x="477.66796875" y="231" index="0" id="S0Label" style="block-size:auto;display:block;fill:rgb(0, 153, 255);font-size:12px;height:auto;inline-size:auto;overflow-clip-margin:0px;overflow-x:visible;overflow-y:visible;perspective-origin:125.078px 58.5px;stroke:rgb(0, 153, 255);stroke-width:0.25px;transform-origin:0px 0px;white-space:nowrap;width:auto;" class="set-label">Blue</text><text x="348.33984375" y="487" index="1" id="S1Label" style="block-size:auto;display:block;fill:rgb(0, 204, 0);font-size:12px;height:auto;inline-size:auto;overflow-clip-margin:0px;overflow-x:visible;overflow-y:visible;perspective-origin:94.4141px 122.5px;stroke:rgb(0, 204, 0);stroke-width:0.25px;transform-origin:0px 0px;white-space:nowrap;width:auto;" class="set-label">Green</text><text x="63.33984375" y="446" index="2" id="S2Label" style="block-size:auto;display:block;fill:rgb(204, 153, 0);font-size:12px;height:auto;inline-size:auto;overflow-clip-margin:0px;overflow-x:visible;overflow-y:visible;perspective-origin:24.6641px 112.25px;stroke:rgb(204, 153, 0);stroke-width:0.25px;transform-origin:0px 0px;white-space:nowrap;width:auto;" class="set-label">Orange</text><text x="23.33203125" y="165" index="3" id="S3Label" style="block-size:auto;display:block;fill:rgb(255, 0, 0);font-size:12px;height:auto;inline-size:auto;overflow-clip-margin:0px;overflow-x:visible;overflow-y:visible;perspective-origin:10.6641px 42px;stroke:rgb(255, 0, 0);stroke-width:0.25px;transform-origin:0px 0px;white-space:nowrap;width:auto;" class="set-label">Red</text><text x="339" y="195" index="0,1" id="S0n1Label" style="block-size:auto;display:block;font-size:12px;height:auto;inline-size:auto;overflow-clip-margin:0px;overflow-x:visible;overflow-y:visible;perspective-origin:86.25px 49.5px;stroke:rgb(255, 255, 255);stroke-width:0.25px;transform-origin:0px 0px;white-space:nowrap;width:auto;" class="intersection-label">3</text><text x="349" y="336" index="1,2" id="S1n2Label" style="block-size:auto;display:block;font-size:12px;height:auto;inline-size:auto;overflow-clip-margin:0px;overflow-x:visible;overflow-y:visible;perspective-origin:88.75px 84.75px;stroke:rgb(255, 255, 255);stroke-width:0.25px;transform-origin:0px 0px;white-space:nowrap;width:auto;" class="intersection-label">2</text><text x="218" y="388" index="2,3" id="S2n3Label" style="block-size:auto;display:block;font-size:12px;height:auto;inline-size:auto;overflow-clip-margin:0px;overflow-x:visible;overflow-y:visible;perspective-origin:56px 97.75px;stroke:rgb(255, 255, 255);stroke-width:0.25px;transform-origin:0px 0px;white-space:nowrap;width:auto;" class="intersection-label">4</text><text x="127" y="280" index="3,4" id="S3n4Label" style="block-size:auto;display:block;font-size:12px;height:auto;inline-size:auto;overflow-clip-margin:0px;overflow-x:visible;overflow-y:visible;perspective-origin:33.25px 70.75px;stroke:rgb(255, 255, 255);stroke-width:0.25px;transform-origin:0px 0px;white-space:nowrap;width:auto;" class="intersection-label">3</text><text x="202" y="161" index="0,4" id="S0n4Label" style="block-size:auto;display:block;font-size:12px;height:auto;inline-size:auto;overflow-clip-margin:0px;overflow-x:visible;overflow-y:visible;perspective-origin:52px 41px;stroke:rgb(255, 255, 255);stroke-width:0.25px;transform-origin:0px 0px;white-space:nowrap;width:auto;" class="intersection-label">3</text><text x="276" y="383" index="0,2" id="S0n2Label" style="block-size:auto;display:block;font-size:12px;height:auto;inline-size:auto;overflow-clip-margin:0px;overflow-x:visible;overflow-y:visible;perspective-origin:70.5px 96.5px;stroke:rgb(255, 255, 255);stroke-width:0.25px;transform-origin:0px 0px;white-space:nowrap;width:auto;" class="intersection-label">4</text><text x="150" y="334" index="1,3" id="S1n3Label" style="block-size:auto;display:block;font-size:12px;height:auto;inline-size:auto;overflow-clip-margin:0px;overflow-x:visible;overflow-y:visible;perspective-origin:39px 84.25px;stroke:rgb(255, 255, 255);stroke-width:0.25px;transform-origin:0px 0px;white-space:nowrap;width:auto;" class="intersection-label">2</text><text x="158" y="199" index="2,4" id="S2n4Label" style="block-size:auto;display:block;font-size:12px;height:auto;inline-size:auto;overflow-clip-margin:0px;overflow-x:visible;overflow-y:visible;perspective-origin:41px 50.5px;stroke:rgb(255, 255, 255);stroke-width:0.25px;transform-origin:0px 0px;white-space:nowrap;width:auto;" class="intersection-label">3</text><text x="289" y="165" index="0,3" id="S0n3Label" style="block-size:auto;display:block;font-size:12px;height:auto;inline-size:auto;overflow-clip-margin:0px;overflow-x:visible;overflow-y:visible;perspective-origin:73.75px 42px;stroke:rgb(255, 255, 255);stroke-width:0.25px;transform-origin:0px 0px;white-space:nowrap;width:auto;" class="intersection-label">4</text><text x="362" y="279" index="1,4" id="S1n4Label" style="block-size:auto;display:block;font-size:12px;height:auto;inline-size:auto;overflow-clip-margin:0px;overflow-x:visible;overflow-y:visible;perspective-origin:92px 70.5px;stroke:rgb(255, 255, 255);stroke-width:0.25px;transform-origin:0px 0px;white-space:nowrap;width:auto;" class="intersection-label">4</text><text x="299" y="350" index="0,1,2" id="S0n1n2Label" style="block-size:auto;display:block;font-size:12px;height:auto;inline-size:auto;overflow-clip-margin:0px;overflow-x:visible;overflow-y:visible;perspective-origin:76.25px 88.25px;stroke:rgb(255, 255, 255);stroke-width:0.25px;transform-origin:0px 0px;white-space:nowrap;width:auto;" class="intersection-label">2</text><text x="189" y="346" index="1,2,3" id="S1n2n3Label" style="block-size:auto;display:block;font-size:12px;height:auto;inline-size:auto;overflow-clip-margin:0px;overflow-x:visible;overflow-y:visible;perspective-origin:48.75px 87.25px;stroke:rgb(255, 255, 255);stroke-width:0.25px;transform-origin:0px 0px;white-space:nowrap;width:auto;" class="intersection-label">2</text><text x="159" y="239" index="2,3,4" id="S2n3n4Label" style="block-size:auto;display:block;font-size:12px;height:auto;inline-size:auto;overflow-clip-margin:0px;overflow-x:visible;overflow-y:visible;perspective-origin:41.25px 60.5px;stroke:rgb(255, 255, 255);stroke-width:0.25px;transform-origin:0px 0px;white-space:nowrap;width:auto;" class="intersection-label">3</text><text x="251" y="178" index="0,3,4" id="S0n3n4Label" style="block-size:auto;display:block;font-size:12px;height:auto;inline-size:auto;overflow-clip-margin:0px;overflow-x:visible;overflow-y:visible;perspective-origin:64.25px 45.25px;stroke:rgb(255, 255, 255);stroke-width:0.25px;transform-origin:0px 0px;white-space:nowrap;width:auto;" class="intersection-label">3</text><text x="337" y="247" index="0,1,4" id="S0n1n4Label" style="block-size:auto;display:block;font-size:12px;height:auto;inline-size:auto;overflow-clip-margin:0px;overflow-x:visible;overflow-y:visible;perspective-origin:85.75px 62.5px;stroke:rgb(255, 255, 255);stroke-width:0.25px;transform-origin:0px 0px;white-space:nowrap;width:auto;" class="intersection-label">2</text><text x="237" y="378" index="0,2,3" id="S0n2n3Label" style="block-size:auto;display:block;font-size:12px;height:auto;inline-size:auto;overflow-clip-margin:0px;overflow-x:visible;overflow-y:visible;perspective-origin:60.75px 95.25px;stroke:rgb(255, 255, 255);stroke-width:0.25px;transform-origin:0px 0px;white-space:nowrap;width:auto;" class="intersection-label">4</text><text x="143" y="295" index="1,3,4" id="S1n3n4Label" style="block-size:auto;display:block;font-size:12px;height:auto;inline-size:auto;overflow-clip-margin:0px;overflow-x:visible;overflow-y:visible;perspective-origin:37.25px 74.5px;stroke:rgb(255, 255, 255);stroke-width:0.25px;transform-origin:0px 0px;white-space:nowrap;width:auto;" class="intersection-label">2</text><text x="193" y="180" index="0,2,4" id="S0n2n4Label" style="block-size:auto;display:block;font-size:12px;height:auto;inline-size:auto;overflow-clip-margin:0px;overflow-x:visible;overflow-y:visible;perspective-origin:49.75px 45.75px;stroke:rgb(255, 255, 255);stroke-width:0.25px;transform-origin:0px 0px;white-space:nowrap;width:auto;" class="intersection-label">3</text><text x="317" y="192" index="0,1,3" id="S0n1n3Label" style="block-size:auto;display:block;font-size:12px;height:auto;inline-size:auto;overflow-clip-margin:0px;overflow-x:visible;overflow-y:visible;perspective-origin:80.75px 48.75px;stroke:rgb(255, 255, 255);stroke-width:0.25px;transform-origin:0px 0px;white-space:nowrap;width:auto;" class="intersection-label">2</text><text x="345" y="314" index="1,2,4" id="S1n2n4Label" style="block-size:auto;display:block;font-size:12px;height:auto;inline-size:auto;overflow-clip-margin:0px;overflow-x:visible;overflow-y:visible;perspective-origin:87.75px 79.25px;stroke:rgb(255, 255, 255);stroke-width:0.25px;transform-origin:0px 0px;white-space:nowrap;width:auto;" class="intersection-label">2</text><text x="237" y="355" index="0,1,2,3" id="S0n1n2n3Label" style="block-size:auto;display:block;font-size:12px;height:auto;inline-size:auto;overflow-clip-margin:0px;overflow-x:visible;overflow-y:visible;perspective-origin:60.75px 89.5px;stroke:rgb(255, 255, 255);stroke-width:0.25px;transform-origin:0px 0px;white-space:nowrap;width:auto;" class="intersection-label">2</text><text x="165" y="288" index="1,2,3,4" id="S1n2n3n4Label" style="block-size:auto;display:block;font-size:12px;height:auto;inline-size:auto;overflow-clip-margin:0px;overflow-x:visible;overflow-y:visible;perspective-origin:42.75px 72.75px;stroke:rgb(255, 255, 255);stroke-width:0.25px;transform-origin:0px 0px;white-space:nowrap;width:auto;" class="intersection-label">2</text><text x="206" y="199" index="0,2,3,4" id="S0n2n3n4Label" style="block-size:auto;display:block;font-size:12px;height:auto;inline-size:auto;overflow-clip-margin:0px;overflow-x:visible;overflow-y:visible;perspective-origin:53px 50.5px;stroke:rgb(255, 255, 255);stroke-width:0.25px;transform-origin:0px 0px;white-space:nowrap;width:auto;" class="intersection-label">3</text><text x="304" y="211" index="0,1,3,4" id="S0n1n3n4Label" style="block-size:auto;display:block;font-size:12px;height:auto;inline-size:auto;overflow-clip-margin:0px;overflow-x:visible;overflow-y:visible;perspective-origin:77.5px 53.5px;stroke:rgb(255, 255, 255);stroke-width:0.25px;transform-origin:0px 0px;white-space:nowrap;width:auto;" class="intersection-label">2</text><text x="323" y="307" index="0,1,2,4" id="S0n1n2n4Label" style="block-size:auto;display:block;font-size:12px;height:auto;inline-size:auto;overflow-clip-margin:0px;overflow-x:visible;overflow-y:visible;perspective-origin:82.25px 77.5px;stroke:rgb(255, 255, 255);stroke-width:0.25px;transform-origin:0px 0px;white-space:nowrap;width:auto;" class="intersection-label">2</text><text x="247" y="272" index="0,1,2,3,4" id="S0n1n2n3n4Label" style="block-size:auto;display:block;font-size:12px;height:auto;inline-size:auto;overflow-clip-margin:0px;overflow-x:visible;overflow-y:visible;perspective-origin:63.25px 68.75px;stroke:rgb(255, 255, 255);stroke-width:0.25px;transform-origin:0px 0px;white-space:nowrap;width:auto;" class="intersection-label">2</text></svg>